<?xml version="1.0" encoding="utf-8"?>
<!-- Generator: Adobe Illustrator 16.0.0, SVG Export Plug-In . SVG Version: 6.00 Build 0)  -->
<!DOCTYPE svg PUBLIC "-//W3C//DTD SVG 1.1//EN" "http://www.w3.org/Graphics/SVG/1.1/DTD/svg11.dtd">
<svg version="1.1" id="Layer_1" xmlns="http://www.w3.org/2000/svg" xmlns:xlink="http://www.w3.org/1999/xlink" x="0px" y="0px"
	 width="200.942px" height="220.873px" viewBox="0 0 200.942 220.873" enable-background="new 0 0 200.942 220.873"
	 xml:space="preserve">
<g>
	<defs>
		<rect id="SVGID_1_" width="200.942" height="220.873"/>
	</defs>
	<clipPath id="SVGID_2_">
		<use xlink:href="#SVGID_1_"  overflow="visible"/>
	</clipPath>
	<path clip-path="url(#SVGID_2_)" fill="#FFCE00" d="M192.946,142.825c0.695,0,1.392-0.521,1.392-1.391v-17.557
		c0-0.694-0.522-1.391-1.392-1.391c-0.694,0-1.391,0.522-1.391,1.391v17.73C191.729,142.305,192.252,142.825,192.946,142.825"/>
	<path clip-path="url(#SVGID_2_)" fill="#FFCE00" d="M191.729,153.255c0,0.695,0.521,1.391,1.392,1.391
		c0.694,0,1.39-0.521,1.39-1.391v-5.736c0-0.695-0.521-1.391-1.39-1.391c-0.696,0-1.392,0.521-1.392,1.391V153.255z"/>
	<path clip-path="url(#SVGID_2_)" fill="#FFCE00" d="M13.732,146.128c-0.695,0-1.391,0.521-1.391,1.391v17.73
		c0,0.695,0.522,1.39,1.391,1.39c0.695,0,1.391-0.521,1.391-1.39v-17.904C15.123,146.649,14.427,146.128,13.732,146.128"/>
	<path clip-path="url(#SVGID_2_)" fill="#FFCE00" d="M13.732,169.769c-0.695,0-1.391,0.521-1.391,1.391v5.736
		c0,0.694,0.522,1.39,1.391,1.39c0.695,0,1.391-0.521,1.391-1.39v-5.736C15.123,170.289,14.427,169.769,13.732,169.769"/>
	<path clip-path="url(#SVGID_2_)" fill="#FFCE00" d="M52.669,46.526l-2.434-2.434c-0.521-0.521-1.39-0.521-1.912,0
		c-0.521,0.522-0.521,1.391,0,1.913l2.434,2.433c0.174,0.174,0.521,0.348,0.869,0.348c0.348,0,0.695-0.174,0.869-0.348
		C53.19,47.743,53.19,47.047,52.669,46.526"/>
	<path clip-path="url(#SVGID_2_)" fill="#FFCE00" d="M58.058,51.915c-0.521-0.521-1.391-0.521-1.912,0
		c-0.522,0.521-0.522,1.391,0,1.912l2.433,2.434c0.174,0.173,0.522,0.347,0.87,0.347c0.347,0,0.695-0.174,0.869-0.347
		c0.521-0.522,0.521-1.391,0-1.912L58.058,51.915z"/>
	<path clip-path="url(#SVGID_2_)" fill="#FFCE00" d="M50.757,51.915l-2.434,2.434c-0.521,0.521-0.521,1.39,0,1.912
		c0.174,0.173,0.522,0.347,0.87,0.347c0.347,0,0.695-0.174,0.869-0.347l2.433-2.434c0.522-0.521,0.522-1.391,0-1.912
		C52.148,51.394,51.278,51.394,50.757,51.915"/>
	<path clip-path="url(#SVGID_2_)" fill="#FFCE00" d="M56.319,48.264c0.174,0.174,0.521,0.348,0.869,0.348s0.695-0.174,0.869-0.348
		l2.434-2.434c0.521-0.521,0.521-1.39,0-1.912c-0.522-0.521-1.391-0.521-1.912,0l-2.434,2.434
		C55.798,47.047,55.798,47.743,56.319,48.264"/>
	<path clip-path="url(#SVGID_2_)" fill="#E72A45" d="M179.388,88.07c-0.521-0.521-1.391-0.521-1.911,0
		c-0.522,0.521-0.522,1.391,0,1.912l2.433,2.434c0.174,0.173,0.521,0.347,0.87,0.347c0.347,0,0.694-0.174,0.869-0.347
		c0.521-0.522,0.521-1.391,0-1.912L179.388,88.07z"/>
	<path clip-path="url(#SVGID_2_)" fill="#E72A45" d="M188.774,100.585c0.349,0,0.695-0.174,0.869-0.348
		c0.522-0.521,0.522-1.39,0-1.912l-2.433-2.433c-0.522-0.522-1.392-0.522-1.913,0c-0.521,0.521-0.521,1.39,0,1.912l2.434,2.433
		C188.254,100.412,188.601,100.585,188.774,100.585"/>
	<path clip-path="url(#SVGID_2_)" fill="#E72A45" d="M180.083,95.893l-2.434,2.434c-0.521,0.521-0.521,1.39,0,1.912
		c0.174,0.173,0.522,0.347,0.87,0.347c0.347,0,0.695-0.174,0.869-0.347l2.433-2.434c0.522-0.521,0.522-1.391,0-1.912
		C181.301,95.372,180.604,95.372,180.083,95.893"/>
	<path clip-path="url(#SVGID_2_)" fill="#E72A45" d="M186.341,92.764c0.349,0,0.695-0.174,0.869-0.348l2.435-2.433
		c0.521-0.522,0.521-1.391,0-1.912c-0.522-0.522-1.392-0.522-1.912,0l-2.435,2.433c-0.521,0.522-0.521,1.391,0,1.912
		C185.82,92.589,185.993,92.764,186.341,92.764"/>
	<path clip-path="url(#SVGID_2_)" fill="#E72A45" d="M9.213,105.8l-2.434-2.434c-0.521-0.521-1.39-0.521-1.912,0
		c-0.521,0.522-0.521,1.391,0,1.913l2.434,2.433c0.174,0.174,0.521,0.348,0.869,0.348c0.348,0,0.695-0.174,0.869-0.348
		C9.734,107.191,9.734,106.321,9.213,105.8"/>
	<path clip-path="url(#SVGID_2_)" fill="#E72A45" d="M14.775,111.363c-0.521-0.521-1.391-0.521-1.912,0
		c-0.522,0.521-0.522,1.391,0,1.911l2.433,2.435c0.174,0.173,0.522,0.347,0.87,0.347c0.347,0,0.695-0.174,0.869-0.347
		c0.521-0.522,0.521-1.392,0-1.912L14.775,111.363z"/>
	<path clip-path="url(#SVGID_2_)" fill="#E72A45" d="M7.475,111.363l-2.434,2.434c-0.521,0.521-0.521,1.39,0,1.912
		c0.174,0.173,0.522,0.347,0.87,0.347c0.347,0,0.695-0.174,0.869-0.347l2.433-2.435c0.522-0.521,0.522-1.391,0-1.911
		C8.691,110.842,7.996,110.842,7.475,111.363"/>
	<path clip-path="url(#SVGID_2_)" fill="#E72A45" d="M15.297,103.367l-2.434,2.434c-0.521,0.521-0.521,1.39,0,1.912
		c0.174,0.173,0.522,0.347,0.87,0.347c0.347,0,0.695-0.174,0.869-0.347l2.433-2.434c0.522-0.521,0.522-1.391,0-1.912
		C16.688,102.846,15.818,102.846,15.297,103.367"/>
	<path clip-path="url(#SVGID_2_)" fill="#E72A45" d="M51.8,12.457c2.955,0,5.389-2.434,5.389-5.389S54.755,1.505,51.8,1.505
		c-2.955,0-5.389,2.433-5.389,5.388S48.671,12.457,51.8,12.457 M51.8,4.112c1.564,0,2.781,1.217,2.781,2.781
		c0,1.565-1.217,2.781-2.781,2.781s-2.781-1.216-2.781-2.781C48.845,5.33,50.236,4.112,51.8,4.112"/>
	<path clip-path="url(#SVGID_2_)" fill="#FFCE00" d="M192.946,184.543c-2.955,0-5.389,2.435-5.389,5.39
		c0,2.954,2.434,5.389,5.389,5.389s5.39-2.435,5.39-5.389C198.336,186.978,196.075,184.543,192.946,184.543 M192.946,192.887
		c-1.563,0-2.781-1.217-2.781-2.78c0-1.565,1.218-2.781,2.781-2.781c1.564,0,2.781,1.216,2.781,2.781
		C195.901,191.67,194.511,192.887,192.946,192.887"/>
	<path clip-path="url(#SVGID_2_)" d="M192.946,44.613c-2.955,0-5.389,2.434-5.389,5.389s2.434,5.389,5.389,5.389
		s5.39-2.434,5.39-5.389C198.509,47.047,196.075,44.613,192.946,44.613 M192.946,52.958c-1.563,0-2.781-1.217-2.781-2.781
		c0-1.565,1.218-2.781,2.781-2.781c1.564,0,2.781,1.216,2.781,2.781C195.901,51.74,194.511,52.958,192.946,52.958"/>
	<path clip-path="url(#SVGID_2_)" fill="#E72A45" d="M7.301,188.889c-3.998,0-7.301,3.304-7.301,7.302s3.303,7.3,7.301,7.3
		s7.301-3.302,7.301-7.3C14.428,192.192,11.299,188.889,7.301,188.889 M7.301,200.883c-2.607,0-4.693-2.086-4.693-4.692
		c0-2.608,2.086-4.694,4.693-4.694s4.693,2.086,4.693,4.694C11.82,198.797,9.735,200.883,7.301,200.883"/>
	<path clip-path="url(#SVGID_2_)" d="M159.225,72.078h19.295c0.694,0,1.39-0.521,1.39-1.391c0-0.695-0.521-1.39-1.39-1.39h-19.295
		c-0.695,0-1.392,0.521-1.392,1.39C158.007,71.557,158.529,72.078,159.225,72.078"/>
	<path clip-path="url(#SVGID_2_)" d="M146.709,69.471c-0.695,0-1.392,0.521-1.392,1.391c0,0.695,0.522,1.39,1.392,1.39h6.258
		c0.695,0,1.39-0.521,1.39-1.39c0-0.696-0.521-1.391-1.39-1.391H146.709z"/>
	<path clip-path="url(#SVGID_2_)" d="M161.484,64.256c0-0.695-0.521-1.391-1.392-1.391h-13.384c-0.695,0-1.391,0.522-1.391,1.391
		c0,0.695,0.521,1.391,1.391,1.391h13.384C160.789,65.473,161.484,64.951,161.484,64.256"/>
	<path clip-path="url(#SVGID_2_)" d="M170.176,65.473c0.694,0,1.391-0.521,1.391-1.391c0-0.695-0.522-1.39-1.391-1.39h-4.347
		c-0.694,0-1.39,0.521-1.39,1.39c0,0.696,0.521,1.391,1.39,1.391H170.176z"/>
	<path clip-path="url(#SVGID_2_)" d="M17.383,27.231c0,0.695,0.521,1.391,1.391,1.391h19.12c0.696,0,1.391-0.522,1.391-1.391
		c0-0.695-0.521-1.391-1.391-1.391H18.6C17.904,25.84,17.383,26.536,17.383,27.231"/>
	<path clip-path="url(#SVGID_2_)" d="M6.084,28.448h6.258c0.695,0,1.39-0.521,1.39-1.391c0-0.695-0.521-1.39-1.39-1.39H6.084
		c-0.695,0-1.391,0.521-1.391,1.39C4.867,27.927,5.389,28.448,6.084,28.448"/>
	<path clip-path="url(#SVGID_2_)" d="M6.084,21.843h13.385c0.695,0,1.39-0.521,1.39-1.391c0-0.695-0.521-1.39-1.39-1.39H6.084
		c-0.695,0-1.391,0.521-1.391,1.39C4.867,21.322,5.389,21.843,6.084,21.843"/>
	<path clip-path="url(#SVGID_2_)" d="M25.205,21.843h4.346c0.695,0,1.39-0.521,1.39-1.391c0-0.695-0.521-1.39-1.39-1.39h-4.346
		c-0.695,0-1.391,0.521-1.391,1.39C23.988,21.322,24.51,21.843,25.205,21.843"/>
	<path clip-path="url(#SVGID_2_)" d="M11.472,90.33H42.24c4.519,0,7.996-3.65,7.996-7.996c0-4.519-3.651-7.996-7.996-7.996h-2.086
		v-0.521c0-3.998-3.303-7.301-7.301-7.301c-1.912,0-3.65,0.696-5.041,2.086c-0.521-1.738-1.391-2.955-2.086-3.824
		c-1.738-2.086-4.519-3.129-7.474-3.129c-5.389,0-9.908,4.52-9.908,9.908c0,1.217,0.173,2.26,0.521,3.303
		c-3.129,1.043-5.389,4.172-5.389,7.648C3.476,86.68,6.953,90.33,11.472,90.33 M10.951,76.771c0.521,0,0.869-0.348,1.043-0.695
		c0.174-0.348,0.174-0.869,0-1.217c-0.695-1.043-1.043-2.26-1.043-3.65c0-3.998,3.303-7.301,7.301-7.301
		c2.259,0,4.171,0.869,5.562,2.26c1.391,1.564,2.086,3.65,1.912,6.257v1.043c0,0.696,0.522,1.217,1.217,1.391
		c0.695,0,1.217-0.522,1.391-1.217v-0.869c0.347-2.26,2.259-3.824,4.519-3.824c2.607,0,4.693,2.086,4.693,4.693
		c0,0.522,0,1.043-0.174,1.391c-0.173,0.347,0,0.869,0.174,1.217c0.174,0.347,0.696,0.521,1.043,0.521h3.824
		c2.955,0,5.389,2.434,5.389,5.389s-2.434,5.388-5.389,5.388H11.472c-2.955,0-5.388-2.433-5.388-5.388
		C6.084,79.378,8.17,77.12,10.951,76.771"/>
	<path clip-path="url(#SVGID_2_)" d="M14.601,72.773h0.174c0.695-0.174,1.217-0.869,1.043-1.564
		c-0.174-0.696,0.174-1.217,0.521-1.565c0.522-0.521,1.391-0.869,2.26-0.695c0.695,0,1.391-0.522,1.391-1.217
		c0-0.695-0.522-1.391-1.217-1.391c-1.738-0.173-3.303,0.348-4.346,1.565c-1.043,1.043-1.39,2.433-1.043,3.824
		C13.384,72.426,13.906,72.773,14.601,72.773"/>
	<path clip-path="url(#SVGID_2_)" d="M152.619,36.792h38.589c5.389,0,9.735-4.346,9.735-9.734c0-4.346-2.956-8.17-6.954-9.387
		c0.521-1.39,0.87-2.955,0.87-4.345c0-6.606-5.39-12.168-12.169-12.168c-3.65,0-6.952,1.39-9.038,3.824
		c-1.043,1.217-2.087,2.781-2.781,5.215c-1.565-1.738-3.998-2.781-6.433-2.781c-4.866,0-8.864,3.998-8.864,8.865v1.043h-2.955
		c-5.39,0-9.734,4.345-9.734,9.734C142.885,32.445,147.229,36.792,152.619,36.792 M152.619,19.931h4.692
		c0.349,0,0.869-0.174,1.043-0.521c0.175-0.348,0.349-0.696,0.175-1.217c-0.175-0.696-0.349-1.217-0.349-1.912
		c0-3.477,2.782-6.258,6.084-6.258c3.129,0,5.563,2.26,6.084,5.215c0,0.347,0,0.695,0.174,1.216c0,0.696,0.695,1.217,1.392,1.217
		c0.695,0,1.216-0.695,1.216-1.39c0-0.522,0-0.869-0.173-1.391c-0.174-3.303,0.695-6.258,2.433-8.17
		c1.738-1.912,4.347-2.955,7.127-2.955c5.215,0,9.561,4.172,9.561,9.561c0,1.738-0.521,3.302-1.216,4.693
		c-0.175,0.348-0.175,0.869,0,1.217c0.173,0.347,0.521,0.695,1.043,0.695c3.649,0.348,6.431,3.477,6.431,7.127
		c0,3.998-3.129,7.127-7.127,7.127h-38.589c-3.998,0-7.127-3.129-7.127-7.127C145.492,23.233,148.795,19.931,152.619,19.931"/>
	<path clip-path="url(#SVGID_2_)" d="M182.169,9.501c2.607,0,4.693,2.086,4.693,4.693c0,0.696,0.522,1.391,1.391,1.391
		c0.695,0,1.392-0.522,1.392-1.391c0-3.998-3.304-7.3-7.301-7.3c-0.695,0-1.392,0.521-1.392,1.39
		C180.778,8.98,181.475,9.501,182.169,9.501"/>
	<path clip-path="url(#SVGID_2_)" d="M83.784,122.313c-0.695,0-1.391,0.521-1.391,1.392v6.953c0,0.694,0.522,1.39,1.391,1.39
		c0.695,0,1.391-0.521,1.391-1.39v-6.953C85.175,123.009,84.479,122.313,83.784,122.313"/>
	<path clip-path="url(#SVGID_2_)" d="M83.784,138.132c-0.695,0-1.391,0.521-1.391,1.392v6.952c0,0.695,0.522,1.391,1.391,1.391
		c0.695,0,1.391-0.521,1.391-1.391v-6.952C85.175,138.653,84.479,138.132,83.784,138.132"/>
	<path clip-path="url(#SVGID_2_)" d="M83.784,91.025c-0.695,0-1.391,0.521-1.391,1.391v6.953c0,0.695,0.522,1.39,1.391,1.39
		c0.695,0,1.391-0.521,1.391-1.39v-6.953C85.175,91.546,84.479,91.025,83.784,91.025"/>
	<path clip-path="url(#SVGID_2_)" d="M83.784,153.776c-0.695,0-1.391,0.521-1.391,1.391v6.953c0,0.695,0.522,1.391,1.391,1.391
		c0.695,0,1.391-0.521,1.391-1.391v-6.953C85.175,154.297,84.479,153.776,83.784,153.776"/>
	<path clip-path="url(#SVGID_2_)" d="M83.784,106.669c-0.695,0-1.391,0.521-1.391,1.391v6.953c0,0.695,0.522,1.39,1.391,1.39
		c0.695,0,1.391-0.521,1.391-1.39v-6.953C85.175,107.19,84.479,106.669,83.784,106.669"/>
	<path clip-path="url(#SVGID_2_)" d="M83.784,169.421c-0.695,0-1.391,0.521-1.391,1.391v6.953c0,0.695,0.522,1.39,1.391,1.39
		c0.695,0,1.391-0.521,1.391-1.39v-6.953C85.175,170.115,84.479,169.421,83.784,169.421"/>
	<path clip-path="url(#SVGID_2_)" d="M83.784,75.207c-0.695,0-1.391,0.521-1.391,1.391v6.953c0,0.695,0.522,1.39,1.391,1.39
		c0.695,0,1.391-0.521,1.391-1.39v-6.953C85.175,75.902,84.479,75.207,83.784,75.207"/>
	<path clip-path="url(#SVGID_2_)" d="M83.784,200.883c-0.695,0-1.391,0.521-1.391,1.392v5.909c0,0.695,0.522,1.391,1.391,1.391
		c0.695,0,1.391-0.521,1.391-1.391v-5.909C85.175,201.578,84.479,200.883,83.784,200.883"/>
	<path clip-path="url(#SVGID_2_)" d="M83.784,185.238c-0.695,0-1.391,0.521-1.391,1.392v6.953c0,0.694,0.522,1.39,1.391,1.39
		c0.695,0,1.391-0.521,1.391-1.39v-6.953C85.175,185.76,84.479,185.238,83.784,185.238"/>
	<path clip-path="url(#SVGID_2_)" d="M96.125,75.207c-0.695,0-1.391,0.521-1.391,1.391v6.953c0,0.695,0.522,1.39,1.391,1.39
		c0.695,0,1.391-0.521,1.391-1.39v-6.953C97.517,75.902,96.995,75.207,96.125,75.207"/>
	<path clip-path="url(#SVGID_2_)" d="M96.125,106.669c-0.695,0-1.391,0.521-1.391,1.391v6.953c0,0.695,0.522,1.39,1.391,1.39
		c0.695,0,1.391-0.521,1.391-1.39v-6.953C97.517,107.19,96.995,106.669,96.125,106.669"/>
	<path clip-path="url(#SVGID_2_)" d="M96.125,122.313c-0.695,0-1.391,0.521-1.391,1.392v6.953c0,0.694,0.522,1.39,1.391,1.39
		c0.695,0,1.391-0.521,1.391-1.39v-6.953C97.517,123.009,96.995,122.313,96.125,122.313"/>
	<path clip-path="url(#SVGID_2_)" d="M96.125,91.025c-0.695,0-1.391,0.521-1.391,1.391v6.953c0,0.695,0.522,1.39,1.391,1.39
		c0.695,0,1.391-0.521,1.391-1.39v-6.953C97.517,91.546,96.995,91.025,96.125,91.025"/>
	<path clip-path="url(#SVGID_2_)" d="M96.125,200.883c-0.695,0-1.391,0.521-1.391,1.392v5.909c0,0.695,0.522,1.391,1.391,1.391
		c0.695,0,1.391-0.521,1.391-1.391v-5.909C97.517,201.578,96.995,200.883,96.125,200.883"/>
	<path clip-path="url(#SVGID_2_)" d="M96.125,138.132c-0.695,0-1.391,0.521-1.391,1.392v6.952c0,0.695,0.522,1.391,1.391,1.391
		c0.695,0,1.391-0.521,1.391-1.391v-6.952C97.517,138.653,96.995,138.132,96.125,138.132"/>
	<path clip-path="url(#SVGID_2_)" d="M96.125,185.238c-0.695,0-1.391,0.521-1.391,1.392v6.953c0,0.694,0.522,1.39,1.391,1.39
		c0.695,0,1.391-0.521,1.391-1.39v-6.953C97.517,185.76,96.995,185.238,96.125,185.238"/>
	<path clip-path="url(#SVGID_2_)" d="M96.125,153.776c-0.695,0-1.391,0.521-1.391,1.391v6.953c0,0.695,0.522,1.391,1.391,1.391
		c0.695,0,1.391-0.521,1.391-1.391v-6.953C97.517,154.297,96.995,153.776,96.125,153.776"/>
	<path clip-path="url(#SVGID_2_)" d="M96.125,169.421c-0.695,0-1.391,0.521-1.391,1.391v6.953c0,0.695,0.522,1.39,1.391,1.39
		c0.695,0,1.391-0.521,1.391-1.39v-6.953C97.517,170.115,96.995,169.421,96.125,169.421"/>
	<path clip-path="url(#SVGID_2_)" d="M108.467,106.669c-0.694,0-1.391,0.521-1.391,1.391v6.953c0,0.695,0.522,1.39,1.391,1.39
		c0.695,0,1.392-0.521,1.392-1.39v-6.953C109.858,107.19,109.336,106.669,108.467,106.669"/>
	<path clip-path="url(#SVGID_2_)" d="M108.467,138.132c-0.694,0-1.391,0.521-1.391,1.392v6.952c0,0.695,0.522,1.391,1.391,1.391
		c0.695,0,1.392-0.521,1.392-1.391v-6.952C109.858,138.653,109.336,138.132,108.467,138.132"/>
	<path clip-path="url(#SVGID_2_)" d="M108.467,122.313c-0.694,0-1.391,0.521-1.391,1.392v6.953c0,0.694,0.522,1.39,1.391,1.39
		c0.695,0,1.392-0.521,1.392-1.39v-6.953C109.858,123.009,109.336,122.313,108.467,122.313"/>
	<path clip-path="url(#SVGID_2_)" d="M108.467,153.776c-0.694,0-1.391,0.521-1.391,1.391v6.953c0,0.695,0.522,1.391,1.391,1.391
		c0.695,0,1.392-0.521,1.392-1.391v-6.953C109.858,154.297,109.336,153.776,108.467,153.776"/>
	<path clip-path="url(#SVGID_2_)" d="M108.467,91.025c-0.694,0-1.391,0.521-1.391,1.391v6.953c0,0.695,0.522,1.39,1.391,1.39
		c0.695,0,1.392-0.521,1.392-1.39v-6.953C109.858,91.546,109.336,91.025,108.467,91.025"/>
	<path clip-path="url(#SVGID_2_)" d="M108.467,75.207c-0.694,0-1.391,0.521-1.391,1.391v6.953c0,0.695,0.522,1.39,1.391,1.39
		c0.695,0,1.392-0.521,1.392-1.39v-6.953C109.858,75.902,109.336,75.207,108.467,75.207"/>
	<path clip-path="url(#SVGID_2_)" d="M108.467,169.421c-0.694,0-1.391,0.521-1.391,1.391v6.953c0,0.695,0.522,1.39,1.391,1.39
		c0.695,0,1.392-0.521,1.392-1.39v-6.953C109.858,170.115,109.336,169.421,108.467,169.421"/>
	<path clip-path="url(#SVGID_2_)" d="M108.467,200.883c-0.694,0-1.391,0.521-1.391,1.392v5.909c0,0.695,0.522,1.391,1.391,1.391
		c0.695,0,1.392-0.521,1.392-1.391v-5.909C109.858,201.578,109.336,200.883,108.467,200.883"/>
	<path clip-path="url(#SVGID_2_)" d="M108.467,185.238c-0.694,0-1.391,0.521-1.391,1.392v6.953c0,0.694,0.522,1.39,1.391,1.39
		c0.695,0,1.392-0.521,1.392-1.39v-6.953C109.858,185.76,109.336,185.238,108.467,185.238"/>
	<path clip-path="url(#SVGID_2_)" d="M120.982,153.776c-0.694,0-1.391,0.521-1.391,1.391v6.953c0,0.695,0.521,1.391,1.391,1.391
		c0.695,0,1.392-0.521,1.392-1.391v-6.953C122.199,154.297,121.678,153.776,120.982,153.776"/>
	<path clip-path="url(#SVGID_2_)" d="M120.982,138.132c-0.694,0-1.391,0.521-1.391,1.392v6.952c0,0.695,0.521,1.391,1.391,1.391
		c0.695,0,1.392-0.521,1.392-1.391v-6.952C122.199,138.653,121.678,138.132,120.982,138.132"/>
	<path clip-path="url(#SVGID_2_)" d="M120.982,169.421c-0.694,0-1.391,0.521-1.391,1.391v6.953c0,0.695,0.521,1.39,1.391,1.39
		c0.695,0,1.392-0.521,1.392-1.39v-6.953C122.199,170.115,121.678,169.421,120.982,169.421"/>
	<path clip-path="url(#SVGID_2_)" d="M120.982,91.025c-0.694,0-1.391,0.521-1.391,1.391v6.953c0,0.695,0.521,1.39,1.391,1.39
		c0.695,0,1.392-0.521,1.392-1.39v-6.953C122.199,91.546,121.678,91.025,120.982,91.025"/>
	<path clip-path="url(#SVGID_2_)" d="M120.982,185.238c-0.694,0-1.391,0.521-1.391,1.392v6.953c0,0.694,0.521,1.39,1.391,1.39
		c0.695,0,1.392-0.521,1.392-1.39v-6.953C122.199,185.76,121.678,185.238,120.982,185.238"/>
	<path clip-path="url(#SVGID_2_)" d="M120.982,75.207c-0.694,0-1.391,0.521-1.391,1.391v6.953c0,0.695,0.521,1.39,1.391,1.39
		c0.695,0,1.392-0.521,1.392-1.39v-6.953C122.199,75.902,121.678,75.207,120.982,75.207"/>
	<path clip-path="url(#SVGID_2_)" d="M120.982,106.669c-0.694,0-1.391,0.521-1.391,1.391v6.953c0,0.695,0.521,1.39,1.391,1.39
		c0.695,0,1.392-0.521,1.392-1.39v-6.953C122.199,107.19,121.678,106.669,120.982,106.669"/>
	<path clip-path="url(#SVGID_2_)" d="M120.982,200.883c-0.694,0-1.391,0.521-1.391,1.392v5.909c0,0.695,0.521,1.391,1.391,1.391
		c0.695,0,1.392-0.521,1.392-1.391v-5.909C122.199,201.578,121.678,200.883,120.982,200.883"/>
	<path clip-path="url(#SVGID_2_)" d="M120.982,122.313c-0.694,0-1.391,0.521-1.391,1.392v6.953c0,0.694,0.521,1.39,1.391,1.39
		c0.695,0,1.392-0.521,1.392-1.39v-6.953C122.199,123.009,121.678,122.313,120.982,122.313"/>
	<path clip-path="url(#SVGID_2_)" d="M150.186,125.095c-0.695,0-1.392,0.521-1.392,1.392v6.953c0,0.694,0.522,1.39,1.392,1.39
		c0.694,0,1.391-0.521,1.391-1.39v-6.953C151.576,125.616,151.055,125.095,150.186,125.095"/>
	<path clip-path="url(#SVGID_2_)" d="M150.186,187.846c-0.695,0-1.392,0.521-1.392,1.392v6.953c0,0.694,0.522,1.39,1.392,1.39
		c0.694,0,1.391-0.521,1.391-1.39v-6.953C151.576,188.541,151.055,187.846,150.186,187.846"/>
	<path clip-path="url(#SVGID_2_)" d="M150.186,203.664c-0.695,0-1.392,0.521-1.392,1.392v6.952c0,0.695,0.522,1.391,1.392,1.391
		c0.694,0,1.391-0.521,1.391-1.391v-6.952C151.576,204.186,151.055,203.664,150.186,203.664"/>
	<path clip-path="url(#SVGID_2_)" d="M150.186,172.202c-0.695,0-1.392,0.521-1.392,1.391v6.953c0,0.695,0.522,1.39,1.392,1.39
		c0.694,0,1.391-0.521,1.391-1.39v-6.953C151.576,172.723,151.055,172.202,150.186,172.202"/>
	<path clip-path="url(#SVGID_2_)" d="M150.186,156.384c-0.695,0-1.392,0.521-1.392,1.391v6.953c0,0.695,0.522,1.391,1.392,1.391
		c0.694,0,1.391-0.521,1.391-1.391v-6.953C151.576,157.079,151.055,156.384,150.186,156.384"/>
	<path clip-path="url(#SVGID_2_)" d="M150.186,140.739c-0.695,0-1.392,0.521-1.392,1.391v6.953c0,0.695,0.522,1.391,1.392,1.391
		c0.694,0,1.391-0.521,1.391-1.391v-6.953C151.576,141.261,151.055,140.739,150.186,140.739"/>
	<path clip-path="url(#SVGID_2_)" d="M162.527,172.202c-0.695,0-1.392,0.521-1.392,1.391v6.953c0,0.695,0.522,1.39,1.392,1.39
		c0.694,0,1.391-0.521,1.391-1.39v-6.953C163.918,172.723,163.396,172.202,162.527,172.202"/>
	<path clip-path="url(#SVGID_2_)" d="M162.527,156.384c-0.695,0-1.392,0.521-1.392,1.391v6.953c0,0.695,0.522,1.391,1.392,1.391
		c0.694,0,1.391-0.521,1.391-1.391v-6.953C163.918,157.079,163.396,156.384,162.527,156.384"/>
	<path clip-path="url(#SVGID_2_)" d="M162.527,203.664c-0.695,0-1.392,0.521-1.392,1.392v6.952c0,0.695,0.522,1.391,1.392,1.391
		c0.694,0,1.391-0.521,1.391-1.391v-6.952C163.918,204.186,163.396,203.664,162.527,203.664"/>
	<path clip-path="url(#SVGID_2_)" d="M162.527,140.739c-0.695,0-1.392,0.521-1.392,1.391v6.953c0,0.695,0.522,1.391,1.392,1.391
		c0.694,0,1.391-0.521,1.391-1.391v-6.953C163.918,141.261,163.396,140.739,162.527,140.739"/>
	<path clip-path="url(#SVGID_2_)" d="M162.527,125.095c-0.695,0-1.392,0.521-1.392,1.392v6.953c0,0.694,0.522,1.39,1.392,1.39
		c0.694,0,1.391-0.521,1.391-1.39v-6.953C163.918,125.616,163.396,125.095,162.527,125.095"/>
	<path clip-path="url(#SVGID_2_)" d="M162.527,187.846c-0.695,0-1.392,0.521-1.392,1.392v6.953c0,0.694,0.522,1.39,1.392,1.39
		c0.694,0,1.391-0.521,1.391-1.39v-6.953C163.918,188.541,163.396,187.846,162.527,187.846"/>
	<path clip-path="url(#SVGID_2_)" d="M42.066,213.225c0.695,0,1.391-0.521,1.391-1.391v-6.953c0-0.695-0.522-1.391-1.391-1.391
		c-0.695,0-1.391,0.521-1.391,1.391v6.953C40.849,212.529,41.371,213.225,42.066,213.225"/>
	<path clip-path="url(#SVGID_2_)" d="M42.066,197.406c0.695,0,1.391-0.521,1.391-1.391v-6.953c0-0.695-0.522-1.39-1.391-1.39
		c-0.695,0-1.391,0.521-1.391,1.39v6.953C40.849,196.886,41.371,197.406,42.066,197.406"/>
	<path clip-path="url(#SVGID_2_)" d="M42.066,134.655c0.695,0,1.391-0.521,1.391-1.391v-6.953c0-0.695-0.522-1.39-1.391-1.39
		c-0.695,0-1.391,0.521-1.391,1.39v6.953C40.849,134.135,41.371,134.655,42.066,134.655"/>
	<path clip-path="url(#SVGID_2_)" d="M42.066,150.3c0.695,0,1.391-0.521,1.391-1.391v-6.953c0-0.695-0.522-1.391-1.391-1.391
		c-0.695,0-1.391,0.521-1.391,1.391v6.953C40.849,149.779,41.371,150.3,42.066,150.3"/>
	<path clip-path="url(#SVGID_2_)" d="M42.066,181.763c0.695,0,1.391-0.521,1.391-1.392v-6.953c0-0.694-0.522-1.39-1.391-1.39
		c-0.695,0-1.391,0.521-1.391,1.39v6.953C40.849,181.241,41.371,181.763,42.066,181.763"/>
	<path clip-path="url(#SVGID_2_)" d="M42.066,166.118c0.695,0,1.391-0.521,1.391-1.392v-6.952c0-0.695-0.522-1.391-1.391-1.391
		c-0.695,0-1.391,0.521-1.391,1.391v6.952C40.849,165.423,41.371,166.118,42.066,166.118"/>
	<path clip-path="url(#SVGID_2_)" d="M54.407,213.225c0.695,0,1.391-0.521,1.391-1.391v-6.953c0-0.695-0.522-1.391-1.391-1.391
		c-0.695,0-1.391,0.521-1.391,1.391v6.953C53.19,212.529,53.712,213.225,54.407,213.225"/>
	<path clip-path="url(#SVGID_2_)" d="M54.407,181.763c0.695,0,1.391-0.521,1.391-1.392v-6.953c0-0.694-0.522-1.39-1.391-1.39
		c-0.695,0-1.391,0.521-1.391,1.39v6.953C53.19,181.241,53.712,181.763,54.407,181.763"/>
	<path clip-path="url(#SVGID_2_)" d="M54.407,197.406c0.695,0,1.391-0.521,1.391-1.391v-6.953c0-0.695-0.522-1.39-1.391-1.39
		c-0.695,0-1.391,0.521-1.391,1.39v6.953C53.19,196.886,53.712,197.406,54.407,197.406"/>
	<path clip-path="url(#SVGID_2_)" d="M54.407,166.118c0.695,0,1.391-0.521,1.391-1.392v-6.952c0-0.695-0.522-1.391-1.391-1.391
		c-0.695,0-1.391,0.521-1.391,1.391v6.952C53.19,165.423,53.712,166.118,54.407,166.118"/>
	<path clip-path="url(#SVGID_2_)" d="M54.407,150.3c0.695,0,1.391-0.521,1.391-1.391v-6.953c0-0.695-0.522-1.391-1.391-1.391
		c-0.695,0-1.391,0.521-1.391,1.391v6.953C53.19,149.779,53.712,150.3,54.407,150.3"/>
	<path clip-path="url(#SVGID_2_)" d="M54.407,134.655c0.695,0,1.391-0.521,1.391-1.391v-6.953c0-0.695-0.522-1.39-1.391-1.39
		c-0.695,0-1.391,0.521-1.391,1.39v6.953C53.19,134.135,53.712,134.655,54.407,134.655"/>
	<path clip-path="url(#SVGID_2_)" d="M171.914,116.229h-35.809V69.124c0-4.346-3.477-7.823-7.822-7.823h-6.084V19.409
		c0-0.695-0.521-1.39-1.391-1.39c-0.695,0-1.39,0.521-1.39,1.39v41.892h-9.735V44.093c0-0.696-0.521-1.391-1.39-1.391
		c-0.696,0-1.392,0.522-1.392,1.391v17.208h-9.733V11.586c0-0.347-0.174-0.695-0.522-1.043L84.306,0.289
		c-0.348-0.348-0.869-0.348-1.391-0.174C82.394,0.289,82.22,0.81,82.22,1.332v59.796h-6.084c-4.346,0-7.822,3.476-7.822,7.822
		v47.107H32.853c-3.998,0-7.474,3.302-7.474,7.474v95.952c0,0.695,0.521,1.391,1.39,1.391h43.283h64.837h43.283
		c0.695,0,1.39-0.521,1.39-1.391v-95.777C179.388,119.532,176.086,116.229,171.914,116.229 M68.661,218.266H27.986v-94.561
		c0-2.608,2.086-4.867,4.867-4.867h35.808V218.266z M85.175,4.287l9.734,7.996v49.018h-9.734V4.287z M133.498,117.621v100.645
		H71.269V117.621V69.124c0-2.955,2.433-5.215,5.215-5.215h7.3h12.342h32.158c2.955,0,5.215,2.433,5.215,5.215V117.621z
		 M176.78,218.266h-40.675v-99.428h35.809c2.606,0,4.866,2.086,4.866,4.867V218.266z"/>
</g>
</svg>
