<?xml version="1.0" encoding="utf-8"?>
<!-- Generator: Adobe Illustrator 16.0.0, SVG Export Plug-In . SVG Version: 6.00 Build 0)  -->
<!DOCTYPE svg PUBLIC "-//W3C//DTD SVG 1.1//EN" "http://www.w3.org/Graphics/SVG/1.1/DTD/svg11.dtd">
<svg version="1.1" id="Layer_1" xmlns="http://www.w3.org/2000/svg" xmlns:xlink="http://www.w3.org/1999/xlink" x="0px" y="0px"
	 width="207.374px" height="224.677px" viewBox="0 0 207.374 224.677" enable-background="new 0 0 207.374 224.677"
	 xml:space="preserve">
<g>
	<defs>
		<rect id="SVGID_1_" width="207.374" height="224.677"/>
	</defs>
	<clipPath id="SVGID_2_">
		<use xlink:href="#SVGID_1_"  overflow="visible"/>
	</clipPath>
	<path clip-path="url(#SVGID_2_)" d="M199.236,95.709h-45.997v-1.946v-0.354c0-0.708-0.53-1.416-1.238-1.416
		c-0.707,0-1.415,0.531-1.415,1.239v0.707v1.946H60.36c-4.422,0-7.961,3.539-7.961,7.961v18.399h-2.123
		c-0.707,0-1.238,0.531-1.238,1.239c0,0.707,0.531,1.237,1.238,1.237h2.123v16.453c-2.83-1.946-4.245-3.362-4.245-3.362
		l-0.885-1.061l-0.885,1.061c-0.177,0.178-12.56,13.27-38.566,12.738H6.58v1.238c0,0.531-1.769,49.005,40.336,70.588l0.531,0.354
		l0.531-0.354c9.907-5.13,18.221-12.03,24.59-20.699h38.036l-3.892,13.799h-4.423c-4.422,0-7.961,3.539-7.961,7.961
		c0,0.708,0.531,1.239,1.239,1.239h68.287c0.708,0,1.239-0.531,1.239-1.239c0-4.422-3.538-7.961-7.961-7.961h-4.069l-3.892-13.799
		h58.204V103.67C207.197,99.247,203.659,95.709,199.236,95.709 M70.799,199.379c-6.192,8.491-13.976,15.214-23.529,20.167
		c-36.267-19.105-38.213-58.911-38.39-66.518h0.354c22.291,0,34.498-9.554,38.036-12.562c0.885,0.885,2.654,2.3,5.13,3.893
		l0.708,0.354c6.369,3.892,17.16,8.492,32.552,8.315c0,3.538-0.531,14.152-4.6,26.359c-0.708,1.77-1.238,3.715-2.123,5.308
		C76.813,190.002,74.16,194.956,70.799,199.379 M157.309,217.777c2.477,0,4.599,1.769,5.13,4.068H96.981
		c0.531-2.3,2.654-4.068,5.13-4.068h5.308h44.228H157.309z M150.231,215.301h-40.866l3.893-13.8h32.904L150.231,215.301z
		 M204.721,198.848H74.336c0.354-0.53,0.708-1.062,0.885-1.592c0.354-0.708,0.884-1.239,1.238-1.946
		c0.531-0.885,1.062-1.945,1.593-2.831c0.353-0.708,0.707-1.237,1.061-1.945c0.531-1.062,1.061-2.3,1.592-3.361
		c0.177-0.531,0.531-1.062,0.708-1.769c0.531-1.416,1.238-2.831,1.592-4.424h121.361v17.868H204.721z M204.721,178.503H84.067
		c4.599-14.507,4.245-26.36,4.245-26.891v-1.238h-1.238h-2.831h-0.707h-1.946h-0.885c-0.531,0-1.238,0-1.769-0.177
		c-0.354,0-0.531,0-0.884-0.178c-0.531,0-1.062-0.177-1.593-0.177c-0.354,0-0.53,0-0.884-0.177c-0.531,0-1.062-0.176-1.416-0.176
		c-0.353,0-0.53-0.178-0.884-0.178c-0.531,0-0.885-0.177-1.415-0.177c-0.354,0-0.531-0.177-0.885-0.177
		c-0.354-0.177-0.884-0.177-1.238-0.354c-0.354,0-0.531-0.177-0.885-0.177c-0.354-0.177-0.708-0.177-1.238-0.354
		c-0.354,0-0.531-0.178-0.885-0.178c-0.354-0.177-0.707-0.177-1.061-0.353c-0.354-0.177-0.531-0.177-0.885-0.354
		c-0.354-0.178-0.707-0.178-1.061-0.354s-0.531-0.177-0.885-0.354c-0.354-0.178-0.707-0.178-0.884-0.354
		c-0.354-0.177-0.531-0.177-0.708-0.354c-0.354-0.177-0.531-0.177-0.885-0.354c-0.177-0.177-0.53-0.177-0.707-0.354
		c-0.354-0.178-0.531-0.178-0.708-0.354c-0.177-0.177-0.531-0.177-0.708-0.354c-0.176-0.178-0.53-0.178-0.707-0.354
		c-0.177-0.176-0.531-0.176-0.708-0.353c-0.177-0.178-0.531-0.178-0.707-0.354c-0.177-0.177-0.354-0.177-0.531-0.354
		c-0.177,0-0.177-0.178-0.354-0.178V103.67c0-2.831,2.3-5.308,5.307-5.308h138.876c3.007,0,5.307,2.3,5.307,5.308V178.503z"/>
	<path clip-path="url(#SVGID_2_)" fill="#FFCE00" d="M2.334,30.605c0.708,0,1.238-0.531,1.238-1.238V15.214
		c0-0.708-0.53-1.239-1.238-1.239s-1.238,0.531-1.238,1.239V29.19C1.096,30.074,1.626,30.605,2.334,30.605"/>
	<path clip-path="url(#SVGID_2_)" fill="#FFCE00" d="M2.334,42.281c0.708,0,1.238-0.531,1.238-1.238v-4.954
		c0-0.708-0.53-1.238-1.238-1.238s-1.238,0.53-1.238,1.238v4.954C1.096,41.573,1.626,42.281,2.334,42.281"/>
	<path clip-path="url(#SVGID_2_)" d="M69.561,75.541l-2.3-2.3c-0.531-0.531-1.415-0.531-1.769,0c-0.531,0.531-0.531,1.415,0,1.769
		l2.3,2.3c0.177,0.177,0.531,0.354,0.884,0.354c0.354,0,0.708-0.177,0.885-0.354C70.091,76.778,70.091,76.072,69.561,75.541"/>
	<path clip-path="url(#SVGID_2_)" d="M74.691,80.671c-0.531-0.531-1.415-0.531-1.769,0c-0.531,0.531-0.531,1.415,0,1.769l2.3,2.3
		c0.177,0.177,0.53,0.354,0.884,0.354s0.708-0.177,0.885-0.354c0.531-0.531,0.531-1.415,0-1.769L74.691,80.671z"/>
	<path clip-path="url(#SVGID_2_)" d="M67.792,80.671l-2.3,2.3c-0.531,0.531-0.531,1.415,0,1.769
		c0.177,0.177,0.531,0.354,0.885,0.354s0.707-0.177,0.884-0.354l2.3-2.3c0.531-0.531,0.531-1.415,0-1.769
		C69.029,80.14,68.146,80.14,67.792,80.671"/>
	<path clip-path="url(#SVGID_2_)" d="M76.814,73.241c-0.531-0.531-1.415-0.531-1.769,0l-2.3,2.3c-0.531,0.531-0.531,1.415,0,1.769
		c0.177,0.177,0.531,0.354,0.885,0.354c0.353,0,0.707-0.177,0.884-0.354l2.3-2.3C77.345,74.656,77.345,73.771,76.814,73.241"/>
	<path clip-path="url(#SVGID_2_)" fill="#FFCE00" d="M72.037,210.878c-0.531-0.531-1.415-0.531-1.769,0
		c-0.531,0.53-0.531,1.415,0,1.769l2.3,2.3c0.177,0.178,0.53,0.354,0.884,0.354s0.708-0.177,0.885-0.354
		c0.531-0.53,0.531-1.415,0-1.769L72.037,210.878z"/>
	<path clip-path="url(#SVGID_2_)" fill="#FFCE00" d="M79.467,218.131c-0.531-0.531-1.415-0.531-1.769,0
		c-0.531,0.531-0.531,1.415,0,1.77l2.3,2.3c0.177,0.177,0.53,0.354,0.884,0.354s0.708-0.177,0.885-0.354
		c0.531-0.531,0.531-1.415,0-1.77L79.467,218.131z"/>
	<path clip-path="url(#SVGID_2_)" fill="#FFCE00" d="M72.568,218.131l-2.3,2.3c-0.531,0.531-0.531,1.415,0,1.77
		c0.177,0.177,0.531,0.354,0.885,0.354s0.707-0.177,0.884-0.354l2.3-2.3c0.531-0.531,0.531-1.415,0-1.77
		C73.806,217.6,73.099,217.6,72.568,218.131"/>
	<path clip-path="url(#SVGID_2_)" fill="#FFCE00" d="M79.821,210.878l-2.3,2.3c-0.531,0.531-0.531,1.415,0,1.769
		c0.177,0.178,0.531,0.354,0.885,0.354s0.707-0.177,0.884-0.354l2.3-2.3c0.531-0.531,0.531-1.415,0-1.769
		C81.236,210.347,80.353,210.347,79.821,210.878"/>
	<path clip-path="url(#SVGID_2_)" fill="#FFCE00" d="M119.096,89.517c3.007,0,5.661-2.477,5.661-5.662
		c0-3.184-2.478-5.661-5.661-5.661c-3.007,0-5.661,2.477-5.661,5.661C113.435,87.04,116.088,89.517,119.096,89.517 M119.096,80.848
		c1.592,0,3.007,1.415,3.007,3.007c0,1.593-1.415,3.008-3.007,3.008s-3.007-1.415-3.007-3.008
		C116.089,82.263,117.504,80.848,119.096,80.848"/>
	<path clip-path="url(#SVGID_2_)" fill="#E72A45" d="M12.064,62.626c3.007,0,5.661-2.477,5.661-5.662
		c0-3.007-2.477-5.661-5.661-5.661c-3.007,0-5.661,2.477-5.661,5.661C6.403,60.149,8.88,62.626,12.064,62.626 M12.064,53.958
		c1.592,0,3.007,1.415,3.007,3.007c0,1.593-1.415,3.008-3.007,3.008c-1.592,0-3.007-1.415-3.007-3.008
		C9.057,55.373,10.295,53.958,12.064,53.958"/>
	<path clip-path="url(#SVGID_2_)" d="M87.075,31.136h15.568c0.708,0,1.239-0.531,1.239-1.238c0-0.708-0.531-1.239-1.239-1.239
		H87.075c-0.708,0-1.238,0.531-1.238,1.239C85.66,30.428,86.367,31.136,87.075,31.136"/>
	<path clip-path="url(#SVGID_2_)" d="M107.597,31.136h4.954c0.707,0,1.237-0.531,1.237-1.238c0-0.708-0.53-1.239-1.237-1.239h-4.954
		c-0.708,0-1.238,0.531-1.238,1.239C106.358,30.428,106.889,31.136,107.597,31.136"/>
	<path clip-path="url(#SVGID_2_)" d="M112.727,33.79h-10.968c-0.708,0-1.239,0.531-1.239,1.238c0,0.708,0.531,1.239,1.239,1.239
		h10.791c0.708,0,1.238-0.531,1.238-1.239C113.965,34.32,113.435,33.79,112.727,33.79"/>
	<path clip-path="url(#SVGID_2_)" d="M93.621,33.79c-0.708,0-1.238,0.531-1.238,1.238c0,0.708,0.53,1.239,1.238,1.239h3.538
		c0.708,0,1.239-0.531,1.239-1.239c0-0.707-0.531-1.238-1.239-1.238H93.621z"/>
	<path clip-path="url(#SVGID_2_)" fill="#FFCE00" d="M187.737,209.108c0-0.708-0.531-1.238-1.238-1.238h-15.568
		c-0.707,0-1.238,0.53-1.238,1.238s0.531,1.238,1.238,1.238h15.568C187.206,210.347,187.737,209.816,187.737,209.108"/>
	<path clip-path="url(#SVGID_2_)" fill="#FFCE00" d="M196.583,207.693h-4.954c-0.707,0-1.238,0.531-1.238,1.238
		c0,0.708,0.531,1.238,1.238,1.238h4.954c0.708,0,1.237-0.53,1.237-1.238C197.82,208.401,197.291,207.693,196.583,207.693"/>
	<path clip-path="url(#SVGID_2_)" fill="#FFCE00" d="M196.583,213.178h-10.792c-0.707,0-1.238,0.531-1.238,1.238
		c0,0.708,0.531,1.238,1.238,1.238h10.792c0.708,0,1.237-0.53,1.237-1.238C197.82,213.709,197.291,213.178,196.583,213.178"/>
	<path clip-path="url(#SVGID_2_)" fill="#FFCE00" d="M181.015,213.178h-3.538c-0.708,0-1.239,0.531-1.239,1.238
		c0,0.708,0.531,1.238,1.239,1.238h3.538c0.708,0,1.238-0.53,1.238-1.238C182.43,213.709,181.899,213.178,181.015,213.178"/>
	<path clip-path="url(#SVGID_2_)" fill="#E72A45" d="M180.307,24.06h15.568c0.708,0,1.239-0.531,1.239-1.238
		c0-0.708-0.531-1.239-1.239-1.239h-15.568c-0.708,0-1.237,0.531-1.237,1.239C178.892,23.528,179.599,24.06,180.307,24.06"/>
	<path clip-path="url(#SVGID_2_)" fill="#E72A45" d="M201.006,24.06h4.954c0.706,0,1.237-0.531,1.237-1.238
		c0-0.708-0.531-1.239-1.237-1.239h-4.954c-0.708,0-1.238,0.531-1.238,1.239C199.591,23.528,200.12,24.06,201.006,24.06"/>
	<path clip-path="url(#SVGID_2_)" fill="#E72A45" d="M205.959,26.89h-10.792c-0.707,0-1.238,0.531-1.238,1.238
		c0,0.708,0.531,1.239,1.238,1.239h10.792c0.708,0,1.238-0.531,1.238-1.239C207.197,27.421,206.667,26.89,205.959,26.89"/>
	<path clip-path="url(#SVGID_2_)" fill="#E72A45" d="M187.029,26.89c-0.708,0-1.238,0.531-1.238,1.238
		c0,0.708,0.53,1.239,1.238,1.239h3.538c0.708,0,1.239-0.531,1.239-1.239c0-0.707-0.531-1.238-1.239-1.238H187.029z"/>
	<path clip-path="url(#SVGID_2_)" d="M159.432,74.125c0.708,0,1.237-0.531,1.237-1.238c0-0.708-0.529-1.239-1.237-1.239h-5.838
		c-0.708,0-1.238,0.531-1.238,1.239c0,0.707,0.53,1.238,1.238,1.238H159.432z"/>
	<path clip-path="url(#SVGID_2_)" d="M146.693,71.648c-0.885,0-1.769-0.177-2.653-0.708c-0.707-0.353-1.415-0.177-1.77,0.531
		c-0.354,0.708-0.177,1.415,0.531,1.769c1.238,0.708,2.477,0.885,3.715,0.885h2.478c0.708,0,1.237-0.531,1.237-1.239
		c0-0.707-0.53-1.238-1.237-1.238H146.693z"/>
	<path clip-path="url(#SVGID_2_)" d="M166.508,74.125c0.885,0,1.946,0.177,2.654,0.708c0.177,0.177,0.353,0.177,0.707,0.177
		c0.53,0,0.885-0.177,1.062-0.708c0.354-0.708,0.177-1.415-0.531-1.769c-0.885-0.531-1.769-0.885-2.653-0.885
		c-0.178,0-0.354-0.177-0.53-0.177h-3.539c-0.707,0-1.238,0.531-1.238,1.239c0,0.707,0.531,1.238,1.238,1.238h2.477
		C166.331,74.125,166.331,74.125,166.508,74.125"/>
	<path clip-path="url(#SVGID_2_)" d="M165.27,89.87L165.27,89.87c2.3-0.177,4.423-1.061,6.015-2.654c0.531-0.53,0.531-1.238,0-1.769
		c-0.531-0.531-1.237-0.531-1.769,0c-1.238,1.062-2.831,1.769-4.423,1.946c-0.708,0-1.238,0.708-1.238,1.416
		C164.031,89.339,164.562,89.87,165.27,89.87"/>
	<path clip-path="url(#SVGID_2_)" d="M172.346,83.855h0.354c0.53,0,1.061-0.354,1.237-0.885c0.354-1.061,0.531-2.122,0.531-3.361
		c0-1.061-0.177-2.3-0.708-3.184c-0.354-0.708-1.061-0.885-1.769-0.708c-0.707,0.354-0.885,1.062-0.707,1.769
		c0.353,0.708,0.529,1.415,0.529,2.123c0,0.885-0.177,1.769-0.354,2.477C171.285,82.794,171.638,83.501,172.346,83.855"/>
	<path clip-path="url(#SVGID_2_)" d="M154.124,91.109c0.354,0,0.531-0.177,0.885-0.354c0.707-0.531,1.592-0.884,2.477-0.884h0.354
		h3.008c0.707,0,1.238-0.531,1.238-1.239c0-0.707-0.531-1.238-1.238-1.238h-3.539c-0.177,0-0.353,0-0.529,0.177
		c-1.239,0.177-2.478,0.531-3.539,1.415c-0.53,0.354-0.707,1.238-0.177,1.769C153.416,90.932,153.77,91.109,154.124,91.109"/>
	<path clip-path="url(#SVGID_2_)" d="M40.901,78.902c1.238,0,2.654-0.354,3.715-0.885c0.708-0.353,0.885-1.061,0.531-1.769
		c-0.354-0.707-1.062-0.884-1.769-0.53c-0.708,0.353-1.592,0.707-2.654,0.707h-2.477c-0.707,0-1.238,0.531-1.238,1.239
		c0,0.707,0.531,1.238,1.238,1.238H40.901z"/>
	<path clip-path="url(#SVGID_2_)" d="M34.001,76.248h-5.838c-0.708,0-1.238,0.531-1.238,1.238c0,0.708,0.53,1.239,1.238,1.239h5.838
		c0.708,0,1.238-0.531,1.238-1.239C35.417,76.779,34.709,76.248,34.001,76.248"/>
	<path clip-path="url(#SVGID_2_)" d="M16.664,79.079c0.177,0.354,0.708,0.708,1.061,0.708c0.177,0,0.354,0,0.708-0.177
		c0.885-0.531,1.769-0.708,2.654-0.708h0.354h2.476c0.708,0,1.239-0.531,1.239-1.238c0-0.708-0.531-1.239-1.239-1.239h-3.538
		c-0.177,0-0.354,0-0.531,0.177c-0.884,0.177-1.946,0.531-2.653,0.885C16.487,77.664,16.31,78.548,16.664,79.079"/>
	<path clip-path="url(#SVGID_2_)" d="M16.31,91.816c1.592,1.592,3.715,2.477,6.015,2.654h0.177c0.708,0,1.238-0.531,1.238-1.239
		c0-0.707-0.53-1.415-1.238-1.415c-1.592-0.177-3.185-0.885-4.423-1.946c-0.531-0.531-1.415-0.531-1.769,0
		C15.779,90.578,15.779,91.285,16.31,91.816"/>
	<path clip-path="url(#SVGID_2_)" d="M14.895,88.632h0.354c0.707-0.177,1.061-1.061,0.884-1.592
		c-0.353-0.885-0.353-1.592-0.353-2.477c0-0.708,0.176-1.592,0.53-2.123c0.354-0.708,0-1.415-0.707-1.769
		c-0.708-0.354-1.416,0-1.769,0.708c-0.531,1.061-0.708,2.123-0.708,3.184s0.177,2.3,0.531,3.361
		C13.834,88.278,14.364,88.632,14.895,88.632"/>
	<path clip-path="url(#SVGID_2_)" d="M26.748,94.47h3.007h0.354c1.062,0,1.946,0.177,2.477,0.708
		c0.177,0.177,0.531,0.353,0.885,0.353c0.353,0,0.707-0.176,1.061-0.53c0.531-0.531,0.354-1.416-0.177-1.769
		c-1.061-0.708-2.123-1.239-3.538-1.239c-0.177,0-0.354-0.177-0.531-0.177h-3.538c-0.708,0-1.238,0.531-1.238,1.239
		C25.51,93.939,26.04,94.47,26.748,94.47"/>
	<path clip-path="url(#SVGID_2_)" d="M36.124,104.2c0.531-1.061,0.708-2.123,0.708-3.361c0-0.708,0-1.769-0.177-3.008
		c-0.177-0.707-0.708-1.238-1.416-1.061c-0.707,0.177-1.238,0.707-1.061,1.415c0.177,0.708,0.177,1.238,0.177,1.769v0.177v0.885
		v0.176c0,0.531-0.177,1.062-0.354,1.593c-0.354,0.707,0,1.415,0.708,1.769c0.177,0,0.354,0.177,0.53,0.177
		C35.416,104.908,35.947,104.731,36.124,104.2"/>
	<path clip-path="url(#SVGID_2_)" d="M16.31,108.8h5.838c0.708,0,1.238-0.531,1.238-1.238c0-0.708-0.53-1.239-1.238-1.239H16.31
		c-0.708,0-1.238,0.531-1.238,1.239C14.895,108.269,15.602,108.8,16.31,108.8"/>
	<path clip-path="url(#SVGID_2_)" d="M32.586,107.916c0.708-0.354,0.885-1.061,0.531-1.769s-1.062-0.885-1.769-0.531
		c-0.708,0.354-1.593,0.708-2.654,0.708h-2.477c-0.707,0-1.238,0.531-1.238,1.238c0,0.708,0.531,1.239,1.238,1.239h2.477
		C30.109,108.8,31.525,108.624,32.586,107.916"/>
	<path clip-path="url(#SVGID_2_)" d="M5.695,109.861c0.177,0,0.354,0,0.708-0.177c0.884-0.531,1.769-0.708,2.653-0.708H9.41h2.477
		c0.708,0,1.238-0.53,1.238-1.238s-0.53-1.238-1.238-1.238H8.35c-0.177,0-0.354,0-0.531,0.177c-0.885,0.176-1.946,0.53-2.654,0.884
		c-0.707,0.354-0.884,1.239-0.53,1.769C4.811,109.507,5.341,109.861,5.695,109.861"/>
	<path clip-path="url(#SVGID_2_)" d="M39.132,124.545H45.5c0.707,0,1.238-0.531,1.238-1.238c0-0.708-0.531-1.238-1.238-1.238h-6.369
		c-0.708,0-1.238,0.53-1.238,1.238C37.894,124.014,38.424,124.545,39.132,124.545"/>
	<path clip-path="url(#SVGID_2_)" d="M12.241,121.892H11.18c-1.593,0-3.008-0.531-4.246-1.238c-0.531-0.354-1.416-0.177-1.769,0.353
		c-0.354,0.531-0.177,1.416,0.353,1.771c1.593,1.061,3.716,1.769,5.662,1.769h1.061c0.708,0,1.238-0.53,1.238-1.238
		C13.656,122.6,12.949,121.892,12.241,121.892"/>
	<path clip-path="url(#SVGID_2_)" d="M3.219,119.415c0.177,0,0.354,0,0.531-0.178c0.707-0.354,0.884-1.061,0.53-1.769
		c-0.53-1.062-0.707-2.123-0.707-3.185c0-0.708,0.177-1.238,0.354-1.946c0.177-0.708-0.177-1.416-0.708-1.593
		c-0.708-0.177-1.415,0.177-1.592,0.708c-0.354,0.885-0.531,1.769-0.531,2.831c0,1.593,0.354,3.008,1.062,4.423
		C2.158,119.237,2.688,119.415,3.219,119.415"/>
	<path clip-path="url(#SVGID_2_)" d="M17.018,124.545h6.369c0.707,0,1.238-0.531,1.238-1.238c0-0.708-0.531-1.238-1.238-1.238
		h-6.369c-0.708,0-1.238,0.53-1.238,1.238C15.78,124.014,16.31,124.545,17.018,124.545"/>
	<path clip-path="url(#SVGID_2_)" d="M28.163,124.545h6.369c0.707,0,1.238-0.531,1.238-1.238c0-0.708-0.531-1.238-1.238-1.238
		h-6.369c-0.708,0-1.238,0.53-1.238,1.238C26.748,124.014,27.455,124.545,28.163,124.545"/>
	<path clip-path="url(#SVGID_2_)" d="M56.822,167.181c0-5.13-4.245-9.376-9.376-9.376c-5.13,0-9.376,4.246-9.376,9.376
		c0,2.654,1.061,5.13,3.007,6.899l-3.184,19.814h1.592h16.099h1.592l-3.361-19.814C55.584,172.311,56.822,169.835,56.822,167.181
		 M53.815,191.24H40.724l2.83-17.514l0.177-0.708l-0.531-0.531c-1.592-1.237-2.653-3.184-2.653-5.307
		c0-3.715,3.007-6.723,6.722-6.723c3.715,0,6.723,3.008,6.723,6.723c0,2.123-0.885,4.069-2.654,5.307l-0.53,0.531L53.815,191.24z"/>
	<path clip-path="url(#SVGID_2_)" d="M116.619,193.187h26.359c2.3,0,4.069-1.77,4.069-4.069s-1.77-4.069-4.069-4.069h-26.359
		c-2.301,0-4.069,1.77-4.069,4.069S114.496,193.187,116.619,193.187 M116.619,187.702h26.359c0.885,0,1.415,0.708,1.415,1.415
		c0,0.885-0.708,1.416-1.415,1.416h-26.359c-0.886,0-1.415-0.708-1.415-1.416C115.204,188.233,115.911,187.702,116.619,187.702"/>
	<path clip-path="url(#SVGID_2_)" d="M188.622,114.284H71.153c-0.708,0-1.238,0.531-1.238,1.238c0,0.708,0.53,1.238,1.238,1.238
		h117.469c0.708,0,1.237-0.53,1.237-1.238C189.859,114.992,189.33,114.284,188.622,114.284"/>
	<path clip-path="url(#SVGID_2_)" d="M188.622,128.083H71.153c-0.708,0-1.238,0.531-1.238,1.238c0,0.708,0.53,1.239,1.238,1.239
		h117.469c0.708,0,1.237-0.531,1.237-1.239C189.859,128.614,189.33,128.083,188.622,128.083"/>
	<path clip-path="url(#SVGID_2_)" d="M188.622,141.705H71.153c-0.708,0-1.238,0.531-1.238,1.238c0,0.708,0.53,1.239,1.238,1.239
		h117.469c0.708,0,1.237-0.531,1.237-1.239C189.859,142.236,189.33,141.705,188.622,141.705"/>
	<path clip-path="url(#SVGID_2_)" d="M188.622,155.505h-74.657c-0.707,0-1.238,0.53-1.238,1.237c0,0.708,0.531,1.239,1.238,1.239
		h74.657c0.708,0,1.237-0.531,1.237-1.239C189.859,156.035,189.33,155.505,188.622,155.505"/>
	<path clip-path="url(#SVGID_2_)" d="M44.616,59.796h18.222c2.83,0,5.307-2.3,5.307-5.308V43.343c0-2.831-2.3-5.307-5.307-5.307
		h-1.062v-5.838c0-4.423-3.715-8.138-8.138-8.138c-4.423,0-8.138,3.715-8.138,8.138v5.838h-1.061c-2.831,0-5.308,2.3-5.308,5.307
		v11.145C39.485,57.496,41.785,59.796,44.616,59.796 M48.331,32.198c0-3.008,2.477-5.485,5.484-5.485
		c3.008,0,5.484,2.477,5.484,5.485v5.838H48.331V32.198z M41.962,43.343c0-1.415,1.238-2.654,2.654-2.654h2.3h13.622h2.3
		c1.415,0,2.653,1.239,2.653,2.654v11.145c0,1.416-1.238,2.654-2.653,2.654H44.616c-1.416,0-2.654-1.238-2.654-2.654V43.343z"/>
	<path clip-path="url(#SVGID_2_)" d="M47.446,47.588h12.915c0.707,0,1.238-0.531,1.238-1.238c0-0.708-0.531-1.239-1.238-1.239
		H47.446c-0.708,0-1.238,0.531-1.238,1.239C46.032,47.058,46.738,47.588,47.446,47.588"/>
	<path clip-path="url(#SVGID_2_)" d="M47.446,52.896h12.915c0.707,0,1.238-0.531,1.238-1.238c0-0.708-0.531-1.239-1.238-1.239
		H47.446c-0.708,0-1.238,0.531-1.238,1.239C46.032,52.365,46.738,52.896,47.446,52.896"/>
	<path clip-path="url(#SVGID_2_)" d="M199.236,88.278c0.177,0,0.531,0,0.708-0.177c2.476-1.415,3.892-4.069,3.892-6.899
		c0-1.062-0.177-2.123-0.53-3.008c-0.354-0.708-1.063-1.061-1.77-0.708c-0.708,0.354-1.062,1.062-0.708,1.77
		c0.354,0.707,0.354,1.415,0.354,2.122c0,1.946-1.062,3.716-2.654,4.6c-0.707,0.354-0.884,1.239-0.53,1.769
		C198.352,88.101,198.883,88.278,199.236,88.278"/>
	<path clip-path="url(#SVGID_2_)" d="M197.468,76.071c0.708,0.177,1.414-0.177,1.592-0.885c0.177-0.707-0.178-1.415-0.884-1.592
		c-2.654-0.707-5.662,0-7.608,2.123c-0.53,0.531-0.53,1.415,0,1.769c0.177,0.177,0.531,0.354,0.885,0.354
		c0.354,0,0.708-0.177,0.885-0.354C193.575,76.071,195.521,75.54,197.468,76.071"/>
	<path clip-path="url(#SVGID_2_)" d="M190.745,81.909c-0.178-0.708-0.708-1.238-1.415-1.061c-0.708,0.176-1.239,0.707-1.063,1.415
		c0.354,2.83,2.3,5.307,4.777,6.369c0.177,0,0.354,0.177,0.531,0.177c0.529,0,1.061-0.354,1.237-0.885
		c0.354-0.708,0-1.415-0.708-1.769C192.16,85.447,190.922,83.855,190.745,81.909"/>
	<path clip-path="url(#SVGID_2_)" fill="#E72A45" d="M10.649,207.87c0.177-0.708-0.177-1.415-0.885-1.592
		c-0.707-0.177-1.415-0.354-2.122-0.354c-2.123,0-4.069,0.886-5.662,2.301c-0.53,0.53-0.53,1.414,0,1.769
		c0.177,0.177,0.531,0.354,0.885,0.354s0.708-0.177,0.884-0.354c1.062-1.062,2.3-1.592,3.716-1.592c0.53,0,0.884,0,1.415,0.177
		C9.764,209.108,10.472,208.578,10.649,207.87"/>
	<path clip-path="url(#SVGID_2_)" fill="#E72A45" d="M13.303,210.17c-0.708,0.354-1.061,1.062-0.708,1.77
		c0.354,0.708,0.354,1.415,0.354,2.123c0,1.945-1.061,3.715-2.653,4.6c-0.708,0.354-0.885,1.238-0.531,1.769
		c0.177,0.354,0.707,0.707,1.061,0.707c0.177,0,0.531,0,0.708-0.176c2.477-1.416,3.892-4.069,3.892-6.899
		c0-1.062-0.177-2.123-0.531-3.008C14.718,210.347,14.011,209.993,13.303,210.17"/>
	<path clip-path="url(#SVGID_2_)" fill="#E72A45" d="M5.695,218.839c-1.769-0.708-3.007-2.3-3.184-4.246
		c-0.177-0.708-0.708-1.238-1.416-1.062c-0.707,0.178-1.238,0.707-1.061,1.415c0.354,2.831,2.3,5.308,4.776,6.369
		c0.177,0,0.354,0.177,0.531,0.177c0.531,0,1.062-0.354,1.239-0.885C6.581,219.899,6.227,219.192,5.695,218.839"/>
	<path clip-path="url(#SVGID_2_)" d="M46.916,69.171c-0.53,0.177-0.707,0.708-0.707,1.239c0,0.884-0.177,1.946-0.531,2.83
		c-0.354,0.708,0,1.416,0.708,1.77c0.177,0,0.354,0.176,0.53,0.176c0.531,0,0.885-0.353,1.239-0.707
		c0.531-1.239,0.884-2.654,0.707-4.069c0-0.177-0.176-0.531-0.353-0.708c1.769,0.354,3.361,0.531,5.13,0.531
		c15.038,0,27.244-12.207,27.244-27.244c0-15.038-12.206-27.245-27.244-27.245c-15.037,0-27.244,12.207-27.244,27.245
		C26.571,55.549,35.239,66.164,46.916,69.171 M53.815,18.221c13.622,0,24.591,10.968,24.591,24.591
		c0,13.622-10.969,24.59-24.591,24.59s-24.591-10.968-24.591-24.59C29.224,29.189,40.193,18.221,53.815,18.221"/>
	<path clip-path="url(#SVGID_2_)" d="M126.88,66.164h11.854c0,1.239,0.177,2.3,0.707,3.362c0.177,0.53,0.708,0.707,1.238,0.707
		c0.178,0,0.354,0,0.53-0.177c0.708-0.354,0.885-1.061,0.708-1.769c-0.354-0.708-0.531-1.592-0.531-2.3h21.23
		c3.184,0,6.015-1.769,7.606-4.246h26.184c0.53,1.946,2.3,3.362,4.423,3.362c2.476,0,4.599-2.123,4.599-4.6s-2.123-4.6-4.599-4.6
		c-2.123,0-3.893,1.416-4.423,3.362h-25.122c0.177-0.708,0.354-1.593,0.354-2.3c0-0.708-0.177-1.415-0.354-2.123h11.677
		c0.53,1.946,2.299,3.361,4.422,3.361c2.478,0,4.601-2.123,4.601-4.599c0-2.477-2.123-4.6-4.601-4.6
		c-2.123,0-3.892,1.415-4.422,3.361h-12.738c-1.592-2.654-4.423-4.246-7.783-4.246h-2.654v-0.884c0-2.3-0.884-4.246-2.3-5.661V22.29
		c1.945-0.531,3.361-2.3,3.361-4.423c0-2.476-2.123-4.599-4.6-4.599c-2.478,0-4.6,2.123-4.6,4.599c0,2.123,1.415,3.892,3.361,4.423
		v17.338c-1.062-0.354-2.123-0.708-3.185-0.708c-0.354,0-0.884,0-1.238,0.177V9.022c1.946-0.531,3.361-2.3,3.361-4.423
		c0-2.477-2.123-4.6-4.601-4.6c-2.476,0-4.599,2.123-4.599,4.6c0,2.123,1.415,3.892,3.361,4.423v30.959
		c-0.708,0.354-1.415,0.885-2.123,1.593c-0.531-2.123-1.593-3.716-2.478-4.777c-2.123-2.3-5.13-3.538-8.491-3.538
		c-6.191,0-11.322,5.13-11.322,11.322c0,1.415,0.177,2.654,0.708,4.069c-3.715,1.238-6.369,4.6-6.369,8.669
		C117.857,62.095,121.926,66.164,126.88,66.164 M200.829,58.557c1.061,0,1.946,0.885,1.946,1.946c0,1.062-0.886,1.946-1.946,1.946
		c-1.063,0-1.946-0.884-1.946-1.946C198.883,59.442,199.767,58.557,200.829,58.557 M187.383,51.481c1.063,0,1.946,0.884,1.946,1.946
		c0,1.061-0.884,1.946-1.946,1.946c-1.061,0-1.946-0.885-1.946-1.946C185.437,52.365,186.322,51.481,187.383,51.481 M154.301,17.867
		c0-1.061,0.884-1.946,1.946-1.946c1.061,0,1.946,0.885,1.946,1.946c0,1.062-0.886,1.946-1.946,1.946
		C155.185,19.813,154.301,18.929,154.301,17.867 M147.048,4.422c0-1.061,0.884-1.946,1.946-1.946c1.061,0,1.946,0.885,1.946,1.946
		c0,1.062-0.886,1.946-1.946,1.946C148.109,6.368,147.048,5.484,147.048,4.422 M126.172,50.596c0.354,0,0.885-0.354,1.062-0.708
		c0.177-0.353,0.177-0.884,0-1.238c-0.707-1.238-1.238-2.831-1.238-4.246c0-4.776,3.892-8.669,8.669-8.669
		c2.653,0,4.953,0.885,6.545,2.654c1.593,1.769,2.3,4.423,2.3,7.43c0,0.354-0.177,0.885-0.177,1.239
		c0,0.707,0.531,1.238,1.239,1.238c0.707,0,1.237-0.531,1.415-1.238v-1.062c0.53-2.653,2.831-4.599,5.483-4.599
		c3.008,0,5.661,2.476,5.661,5.661c0,0.531-0.176,1.238-0.353,1.769c-0.178,0.354,0,0.884,0.177,1.238
		c0.176,0.354,0.707,0.531,1.061,0.531h4.424c3.537,0,6.546,3.007,6.546,6.546c0,3.538-3.009,6.545-6.546,6.545h-35.56
		c-3.539,0-6.546-3.007-6.546-6.545C120.511,53.603,122.988,50.773,126.172,50.596"/>
</g>
</svg>
