<?xml version="1.0" encoding="utf-8"?>
<!-- Generator: Adobe Illustrator 16.0.0, SVG Export Plug-In . SVG Version: 6.00 Build 0)  -->
<!DOCTYPE svg PUBLIC "-//W3C//DTD SVG 1.1//EN" "http://www.w3.org/Graphics/SVG/1.1/DTD/svg11.dtd">
<svg version="1.1" id="Layer_1" xmlns="http://www.w3.org/2000/svg" xmlns:xlink="http://www.w3.org/1999/xlink" x="0px" y="0px"
	 width="224.105px" height="230.265px" viewBox="0 0 224.105 230.265" enable-background="new 0 0 224.105 230.265"
	 xml:space="preserve">
<g>
	<defs>
		<rect id="SVGID_1_" width="224.105" height="230.265"/>
	</defs>
	<clipPath id="SVGID_2_">
		<use xlink:href="#SVGID_1_"  overflow="visible"/>
	</clipPath>
	<path clip-path="url(#SVGID_2_)" d="M158.885,125.549c-0.181,0.726,0.362,1.449,1.087,1.632l12.319,2.535h0.362
		c0.544,0,1.269-0.361,1.269-1.087c0.181-0.725-0.362-1.448-1.087-1.631l-12.319-2.536
		C159.791,124.282,159.065,124.644,158.885,125.549"/>
	<path clip-path="url(#SVGID_2_)" d="M161.059,101.092l11.957-3.805c0.726-0.181,1.087-1.087,0.906-1.63
		c-0.181-0.725-1.087-1.087-1.631-0.906l-11.957,3.805c-0.725,0.181-1.087,1.087-0.906,1.63c0.182,0.544,0.725,0.906,1.27,0.906
		H161.059z"/>
	<path clip-path="url(#SVGID_2_)" d="M145.116,111.6L145.116,111.6c-0.182-18.298-15.399-32.791-33.517-32.61
		c-18.298,0.181-32.972,15.218-32.791,33.516c0.181,18.117,15.037,32.792,33.154,32.792h0.362
		C130.622,144.934,145.298,129.897,145.116,111.6 M112.324,142.398c-16.849,0.182-30.617-13.225-30.799-30.074
		C81.345,95.476,94.751,81.708,111.6,81.525h0.363c16.667,0,30.255,13.407,30.436,30.074
		C142.579,128.449,129.174,142.217,112.324,142.398"/>
	<path clip-path="url(#SVGID_2_)" d="M118.304,170.661v-13.044c22.646-3.08,40.037-22.646,39.676-46.198
		c-0.363-25.182-20.835-45.473-46.017-45.473h-0.544c-25.363,0.362-45.835,21.197-45.473,46.56
		c0.181,12.32,5.073,23.733,13.95,32.429c7.066,6.886,16.124,11.233,25.726,12.683v13.044c-3.261,1.631-5.616,5.073-5.616,9.059
		v43.118c0,3.985,3.261,7.428,7.428,7.428h9.239c3.986,0,7.429-3.261,7.429-7.428v-43.118
		C123.919,175.734,121.564,172.292,118.304,170.661 M68.663,112.505c-0.363-23.914,18.841-43.48,42.755-43.843h0.544
		c23.552,0,42.937,19.023,43.299,42.756c0.361,23.914-18.842,43.481-42.757,43.843c-11.595,0.182-22.464-4.167-30.797-12.319
		C73.374,134.97,68.844,124.1,68.663,112.505 M108.338,169.574v-11.413h7.247v11.413h-1.812h-3.623H108.338z M110.15,172.292h3.623
		c3.624,0,6.704,2.717,7.247,6.341h-18.117C103.447,175.008,106.346,172.292,110.15,172.292 M121.201,205.989h-18.479v-24.64h18.479
		V205.989z M102.722,208.707h18.479v5.435h-18.479V208.707z M116.491,227.367h-9.24c-2.536,0-4.71-1.993-4.71-4.71v-5.798h18.479
		v5.798C121.201,225.193,119.027,227.367,116.491,227.367"/>
	<path clip-path="url(#SVGID_2_)" d="M85.331,69.75c0.181,0.362,0.725,0.725,1.087,0.725c0.181,0,0.544,0,0.725-0.181
		c0.724-0.363,0.906-1.269,0.543-1.812L77.177,50.546c-0.362-0.725-1.268-0.906-1.811-0.543c-0.725,0.362-0.906,1.268-0.544,1.811
		L85.331,69.75z"/>
	<path clip-path="url(#SVGID_2_)" d="M49.64,78.446l18.117,10.327c0.181,0.181,0.362,0.181,0.725,0.181
		c0.543,0,0.905-0.181,1.268-0.725c0.362-0.725,0.181-1.449-0.544-1.812L51.089,76.091c-0.724-0.363-1.449-0.181-1.811,0.543
		C48.915,77.178,49.096,77.902,49.64,78.446"/>
	<path clip-path="url(#SVGID_2_)" d="M49.64,148.377c0.181,0.361,0.725,0.725,1.268,0.725c0.181,0,0.544,0,0.725-0.181
		l17.936-10.509c0.724-0.362,0.905-1.268,0.543-1.812c-0.362-0.725-1.268-0.906-1.812-0.543l-17.935,10.507
		C49.459,146.928,49.278,147.652,49.64,148.377"/>
	<path clip-path="url(#SVGID_2_)" d="M87.686,154.174c-0.725-0.362-1.449-0.181-1.812,0.544l-10.326,18.116
		c-0.363,0.725-0.181,1.45,0.543,1.812c0.181,0.182,0.363,0.182,0.725,0.182c0.543,0,0.906-0.182,1.268-0.725l10.327-18.116
		C88.592,155.443,88.411,154.537,87.686,154.174"/>
	<path clip-path="url(#SVGID_2_)" d="M147.108,174.828c0.182,0,0.544,0,0.726-0.181c0.724-0.362,0.906-1.269,0.543-1.813
		l-10.326-18.117c-0.363-0.724-1.269-0.905-1.812-0.543c-0.726,0.362-0.906,1.269-0.545,1.812l10.327,18.117
		C146.203,174.647,146.747,174.828,147.108,174.828"/>
	<path clip-path="url(#SVGID_2_)" d="M173.74,146.565l-17.936-10.508c-0.724-0.361-1.449-0.181-1.812,0.544
		s-0.182,1.449,0.543,1.812l17.937,10.508c0.181,0.181,0.543,0.181,0.724,0.181c0.544,0,0.906-0.181,1.27-0.724
		C174.646,147.833,174.466,146.927,173.74,146.565"/>
	<path clip-path="url(#SVGID_2_)" d="M154.355,88.229c0.181,0.362,0.726,0.725,1.269,0.725c0.181,0,0.544,0,0.725-0.181
		l18.117-10.146c0.724-0.362,0.906-1.268,0.543-1.812c-0.362-0.724-1.269-0.905-1.812-0.543l-18.116,10.145
		C154.175,86.598,153.993,87.504,154.355,88.229"/>
	<path clip-path="url(#SVGID_2_)" d="M136.782,70.293c0.181,0.181,0.544,0.181,0.725,0.181c0.543,0,0.906-0.181,1.087-0.725
		l10.689-17.935c0.362-0.725,0.181-1.45-0.544-1.812c-0.725-0.362-1.449-0.181-1.813,0.544l-10.688,17.935
		C135.876,69.025,136.058,69.931,136.782,70.293"/>
	<path clip-path="url(#SVGID_2_)" d="M96.02,50.002c-0.725,0.181-1.087,0.906-0.906,1.631l3.805,11.957
		c0.181,0.543,0.724,0.905,1.268,0.905h0.362c0.725-0.181,1.087-0.905,0.906-1.63L97.65,50.909
		C97.468,50.184,96.744,49.822,96.02,50.002"/>
	<path clip-path="url(#SVGID_2_)" d="M67.032,66.308c-0.544,0.544-0.544,1.449,0,1.993l9.24,8.515
		c0.181,0.181,0.543,0.362,0.905,0.362c0.363,0,0.725-0.181,1.087-0.362c0.544-0.544,0.544-1.45,0-1.993l-9.239-8.515
		C68.481,65.764,67.576,65.764,67.032,66.308"/>
	<path clip-path="url(#SVGID_2_)" d="M64.134,96.744l-12.138-2.718c-0.725-0.181-1.45,0.363-1.631,1.087
		c-0.181,0.725,0.363,1.45,1.087,1.631l12.138,2.718h0.363c0.543,0,1.268-0.363,1.268-1.087
		C65.221,97.65,64.859,96.925,64.134,96.744"/>
	<path clip-path="url(#SVGID_2_)" d="M51.271,129.173h0.362l11.957-3.806c0.725-0.181,1.087-0.904,0.906-1.63
		c-0.181-0.725-0.906-1.087-1.63-0.905l-11.957,3.805c-0.725,0.181-1.087,0.905-0.906,1.63
		C50.184,128.811,50.727,129.173,51.271,129.173"/>
	<path clip-path="url(#SVGID_2_)" d="M76.815,147.833c0.544-0.544,0.544-1.449-0.181-1.993c-0.544-0.543-1.45-0.543-1.993,0.182
		l-8.334,9.239c-0.543,0.543-0.543,1.449,0.181,1.993c0.182,0.181,0.544,0.362,0.906,0.362c0.363,0,0.725-0.182,1.087-0.362
		L76.815,147.833z"/>
	<path clip-path="url(#SVGID_2_)" d="M98.375,158.884c-0.725-0.181-1.449,0.362-1.631,1.088l-2.717,12.138
		c-0.181,0.725,0.362,1.45,1.087,1.631h0.362c0.544,0,1.268-0.363,1.268-1.087l2.718-12.138
		C99.643,159.791,99.1,159.066,98.375,158.884"/>
	<path clip-path="url(#SVGID_2_)" d="M125.368,160.334c-0.181-0.726-1.087-1.087-1.631-0.906c-0.724,0.181-1.087,1.087-0.904,1.631
		l3.804,11.957c0.181,0.543,0.725,0.906,1.268,0.906h0.363c0.724-0.183,1.087-1.087,0.906-1.631L125.368,160.334z"/>
	<path clip-path="url(#SVGID_2_)" d="M146.021,149.102l9.24,8.334c0.181,0.181,0.543,0.361,0.905,0.361
		c0.363,0,0.725-0.181,1.087-0.361c0.544-0.544,0.544-1.45-0.181-1.993l-9.239-8.334c-0.544-0.543-1.45-0.543-1.993,0.181
		C145.297,147.833,145.478,148.558,146.021,149.102"/>
	<path clip-path="url(#SVGID_2_)" d="M146.928,78.083c0.181,0.181,0.544,0.362,0.906,0.362c0.361,0,0.725-0.181,1.087-0.543
		l8.334-9.24c0.543-0.543,0.543-1.449-0.183-1.993c-0.543-0.543-1.448-0.543-1.991,0.182l-8.334,9.239
		C146.384,76.635,146.384,77.54,146.928,78.083"/>
	<path clip-path="url(#SVGID_2_)" d="M126.637,51.271l-2.536,12.319c-0.182,0.725,0.362,1.45,1.087,1.631h0.362
		c0.543,0,1.268-0.362,1.268-1.087l2.537-12.319c0.182-0.725-0.362-1.45-1.087-1.631C127.543,50.003,126.817,50.546,126.637,51.271"
		/>
	<path clip-path="url(#SVGID_2_)" d="M131.528,110.694h-3.805c-0.362-3.262-1.631-6.341-3.624-8.878l2.719-2.717
		c0.543-0.544,0.543-1.45,0-1.993c-0.544-0.544-1.45-0.544-1.993,0l-2.718,2.717c-2.355-1.992-5.436-3.442-8.877-3.623v-3.804
		c0-0.725-0.543-1.45-1.449-1.45c-0.725,0-1.45,0.544-1.45,1.45v3.804c-3.261,0.362-6.34,1.631-8.877,3.623l-2.717-2.717
		c-0.544-0.544-1.45-0.544-1.993,0c-0.544,0.543-0.544,1.449,0,1.993l2.717,2.717c-1.992,2.355-3.442,5.435-3.623,8.878h-3.805
		c-0.724,0-1.449,0.543-1.449,1.449c0,0.725,0.544,1.449,1.449,1.449h3.805c0.362,3.261,1.631,6.341,3.623,8.877l-2.717,2.718
		c-0.544,0.545-0.544,1.449,0,1.993c0.181,0.182,0.543,0.362,0.906,0.362c0.362,0,0.724-0.181,0.906-0.362l2.717-2.718
		c2.355,1.993,5.435,3.443,8.877,3.624v3.804c0,0.726,0.544,1.45,1.45,1.45c0.724,0,1.449-0.544,1.449-1.45v-4.167
		c3.262-0.361,6.341-1.63,8.877-3.623l2.719,2.719c0.181,0.181,0.543,0.361,0.905,0.361s0.725-0.181,0.905-0.361
		c0.544-0.544,0.544-1.45,0-1.993l-2.355-2.537c1.993-2.355,3.442-5.436,3.624-8.877h3.805c0.725,0,1.45-0.543,1.45-1.449
		C132.796,111.237,132.253,110.694,131.528,110.694 M111.962,125.187c-7.247,0-13.044-5.797-13.044-13.043
		c0-7.247,5.797-13.044,13.044-13.044c7.247,0,13.044,5.797,13.044,13.044C125.006,119.208,119.209,125.187,111.962,125.187"/>
	<path clip-path="url(#SVGID_2_)" d="M111.962,102.722c-5.073,0-9.421,4.167-9.421,9.421c0,5.073,4.167,9.42,9.421,9.42
		c5.073,0,9.421-4.167,9.421-9.42C121.383,106.889,117.035,102.722,111.962,102.722 M111.962,118.666
		c-3.623,0-6.703-2.899-6.703-6.703c0-3.624,2.898-6.703,6.703-6.703c3.623,0,6.703,2.898,6.703,6.703
		C118.665,115.766,115.585,118.666,111.962,118.666"/>
	<path clip-path="url(#SVGID_2_)" fill="#E72A45" d="M185.697,66.308c0.182,0.181,0.544,0.362,0.906,0.362s0.726-0.181,0.906-0.362
		c0.543-0.544,0.543-1.449,0-1.993l-1.813-1.812c-0.544-0.543-1.448-0.543-1.992,0c-0.543,0.544-0.543,1.45,0,1.993L185.697,66.308z
		"/>
	<path clip-path="url(#SVGID_2_)" fill="#E72A45" d="M191.677,68.3c-0.545-0.544-1.449-0.544-1.993,0
		c-0.543,0.544-0.543,1.449,0,1.993l1.812,1.812c0.182,0.181,0.543,0.362,0.906,0.362c0.362,0,0.724-0.181,0.906-0.362
		c0.543-0.544,0.543-1.45,0-1.993L191.677,68.3z"/>
	<path clip-path="url(#SVGID_2_)" fill="#E72A45" d="M184.973,72.467c0.362,0,0.726-0.181,0.906-0.362l1.813-1.812
		c0.543-0.544,0.543-1.449,0-1.993c-0.544-0.543-1.45-0.543-1.993,0l-1.813,1.812c-0.544,0.543-0.544,1.449,0,1.993
		C184.248,72.287,184.611,72.467,184.973,72.467"/>
	<path clip-path="url(#SVGID_2_)" fill="#E72A45" d="M193.488,62.503c-0.544-0.544-1.449-0.544-1.993,0l-1.813,1.812
		c-0.543,0.543-0.543,1.449,0,1.993c0.183,0.181,0.544,0.362,0.906,0.362c0.363,0,0.725-0.181,0.906-0.362l1.812-1.812
		C194.032,63.952,194.032,63.047,193.488,62.503"/>
	<path clip-path="url(#SVGID_2_)" fill="#E72A45" d="M25.907,64.315l-1.812-1.812c-0.543-0.543-1.449-0.543-1.993,0
		c-0.543,0.544-0.543,1.45,0,1.993l1.812,1.812c0.181,0.181,0.544,0.362,0.906,0.362c0.362,0,0.725-0.181,0.906-0.362
		C26.451,65.764,26.451,64.859,25.907,64.315"/>
	<path clip-path="url(#SVGID_2_)" fill="#E72A45" d="M29.893,68.3c-0.544-0.544-1.449-0.544-1.993,0
		c-0.543,0.544-0.543,1.449,0,1.993l1.812,1.812c0.181,0.181,0.543,0.362,0.906,0.362c0.362,0,0.724-0.181,0.906-0.362
		c0.543-0.544,0.543-1.45,0-1.993L29.893,68.3z"/>
	<path clip-path="url(#SVGID_2_)" fill="#E72A45" d="M24.095,68.3l-1.812,1.813c-0.543,0.543-0.543,1.449,0,1.993
		c0.181,0.181,0.544,0.362,0.906,0.362s0.725-0.181,0.906-0.362l1.812-1.812c0.543-0.544,0.543-1.449,0-1.993
		C25.363,67.756,24.639,67.756,24.095,68.3"/>
	<path clip-path="url(#SVGID_2_)" fill="#E72A45" d="M28.081,66.308c0.181,0.181,0.544,0.362,0.906,0.362
		c0.362,0,0.725-0.181,0.906-0.362l1.811-1.812c0.544-0.543,0.544-1.449,0-1.993c-0.543-0.543-1.449-0.543-1.992,0L27.9,64.314
		C27.537,64.859,27.537,65.764,28.081,66.308"/>
	<path clip-path="url(#SVGID_2_)" d="M188.777,189.502c-0.544-0.544-1.449-0.544-1.993,0c-0.543,0.544-0.543,1.449,0,1.993
		l1.813,1.812c0.181,0.181,0.543,0.362,0.906,0.362c0.361,0,0.724-0.182,0.905-0.362c0.543-0.544,0.543-1.45,0-1.993
		L188.777,189.502z"/>
	<path clip-path="url(#SVGID_2_)" d="M194.575,195.299c-0.544-0.544-1.449-0.544-1.993,0c-0.543,0.544-0.543,1.449,0,1.993
		l1.812,1.813c0.182,0.181,0.543,0.361,0.906,0.361c0.362,0,0.725-0.181,0.906-0.361c0.543-0.544,0.543-1.45,0-1.993
		L194.575,195.299z"/>
	<path clip-path="url(#SVGID_2_)" d="M188.597,195.299l-1.813,1.813c-0.543,0.543-0.543,1.449,0,1.993
		c0.182,0.181,0.544,0.361,0.906,0.361s0.725-0.181,0.906-0.361l1.812-1.813c0.543-0.544,0.543-1.449,0-1.993
		C190.045,194.755,189.14,194.755,188.597,195.299"/>
	<path clip-path="url(#SVGID_2_)" d="M194.394,189.502l-1.812,1.812c-0.543,0.543-0.543,1.449,0,1.993
		c0.181,0.181,0.544,0.362,0.906,0.362c0.361,0,0.725-0.182,0.905-0.362l1.813-1.812c0.543-0.544,0.543-1.45,0-1.993
		C195.843,188.958,194.938,188.958,194.394,189.502"/>
	<path clip-path="url(#SVGID_2_)" fill="#FFCE00" d="M64.496,202.727c-0.544-0.544-1.449-0.544-1.993,0
		c-0.543,0.545-0.543,1.449,0,1.993l1.812,1.813c0.181,0.181,0.543,0.362,0.906,0.362c0.362,0,0.724-0.182,0.906-0.362
		c0.543-0.544,0.543-1.45,0-1.993L64.496,202.727z"/>
	<path clip-path="url(#SVGID_2_)" fill="#FFCE00" d="M70.293,208.343c-0.544-0.544-1.449-0.544-1.993,0
		c-0.543,0.545-0.543,1.449,0,1.993l1.812,1.813c0.181,0.181,0.543,0.361,0.906,0.361c0.362,0,0.724-0.181,0.906-0.361
		c0.543-0.544,0.543-1.45,0-1.993L70.293,208.343z"/>
	<path clip-path="url(#SVGID_2_)" fill="#FFCE00" d="M64.496,208.343l-1.812,1.813c-0.543,0.543-0.543,1.449,0,1.993
		c0.181,0.181,0.544,0.361,0.906,0.361c0.362,0,0.725-0.181,0.906-0.361l1.812-1.813c0.543-0.544,0.543-1.448,0-1.993
		C65.764,207.799,65.04,207.799,64.496,208.343"/>
	<path clip-path="url(#SVGID_2_)" fill="#FFCE00" d="M70.112,202.727L68.3,204.54c-0.543,0.543-0.543,1.449,0,1.993
		c0.181,0.181,0.544,0.362,0.906,0.362c0.362,0,0.725-0.182,0.906-0.362l1.812-1.813c0.543-0.544,0.543-1.448,0-1.993
		C71.561,202.183,70.656,202.183,70.112,202.727"/>
	<path clip-path="url(#SVGID_2_)" fill="#E72A45" d="M16.124,161.964c-0.725,0-1.449,0.544-1.449,1.449v9.965
		c0,0.725,0.543,1.449,1.449,1.449c0.725,0,1.449-0.544,1.449-1.449v-9.965C17.573,162.508,16.849,161.964,16.124,161.964"/>
	<path clip-path="url(#SVGID_2_)" fill="#E72A45" d="M16.124,177.364c-0.725,0-1.449,0.544-1.449,1.449v4.711
		c0,0.724,0.543,1.449,1.449,1.449c0.725,0,1.449-0.543,1.449-1.449v-4.711C17.573,178.089,16.849,177.364,16.124,177.364"/>
	<path clip-path="url(#SVGID_2_)" fill="#FFCE00" d="M164.501,43.118c0.725,0,1.449-0.544,1.449-1.449v-9.965
		c0-0.724-0.543-1.449-1.449-1.449c-0.725,0-1.449,0.544-1.449,1.449v9.965C163.233,42.574,163.776,43.118,164.501,43.118"/>
	<path clip-path="url(#SVGID_2_)" d="M164.501,53.445c0.725,0,1.449-0.544,1.449-1.449v-4.711c0-0.724-0.543-1.449-1.449-1.449
		c-0.725,0-1.449,0.543-1.449,1.449v4.711C163.233,52.901,163.776,53.445,164.501,53.445"/>
	<path clip-path="url(#SVGID_2_)" fill="#FFCE00" d="M192.764,42.575c3.261,0,5.797-2.536,5.797-5.797
		c0-3.261-2.536-5.798-5.797-5.798c-3.262,0-5.798,2.537-5.798,5.798C186.966,40.039,189.502,42.575,192.764,42.575 M192.764,33.878
		c1.631,0,3.08,1.449,3.08,3.08c0,1.63-1.45,3.08-3.08,3.08c-1.632,0-3.08-1.45-3.08-3.08
		C189.684,35.146,191.132,33.878,192.764,33.878"/>
	<path clip-path="url(#SVGID_2_)" fill="#FFCE00" d="M63.771,39.494c2.536,0,4.71-2.174,4.71-4.71c0-2.536-2.174-4.71-4.71-4.71
		c-2.536,0-4.71,2.174-4.71,4.71C59.062,37.32,61.235,39.494,63.771,39.494 M63.771,32.61c1.087,0,1.993,0.906,1.993,1.993
		c0,1.087-0.906,1.993-1.993,1.993c-1.087,0-1.993-0.906-1.993-1.993C61.778,33.516,62.684,32.61,63.771,32.61"/>
	<path clip-path="url(#SVGID_2_)" d="M192.039,152.182c-3.262,0-5.798,2.717-5.798,5.797c0,3.261,2.718,5.797,5.798,5.797
		c3.261,0,5.797-2.717,5.797-5.797S195.3,152.182,192.039,152.182 M192.039,161.24c-1.813,0-3.08-1.449-3.08-3.08
		c0-1.812,1.448-3.08,3.08-3.08c1.812,0,3.079,1.45,3.079,3.08C195.118,159.791,193.67,161.24,192.039,161.24"/>
	<path clip-path="url(#SVGID_2_)" d="M48.553,171.929c-2.536,0-4.71,2.174-4.71,4.71s2.174,4.71,4.71,4.71s4.71-2.174,4.71-4.71
		C53.445,174.103,51.271,171.929,48.553,171.929 M48.553,178.813c-1.087,0-1.993-0.905-1.993-1.992c0-1.088,0.906-1.993,1.993-1.993
		s1.993,0.905,1.993,1.993C50.546,177.908,49.64,178.813,48.553,178.813"/>
	<path clip-path="url(#SVGID_2_)" fill="#FFCE00" d="M8.153,33.878h12.319c0.725,0,1.45-0.544,1.45-1.449
		c0-0.725-0.544-1.45-1.45-1.45H8.153c-0.725,0-1.449,0.544-1.449,1.45C6.704,33.334,7.428,33.878,8.153,33.878"/>
	<path clip-path="url(#SVGID_2_)" fill="#FFCE00" d="M24.458,33.878h3.986c0.724,0,1.449-0.544,1.449-1.449
		c0-0.725-0.543-1.45-1.449-1.45h-3.986c-0.725,0-1.449,0.544-1.449,1.45C23.009,33.334,23.733,33.878,24.458,33.878"/>
	<path clip-path="url(#SVGID_2_)" fill="#FFCE00" d="M29.711,36.777c0-0.725-0.544-1.449-1.449-1.449h-8.515
		c-0.725,0-1.45,0.543-1.45,1.449c0,0.725,0.544,1.449,1.45,1.449h8.515C29.167,38.226,29.711,37.502,29.711,36.777"/>
	<path clip-path="url(#SVGID_2_)" fill="#FFCE00" d="M13.407,35.509c-0.725,0-1.449,0.544-1.449,1.449
		c0,0.725,0.543,1.45,1.449,1.45h2.718c0.724,0,1.449-0.544,1.449-1.45c0-0.724-0.544-1.449-1.449-1.449H13.407z"/>
	<path clip-path="url(#SVGID_2_)" fill="#E72A45" d="M162.146,205.989h-12.138c-0.725,0-1.45,0.544-1.45,1.449
		c0,0.725,0.544,1.449,1.45,1.449h12.319c0.725,0,1.449-0.544,1.449-1.449C163.595,206.713,162.871,205.989,162.146,205.989"/>
	<path clip-path="url(#SVGID_2_)" fill="#E72A45" d="M145.841,205.989h-3.986c-0.724,0-1.449,0.544-1.449,1.449
		c0,0.725,0.543,1.449,1.449,1.449h3.986c0.725,0,1.449-0.544,1.449-1.449C147.29,206.713,146.747,205.989,145.841,205.989"/>
	<path clip-path="url(#SVGID_2_)" fill="#E72A45" d="M150.551,210.156h-8.515c-0.726,0-1.449,0.544-1.449,1.448
		c0,0.726,0.543,1.45,1.449,1.45h8.515c0.726,0,1.449-0.544,1.449-1.45C151.819,210.88,151.276,210.156,150.551,210.156"/>
	<path clip-path="url(#SVGID_2_)" fill="#E72A45" d="M156.892,210.156h-2.718c-0.724,0-1.449,0.544-1.449,1.448
		c0,0.726,0.544,1.45,1.449,1.45h2.718c0.726,0,1.449-0.544,1.449-1.45C158.341,210.88,157.617,210.156,156.892,210.156"/>
	<path clip-path="url(#SVGID_2_)" d="M110.513,36.597v25.544c0,0.725,0.543,1.45,1.449,1.45c0.726,0,1.449-0.544,1.449-1.45V36.597
		c9.421-0.725,17.03-8.697,17.03-18.299C130.26,8.152,122.107,0,111.962,0c-10.145,0-18.298,8.153-18.298,18.298
		C93.664,28.082,101.092,35.872,110.513,36.597 M111.962,2.717c8.696,0,15.58,7.066,15.58,15.58c0,8.515-6.884,15.581-15.58,15.581
		c-8.515,0-15.58-7.066-15.58-15.581C96.382,9.784,103.266,2.717,111.962,2.717"/>
	<path clip-path="url(#SVGID_2_)" d="M111.962,28.443c5.616,0,10.146-4.529,10.146-10.145s-4.529-10.146-10.146-10.146
		c-5.616,0-10.145,4.53-10.145,10.146S106.346,28.443,111.962,28.443 M111.962,11.051c3.986,0,7.428,3.261,7.428,7.428
		c0,3.986-3.261,7.428-7.428,7.428c-3.986,0-7.428-3.261-7.428-7.428S107.976,11.051,111.962,11.051"/>
	<path clip-path="url(#SVGID_2_)" d="M205.626,94.026c-9.602,0-17.573,7.428-18.298,17.03h-25.364c-0.724,0-1.448,0.544-1.448,1.45
		c0,0.724,0.544,1.449,1.448,1.449h25.545c0.726,9.421,8.696,17.03,18.299,17.03c10.146,0,18.298-8.152,18.298-18.298
		C224.105,102.541,215.771,94.026,205.626,94.026 M205.626,128.086c-8.515,0-15.58-6.885-15.58-15.58
		c0-8.515,7.065-15.581,15.58-15.581c8.696,0,15.58,7.066,15.58,15.581C221.206,121.02,214.322,128.086,205.626,128.086"/>
	<path clip-path="url(#SVGID_2_)" d="M205.626,102.36c-5.616,0-10.145,4.529-10.145,10.145s4.528,10.146,10.145,10.146
		s10.146-4.529,10.146-10.146S211.242,102.36,205.626,102.36 M205.626,119.752c-3.985,0-7.428-3.261-7.428-7.428
		c0-3.986,3.261-7.428,7.428-7.428c3.986,0,7.429,3.261,7.429,7.428C213.055,116.492,209.793,119.752,205.626,119.752"/>
	<path clip-path="url(#SVGID_2_)" d="M61.96,113.774c0.724,0,1.449-0.544,1.449-1.45c0-0.724-0.544-1.449-1.449-1.449H36.596
		c-0.725-9.421-8.696-17.03-18.298-17.03C8.153,94.026,0,102.36,0,112.506c0,10.145,8.153,18.298,18.298,18.298
		c9.602,0,17.573-7.428,18.298-17.03H61.96z M18.298,128.086c-8.696,0-15.58-7.066-15.58-15.58c0-8.697,7.065-15.581,15.58-15.581
		c8.515,0,15.58,6.884,15.58,15.581C33.878,121.02,26.813,128.086,18.298,128.086"/>
	<path clip-path="url(#SVGID_2_)" d="M18.298,102.36c-5.616,0-10.145,4.529-10.145,10.145s4.529,10.146,10.145,10.146
		c5.616,0,10.145-4.529,10.145-10.146S23.914,102.36,18.298,102.36 M18.298,119.752c-3.986,0-7.428-3.261-7.428-7.428
		c0-3.986,3.261-7.428,7.428-7.428c3.986,0,7.428,3.261,7.428,7.428C25.726,116.492,22.284,119.752,18.298,119.752"/>
</g>
</svg>
