<?xml version="1.0" encoding="utf-8"?>
<!-- Generator: Adobe Illustrator 16.0.0, SVG Export Plug-In . SVG Version: 6.00 Build 0)  -->
<!DOCTYPE svg PUBLIC "-//W3C//DTD SVG 1.1//EN" "http://www.w3.org/Graphics/SVG/1.1/DTD/svg11.dtd">
<svg version="1.1" id="Layer_1" xmlns="http://www.w3.org/2000/svg" xmlns:xlink="http://www.w3.org/1999/xlink" x="0px" y="0px"
	 width="195.771px" height="228.457px" viewBox="0 0 195.771 228.457" enable-background="new 0 0 195.771 228.457"
	 xml:space="preserve">
<g>
	<defs>
		<rect id="SVGID_1_" width="195.771" height="228.457"/>
	</defs>
	<clipPath id="SVGID_2_">
		<use xlink:href="#SVGID_1_"  overflow="visible"/>
	</clipPath>
	<path clip-path="url(#SVGID_2_)" fill="#FFFFFF" d="M4.701,147.571c-0.719,0-1.438,0.539-1.438,1.438v21.749
		c0,0.719,0.539,1.438,1.438,1.438c0.719,0,1.438-0.539,1.438-1.438V149.01C5.959,148.291,5.42,147.571,4.701,147.571"/>
	<path clip-path="url(#SVGID_2_)" fill="#FFFFFF" d="M4.701,176.511c-0.719,0-1.438,0.539-1.438,1.438v7.011
		c0,0.719,0.539,1.438,1.438,1.438c0.719,0,1.438-0.539,1.438-1.438v-7.011C5.959,177.05,5.42,176.511,4.701,176.511"/>
	<path clip-path="url(#SVGID_2_)" fill="#FFFFFF" d="M190.559,29.658c-0.72,0-1.438,0.539-1.438,1.438v21.749
		c0,0.719,0.539,1.438,1.438,1.438c0.719,0,1.438-0.539,1.438-1.438V31.097C191.996,30.377,191.277,29.658,190.559,29.658"/>
	<path clip-path="url(#SVGID_2_)" fill="#FFFFFF" d="M190.559,58.598c-0.72,0-1.438,0.539-1.438,1.438v7.01
		c0,0.719,0.539,1.438,1.438,1.438c0.719,0,1.438-0.539,1.438-1.438v-7.01C191.996,59.136,191.277,58.598,190.559,58.598"/>
	<path clip-path="url(#SVGID_2_)" fill="#FFFFFF" d="M141.848,176.87c-0.539-0.539-1.438-0.539-1.978,0s-0.539,1.438,0,1.977
		l3.055,3.057c0.181,0.18,0.54,0.358,0.899,0.358c0.36,0,0.719-0.179,0.899-0.358c0.538-0.539,0.538-1.438,0-1.978L141.848,176.87z"
		/>
	<path clip-path="url(#SVGID_2_)" fill="#FFFFFF" d="M151.554,186.576c-0.539-0.539-1.438-0.539-1.978,0s-0.539,1.438,0,1.978
		l3.056,3.056c0.18,0.18,0.54,0.359,0.898,0.359c0.36,0,0.719-0.18,0.899-0.359c0.539-0.539,0.539-1.438,0-1.977L151.554,186.576z"
		/>
	<path clip-path="url(#SVGID_2_)" fill="#FFFFFF" d="M142.926,186.576l-3.056,3.057c-0.539,0.538-0.539,1.438,0,1.977
		c0.18,0.18,0.54,0.359,0.898,0.359c0.36,0,0.719-0.18,0.899-0.359l3.055-3.056c0.54-0.539,0.54-1.438,0-1.978
		C144.363,186.037,143.465,186.037,142.926,186.576"/>
	<path clip-path="url(#SVGID_2_)" fill="#FFFFFF" d="M154.609,176.87c-0.539-0.539-1.438-0.539-1.978,0l-3.056,3.056
		c-0.539,0.539-0.539,1.438,0,1.978c0.18,0.18,0.539,0.358,0.898,0.358s0.72-0.179,0.899-0.358l3.055-3.057
		C155.148,178.308,155.148,177.409,154.609,176.87"/>
	<path clip-path="url(#SVGID_2_)" fill="#FFFFFF" d="M14.767,211.561c-0.539-0.539-1.438-0.539-1.977,0s-0.539,1.438,0,1.978
		l3.055,3.056c0.18,0.181,0.54,0.359,0.899,0.359c0.36,0,0.719-0.179,0.899-0.359c0.539-0.539,0.539-1.438,0-1.977L14.767,211.561z"
		/>
	<path clip-path="url(#SVGID_2_)" fill="#FFFFFF" d="M24.473,221.268c-0.539-0.539-1.438-0.539-1.977,0
		c-0.539,0.539-0.539,1.438,0,1.977l3.055,3.056c0.18,0.181,0.54,0.359,0.899,0.359c0.36,0,0.719-0.179,0.899-0.359
		c0.539-0.538,0.539-1.438,0-1.977L24.473,221.268z"/>
	<path clip-path="url(#SVGID_2_)" fill="#FFFFFF" d="M15.846,221.268l-3.056,3.056c-0.539,0.539-0.539,1.438,0,1.977
		c0.18,0.181,0.54,0.359,0.899,0.359c0.36,0,0.719-0.179,0.899-0.359l3.055-3.056c0.54-0.539,0.54-1.438,0-1.977
		C17.284,220.729,16.385,220.729,15.846,221.268"/>
	<path clip-path="url(#SVGID_2_)" fill="#FFFFFF" d="M25.552,211.561l-3.056,3.057c-0.539,0.539-0.539,1.438,0,1.977
		c0.18,0.181,0.54,0.359,0.899,0.359c0.36,0,0.719-0.179,0.899-0.359l3.055-3.056c0.54-0.539,0.54-1.438,0-1.978
		C26.81,211.021,25.911,211.021,25.552,211.561"/>
	<path clip-path="url(#SVGID_2_)" fill="#FFFFFF" d="M15.126,20.851c3.595,0,6.471-2.876,6.471-6.471
		c0-3.595-2.876-6.471-6.471-6.471c-3.595,0-6.471,2.876-6.471,6.471C8.656,17.975,11.532,20.851,15.126,20.851 M15.126,10.785
		c1.977,0,3.775,1.618,3.775,3.775c0,1.977-1.618,3.774-3.775,3.774c-1.977,0-3.775-1.617-3.775-3.774
		C11.352,12.403,12.97,10.785,15.126,10.785"/>
	<path clip-path="url(#SVGID_2_)" fill="#FFFFFF" d="M183.009,154.402c-3.595,0-6.471,2.875-6.471,6.47
		c0,3.596,2.876,6.472,6.471,6.472s6.472-2.876,6.472-6.472C189.48,157.277,186.604,154.402,183.009,154.402 M183.009,164.647
		c-1.977,0-3.774-1.618-3.774-3.775c0-1.977,1.617-3.773,3.774-3.773c1.978,0,3.775,1.616,3.775,3.773
		C186.784,162.851,185.166,164.647,183.009,164.647"/>
	<path clip-path="url(#SVGID_2_)" fill="#FFFFFF" d="M35.438,174.533c-4.853,0-8.628,3.954-8.628,8.628
		c0,4.854,3.955,8.627,8.628,8.627c4.853,0,8.628-3.953,8.628-8.627S40.291,174.533,35.438,174.533 M35.438,189.272
		c-3.235,0-5.932-2.696-5.932-5.932s2.697-5.932,5.932-5.932c3.235,0,5.932,2.696,5.932,5.932S38.673,189.272,35.438,189.272"/>
	<path clip-path="url(#SVGID_2_)" fill="#FFFFFF" d="M155.508,7.37h23.547c0.719,0,1.438-0.539,1.438-1.438
		c0-0.899-0.54-1.438-1.438-1.438h-23.547c-0.719,0-1.438,0.539-1.438,1.438C154.07,6.831,154.789,7.37,155.508,7.37"/>
	<path clip-path="url(#SVGID_2_)" fill="#FFFFFF" d="M186.783,7.37h7.55c0.719,0,1.438-0.539,1.438-1.438
		c0-0.899-0.539-1.438-1.438-1.438h-7.55c-0.719,0-1.438,0.539-1.438,1.438C185.346,6.831,186.064,7.37,186.783,7.37"/>
	<path clip-path="url(#SVGID_2_)" fill="#FFFFFF" d="M194.333,12.583h-16.357c-0.719,0-1.438,0.539-1.438,1.438
		c0,0.719,0.539,1.438,1.438,1.438h16.357c0.719,0,1.438-0.539,1.438-1.438C195.771,13.302,195.052,12.583,194.333,12.583"/>
	<path clip-path="url(#SVGID_2_)" fill="#FFFFFF" d="M170.966,15.279c0.719,0,1.438-0.539,1.438-1.438
		c0-0.719-0.539-1.438-1.438-1.438h-5.392c-0.719,0-1.438,0.539-1.438,1.438c0,0.719,0.539,1.438,1.438,1.438H170.966z"/>
	<path clip-path="url(#SVGID_2_)" fill="#FFFFFF" d="M186.424,225.581h-23.547c-0.719,0-1.438,0.539-1.438,1.438
		c0,0.719,0.54,1.438,1.438,1.438h23.547c0.72,0,1.438-0.539,1.438-1.438C187.862,226.12,187.144,225.581,186.424,225.581"/>
	<path clip-path="url(#SVGID_2_)" fill="#FFFFFF" d="M155.328,225.581h-7.549c-0.719,0-1.438,0.539-1.438,1.438
		c0,0.719,0.539,1.438,1.438,1.438h7.549c0.719,0,1.438-0.539,1.438-1.438C156.586,226.12,156.047,225.581,155.328,225.581"/>
	<path clip-path="url(#SVGID_2_)" fill="#FFFFFF" d="M147.599,220.188h16.357c0.719,0,1.438-0.539,1.438-1.438
		c0-0.72-0.539-1.438-1.438-1.438h-16.357c-0.719,0-1.438,0.539-1.438,1.438C146.341,219.649,146.88,220.188,147.599,220.188"/>
	<path clip-path="url(#SVGID_2_)" fill="#FFFFFF" d="M169.708,218.931c0,0.719,0.539,1.438,1.438,1.438h5.393
		c0.719,0,1.438-0.539,1.438-1.438c0-0.719-0.539-1.438-1.438-1.438h-5.393C170.247,217.492,169.708,218.031,169.708,218.931"/>
	<path clip-path="url(#SVGID_2_)" fill="#FFFFFF" d="M188.761,94.367l-27.501-0.18c-0.719,0-1.438,0.539-1.438,1.258
		c0,0.719,0.538,1.438,1.258,1.438l27.501,0.18c0.719,0,1.438-0.539,1.438-1.258C190.019,95.086,189.479,94.367,188.761,94.367"/>
	<path clip-path="url(#SVGID_2_)" fill="#FFFFFF" d="M175.46,115.397l-16.178-3.416c-0.719-0.18-1.438,0.359-1.617,1.078
		c-0.181,0.719,0.359,1.438,1.078,1.618l16.178,3.415h0.358c0.539,0,1.258-0.358,1.258-1.078
		C176.718,116.296,176.179,115.577,175.46,115.397"/>
	<path clip-path="url(#SVGID_2_)" fill="#FFFFFF" d="M175.64,74.954c0.719-0.18,1.078-1.078,0.898-1.618
		c-0.18-0.719-1.079-1.078-1.618-0.898l-15.817,5.212c-0.719,0.18-1.078,1.079-0.898,1.618c0.18,0.539,0.72,0.899,1.259,0.899h0.358
		L175.64,74.954z"/>
	<path clip-path="url(#SVGID_2_)" fill="#FFFFFF" d="M94.934,30.198c0.719,0,1.438-0.539,1.438-1.438V1.438
		C96.372,0.72,95.833,0,94.934,0s-1.438,0.539-1.438,1.438v27.501C93.676,29.659,94.215,30.198,94.934,30.198"/>
	<path clip-path="url(#SVGID_2_)" fill="#FFFFFF" d="M60.063,38.825c0.18,0.359,0.719,0.719,1.078,0.719c0.18,0,0.54,0,0.719-0.18
		c0.719-0.359,0.899-1.258,0.54-1.797L48.38,13.662c-0.36-0.719-1.259-0.899-1.798-0.54c-0.719,0.36-0.899,1.259-0.539,1.798
		L60.063,38.825z"/>
	<path clip-path="url(#SVGID_2_)" fill="#FFFFFF" d="M37.415,63.81c0.539,0,0.899-0.18,1.258-0.719
		c0.36-0.719,0.18-1.438-0.539-1.797L14.048,47.633c-0.719-0.36-1.438-0.18-1.797,0.539c-0.36,0.719-0.18,1.438,0.539,1.798
		l23.906,13.66C36.876,63.81,37.235,63.81,37.415,63.81"/>
	<path clip-path="url(#SVGID_2_)" fill="#FFFFFF" d="M30.225,95.445c0-0.719-0.539-1.258-1.438-1.258l-27.501,0.18
		c-0.719,0-1.438,0.539-1.258,1.437c0,0.719,0.539,1.259,1.438,1.259l27.501-0.18C29.506,96.883,30.225,96.165,30.225,95.445"/>
	<path clip-path="url(#SVGID_2_)" fill="#FFFFFF" d="M12.79,142.898c0.18,0.358,0.719,0.719,1.258,0.719c0.18,0,0.539,0,0.719-0.18
		l23.727-13.841c0.719-0.359,0.898-1.258,0.539-1.798c-0.36-0.719-1.258-0.897-1.798-0.539l-23.906,13.842
		C12.61,141.46,12.431,142.359,12.79,142.898"/>
	<path clip-path="url(#SVGID_2_)" fill="#FFFFFF" d="M176.538,141.28l-23.726-13.84c-0.72-0.36-1.438-0.18-1.799,0.539
		c-0.358,0.719-0.18,1.438,0.539,1.797l23.728,13.841c0.18,0.18,0.358,0.18,0.719,0.18c0.539,0,0.898-0.18,1.258-0.72
		C177.438,142.358,177.257,141.64,176.538,141.28"/>
	<path clip-path="url(#SVGID_2_)" fill="#FFFFFF" d="M177.796,48.352c-0.358-0.719-1.258-0.899-1.797-0.539l-24.086,13.481
		c-0.719,0.359-0.898,1.258-0.54,1.797c0.181,0.36,0.719,0.719,1.259,0.719c0.18,0,0.539,0,0.72-0.18l24.086-13.481
		C177.977,49.79,178.155,49.071,177.796,48.352"/>
	<path clip-path="url(#SVGID_2_)" fill="#FFFFFF" d="M128.007,39.365c0.18,0.18,0.539,0.18,0.719,0.18
		c0.539,0,0.899-0.18,1.078-0.719l14.021-23.727c0.358-0.719,0.179-1.438-0.54-1.797c-0.72-0.36-1.438-0.18-1.797,0.539
		l-14.021,23.727C127.288,38.106,127.468,39.006,128.007,39.365"/>
	<path clip-path="url(#SVGID_2_)" fill="#FFFFFF" d="M78.038,30.917c0.18,0.539,0.719,0.899,1.258,0.899h0.36
		c0.719-0.18,1.078-0.899,0.898-1.618L75.521,14.38c-0.18-0.719-0.899-1.078-1.618-0.898c-0.719,0.179-1.079,0.898-0.899,1.617
		L78.038,30.917z"/>
	<path clip-path="url(#SVGID_2_)" fill="#FFFFFF" d="M48.2,47.992c0.18,0.18,0.539,0.359,0.899,0.359
		c0.359,0,0.719-0.179,1.078-0.359c0.539-0.539,0.539-1.438,0-1.977L37.955,34.872c-0.54-0.54-1.438-0.54-1.978,0
		c-0.539,0.539-0.539,1.438,0,1.977L48.2,47.992z"/>
	<path clip-path="url(#SVGID_2_)" fill="#FFFFFF" d="M14.767,74.235l16.177,3.595h0.36c0.539,0,1.258-0.36,1.258-1.079
		c0.18-0.719-0.36-1.438-1.079-1.617L15.306,71.54c-0.719-0.18-1.438,0.359-1.617,1.078C13.509,73.336,13.868,74.055,14.767,74.235"
		/>
	<path clip-path="url(#SVGID_2_)" fill="#FFFFFF" d="M14.228,114.678c-0.719,0.181-1.078,1.078-0.899,1.618
		c0.18,0.539,0.719,0.898,1.258,0.898h0.36l15.818-5.032c0.719-0.18,1.078-0.899,0.898-1.618c-0.179-0.719-0.898-1.079-1.617-0.899
		L14.228,114.678z"/>
	<path clip-path="url(#SVGID_2_)" fill="#FFFFFF" d="M46.043,140.202l-11.144,12.401c-0.539,0.54-0.539,1.438,0.18,1.979
		c0.179,0.179,0.539,0.359,0.898,0.359c0.36,0,0.719-0.181,1.079-0.359L48.2,142.359c0.539-0.539,0.539-1.438-0.18-1.978
		C47.481,139.663,46.582,139.663,46.043,140.202"/>
	<path clip-path="url(#SVGID_2_)" fill="#FFFFFF" d="M142.207,141.819c-0.539-0.539-1.438-0.539-1.978,0.181
		c-0.539,0.539-0.539,1.438,0.181,1.977l12.222,11.145c0.18,0.18,0.539,0.359,0.898,0.359s0.72-0.18,1.078-0.359
		c0.54-0.539,0.54-1.438-0.179-1.978L142.207,141.819z"/>
	<path clip-path="url(#SVGID_2_)" fill="#FFFFFF" d="M141.668,49.61c0.18,0.18,0.538,0.359,0.898,0.359
		c0.359,0,0.719-0.179,1.078-0.539l10.965-12.402c0.539-0.539,0.539-1.438-0.18-1.977c-0.539-0.54-1.438-0.54-1.978,0.179
		l-10.965,12.403C141.129,48.352,141.129,49.071,141.668,49.61"/>
	<path clip-path="url(#SVGID_2_)" fill="#FFFFFF" d="M112.549,32.354h0.358c0.54,0,1.26-0.359,1.26-1.078l3.415-16.178
		c0.18-0.719-0.36-1.438-1.079-1.617c-0.72-0.18-1.438,0.359-1.617,1.078l-3.415,16.177
		C111.471,31.456,111.83,32.175,112.549,32.354"/>
	<path clip-path="url(#SVGID_2_)" fill="#FFFFFF" d="M140.229,123.306c0.359-0.719,0.899-1.438,1.258-2.157l-1.078-0.898
		l1.078,0.719v-0.179c5.033-8.808,7.37-19.053,6.831-29.299c-1.438-27.142-22.828-48.891-49.79-50.688
		c-15.099-1.079-29.299,4.134-40.263,14.379C47.48,65.248,41.189,79.628,41.189,94.367c0,8.268,1.798,16.357,5.572,23.726v0.18
		c1.258,2.518,2.696,4.854,4.314,7.19c8.448,14.919,14.38,31.455,17.795,49.25l1.977,13.122c0.18,0.719,0.36,1.617,0.539,2.157
		c1.259,3.234,4.314,5.751,7.729,6.291l-3.415,19.592c-0.179,1.438,0.18,2.876,1.079,4.134c0.899,1.079,2.336,1.798,3.774,1.798
		h29.119c1.438,0,2.876-0.719,3.774-1.798c0.899-1.078,1.438-2.696,1.078-4.134l-3.415-19.592c3.775-0.72,6.831-3.415,7.729-7.37
		v-0.181c0-0.358,0.18-0.719,0.18-1.077l1.078-7.909C123.514,159.615,130.523,140.021,140.229,123.306 M71.208,171.837
		c-0.719-3.235-1.438-6.471-2.337-9.706h52.306c-0.899,3.235-1.618,6.471-2.337,9.706H71.208z M60.243,57.339
		c10.425-9.706,23.906-14.559,38.286-13.66c25.704,1.797,46.016,22.468,47.273,48.172c0.539,9.706-1.797,19.232-6.472,27.681
		c0,0.18-0.179,0.18-0.179,0.18c-0.36,0.719-0.898,1.438-1.259,2.157c-6.65,11.323-12.043,24.086-15.817,37.566H68.151
		c-3.595-12.402-8.448-24.266-14.559-35.229v-0.181c-0.36-0.539-0.54-0.898-0.899-1.438c-1.079-1.978-2.157-3.775-3.415-5.572
		c-3.415-7.01-5.213-14.56-5.213-22.468C44.065,80.527,49.998,67.046,60.243,57.339 M111.471,218.571
		c-0.36,0.538-1.079,0.898-1.798,0.898H80.554c-0.719,0-1.258-0.36-1.797-0.898c-0.359-0.539-0.539-1.259-0.539-1.798l3.595-19.951
		h26.602l3.596,19.951C112.01,217.313,111.829,218.032,111.471,218.571 M109.134,193.946h-28.4c-3.055,0-5.752-1.798-6.83-4.674
		c-0.18-1.617-0.36-3.235-0.539-4.854c-0.18-0.898-0.18-1.617-0.36-2.517c-0.359-2.516-0.719-4.853-1.258-7.369h46.734
		c-0.36,1.617-0.719,3.235-0.899,4.854c-0.358,2.696-0.898,5.572-1.258,8.627C115.604,191.608,112.549,193.946,109.134,193.946"/>
	<path clip-path="url(#SVGID_2_)" fill="#FFFFFF" d="M91.339,202.754c-0.719,0-1.438,0.538-1.438,1.438v8.089
		c0,0.719,0.539,1.438,1.438,1.438c0.719,0,1.438-0.539,1.438-1.438v-8.089C92.777,203.473,92.058,202.754,91.339,202.754"/>
	<path clip-path="url(#SVGID_2_)" fill="#FFFFFF" d="M98.888,202.754c-0.719,0-1.438,0.538-1.438,1.438v8.089
		c0,0.719,0.539,1.438,1.438,1.438c0.72,0,1.438-0.539,1.438-1.438v-8.089C100.146,203.473,99.607,202.754,98.888,202.754"/>
	<path clip-path="url(#SVGID_2_)" fill="#FFFFFF" d="M86.126,134.271c0.539,0.18,1.258,0.539,1.977,0.719
		c0.359,0,0.899,0.18,1.258,0.18c2.337,0,4.314-1.078,5.572-2.696c1.258,1.618,3.236,2.696,5.572,2.696c0.359,0,0.898,0,1.438-0.18
		c0.719-0.18,1.258-0.359,1.798-0.719c9.347-3.774,20.131-14.38,20.131-31.096c0-15.279-6.11-28.58-18.153-39.544
		c-0.539-0.36-0.899-0.899-1.438-1.259c-1.079-0.719-2.337-1.078-3.595-1.078c-2.337,0-4.314,1.078-5.572,2.696
		c-1.258-1.618-3.236-2.696-5.572-2.696c-1.258,0-2.517,0.359-3.595,1.078c-0.539,0.36-0.899,0.719-1.258,1.079
		c-12.043,10.964-18.155,24.266-18.155,39.544C65.995,119.891,76.959,130.496,86.126,134.271 M100.506,63.99
		c0.719,0,1.617,0.18,2.156,0.539c0.36,0.36,0.72,0.719,1.259,1.079c1.438,1.258,2.696,2.516,3.774,3.774
		c0,0,1.797,2.337-1.977,8.448c-0.36,0.719-0.181,1.438,0.539,1.798c0.18,0.18,0.539,0.18,0.719,0.18
		c0.539,0,0.899-0.18,1.079-0.719c1.617-2.696,2.336-4.674,2.516-6.471c2.337,2.876,4.134,5.931,5.752,8.987
		c-0.359,1.079-1.438,4.314-5.213,5.033c-0.719,0.18-1.258,0.899-1.078,1.618c0.18,0.719,0.72,1.078,1.258,1.078h0.181
		c3.234-0.719,5.212-2.516,6.291-4.314c1.258,3.056,2.157,6.291,2.695,9.707c-1.438-0.899-3.595-1.978-6.11-2.157
		c-3.595-0.18-7.19,1.258-10.605,4.314c-0.54,0.539-0.54,1.437-0.18,1.977c0.539,0.539,1.438,0.539,1.977,0.179
		c2.876-2.516,5.752-3.774,8.628-3.594c3.415,0.179,5.932,2.336,6.65,3.235c0.36,1.438,0.36,2.876,0.36,4.494
		c0,15.458-9.887,25.164-18.515,28.759c-0.539,0.18-1.077,0.359-1.438,0.539h-0.719c-1.978,0-3.774-1.438-4.134-3.235
		c0-0.359,0.18-0.719,0.18-1.078v-20.67c1.977,1.078,5.034,2.156,8.268,1.797c2.157-0.18,4.134-1.078,5.933-2.696
		c0.538,2.157,1.977,5.033,5.032,5.572h0.18c0.719,0,1.259-0.36,1.259-1.079c0.179-0.719-0.36-1.438-1.079-1.617
		c-3.056-0.54-3.415-5.932-3.415-5.932c0-0.539-0.36-1.078-0.899-1.258c-0.539-0.18-1.077,0-1.438,0.539
		c-1.617,2.157-3.774,3.415-5.931,3.595c-3.416,0.36-6.472-1.438-7.91-2.337V87.357c0.719-0.539,1.797-1.078,2.876-1.078
		c0.719,0,1.438,0.539,1.977,1.438c0.181,0.359,0.719,0.539,1.078,0.539c0.36,0,0.54,0,0.719-0.18c0.54-0.359,0.72-1.258,0.36-1.797
		c-1.438-1.978-2.876-2.517-3.955-2.517c-1.078-0.18-2.156,0.18-3.055,0.539V68.124c0-0.359,0-0.719-0.18-1.078
		C96.731,65.428,98.528,63.99,100.506,63.99 M68.871,98.681c0.719-0.719,3.235-2.876,6.651-3.235
		c2.876-0.18,5.751,1.078,8.627,3.594c0.54,0.54,1.438,0.54,1.978-0.179c0.539-0.539,0.539-1.438-0.18-1.977
		c-3.415-3.056-7.01-4.494-10.605-4.314c-2.517,0.179-4.494,1.078-6.112,2.157c0.54-3.416,1.438-6.651,2.697-9.707
		c1.078,1.798,2.876,3.775,6.291,4.314h0.18c0.718,0,1.258-0.359,1.258-1.078c0.179-0.719-0.36-1.438-1.079-1.618
		c-3.774-0.719-5.033-3.954-5.212-5.033c1.617-3.056,3.415-6.111,5.751-8.987c0.36,1.618,1.079,3.775,2.517,6.471
		c0.18,0.359,0.719,0.719,1.078,0.719c0.18,0,0.54,0,0.719-0.18c0.719-0.36,0.899-1.258,0.54-1.797
		c-3.595-6.112-1.978-8.449-1.978-8.449c1.259-1.258,2.517-2.516,3.775-3.774c0.36-0.36,0.719-0.719,1.079-0.899
		c0.719-0.359,1.438-0.539,2.157-0.539c1.977,0,3.774,1.438,4.134,3.235c0,0.36-0.18,0.719-0.18,1.079v16.177
		c-0.899-0.36-1.977-0.719-3.056-0.539c-1.078,0.179-2.696,0.539-3.954,2.516c-0.36,0.539-0.36,1.438,0.359,1.798
		c0.18,0.179,0.54,0.179,0.719,0.179c0.36,0,0.899-0.179,1.079-0.539c0.539-0.899,1.258-1.258,1.977-1.438
		c1.078,0,2.157,0.539,2.876,1.079v16.716c-1.438,0.899-4.494,2.696-7.909,2.337c-2.337-0.18-4.314-1.438-5.932-3.595
		c-0.359-0.36-0.898-0.54-1.437-0.54c-0.54,0.18-0.899,0.719-0.899,1.259c0,0-0.36,5.392-3.415,5.931
		c-0.719,0.18-1.259,0.899-1.079,1.618c0.18,0.719,0.719,1.078,1.258,1.078h0.18c3.056-0.539,4.494-3.415,5.033-5.572
		c1.797,1.438,3.775,2.337,5.932,2.696c3.235,0.36,6.291-0.719,8.268-1.797v20.491c0,0.36,0,0.719,0.18,1.078
		c-0.54,1.978-2.157,3.235-4.134,3.235h-0.54c-0.539-0.18-1.078-0.359-1.617-0.539c-8.448-3.595-18.514-13.121-18.514-28.58
		C68.69,101.557,68.871,100.119,68.871,98.681"/>
	<path clip-path="url(#SVGID_2_)" fill="#FFFFFF" d="M81.812,125.283h0.18c0.719-0.18,1.258-0.899,1.078-1.618
		c0,0-0.539-3.235,1.079-5.572c0.898-1.258,2.516-2.157,4.493-2.516c0.719-0.18,1.259-0.899,1.079-1.618s-0.899-1.258-1.618-1.078
		c-2.876,0.539-5.033,1.797-6.291,3.774c-2.337,3.235-1.438,7.37-1.438,7.55C80.554,124.744,81.093,125.283,81.812,125.283"/>
	<path clip-path="url(#SVGID_2_)" fill="#FFFFFF" d="M101.764,112.881c-0.719-0.18-1.438,0.359-1.618,1.078
		c-0.179,0.719,0.36,1.438,1.079,1.618c2.157,0.36,3.596,1.259,4.493,2.518c1.618,2.336,1.079,5.572,1.079,5.572
		c-0.18,0.719,0.359,1.438,1.078,1.616h0.18c0.719,0,1.258-0.358,1.258-1.077c0-0.181,0.72-4.314-1.438-7.55
		C106.617,114.499,104.46,113.419,101.764,112.881"/>
</g>
</svg>
