<?xml version="1.0" encoding="utf-8"?>
<!-- Generator: Adobe Illustrator 16.0.0, SVG Export Plug-In . SVG Version: 6.00 Build 0)  -->
<!DOCTYPE svg PUBLIC "-//W3C//DTD SVG 1.1//EN" "http://www.w3.org/Graphics/SVG/1.1/DTD/svg11.dtd">
<svg version="1.1" id="Layer_1" xmlns="http://www.w3.org/2000/svg" xmlns:xlink="http://www.w3.org/1999/xlink" x="0px" y="0px"
	 width="215.158px" height="227.33px" viewBox="0 0 215.158 227.33" enable-background="new 0 0 215.158 227.33"
	 xml:space="preserve">
<g>
	<defs>
		<rect id="SVGID_1_" width="215.158" height="227.33"/>
	</defs>
	<clipPath id="SVGID_2_">
		<use xlink:href="#SVGID_1_"  overflow="visible"/>
	</clipPath>
	<path clip-path="url(#SVGID_2_)" fill="#FFFFFF" d="M141.23,107.4c-0.716,0-1.432,0.537-1.432,1.253
		c0,0.716,0.537,1.432,1.253,1.432l13.604,0.179c0.716,0,1.432-0.537,1.432-1.253s-0.537-1.432-1.253-1.432L141.23,107.4z"/>
	<path clip-path="url(#SVGID_2_)" fill="#FFFFFF" d="M108.653,77.328c0.716,0,1.432-0.537,1.432-1.432V62.292
		c0-0.716-0.537-1.432-1.432-1.432c-0.896,0-1.433,0.537-1.433,1.432v13.604C107.221,76.791,107.937,77.328,108.653,77.328"/>
	<path clip-path="url(#SVGID_2_)" fill="#FFFFFF" d="M84.488,67.662c-0.716,0.358-0.895,1.253-0.537,1.79l6.981,11.635
		c0.179,0.358,0.716,0.716,1.074,0.716c0.179,0,0.537,0,0.716-0.179c0.716-0.358,0.895-1.253,0.537-1.79l-6.981-11.635
		C85.92,67.662,85.204,67.304,84.488,67.662"/>
	<path clip-path="url(#SVGID_2_)" fill="#FFFFFF" d="M67.304,85.204c-0.358,0.716-0.179,1.432,0.537,1.79l11.814,6.623
		c0.179,0.179,0.358,0.179,0.716,0.179c0.537,0,0.895-0.179,1.253-0.716c0.358-0.716,0.179-1.432-0.537-1.79l-11.814-6.623
		C68.557,84.309,67.662,84.488,67.304,85.204"/>
	<path clip-path="url(#SVGID_2_)" fill="#FFFFFF" d="M77.507,108.832c0-0.716-0.537-1.253-1.432-1.253H62.471
		c-0.716,0-1.432,0.537-1.253,1.432c0,0.716,0.537,1.253,1.432,1.253h13.604C76.791,110.085,77.507,109.548,77.507,108.832"/>
	<path clip-path="url(#SVGID_2_)" fill="#FFFFFF" d="M79.834,123.689l-11.635,6.98c-0.716,0.358-0.895,1.253-0.537,1.79
		c0.179,0.358,0.716,0.716,1.253,0.716c0.179,0,0.537,0,0.716-0.179l11.635-6.802c0.716-0.358,0.895-1.253,0.537-1.79
		C81.266,123.689,80.55,123.331,79.834,123.689"/>
	<path clip-path="url(#SVGID_2_)" fill="#FFFFFF" d="M93.08,135.683c-0.716-0.358-1.432-0.18-1.79,0.536l-6.802,11.636
		c-0.358,0.716-0.179,1.432,0.537,1.79c0.179,0.179,0.358,0.179,0.716,0.179c0.537,0,0.895-0.179,1.253-0.716l6.802-11.814
		C93.975,136.756,93.796,136.04,93.08,135.683"/>
	<path clip-path="url(#SVGID_2_)" fill="#FFFFFF" d="M124.226,135.683c-0.716,0.357-0.895,1.253-0.537,1.79l6.803,11.813
		c0.179,0.358,0.716,0.716,1.253,0.716c0.179,0,0.537,0,0.716-0.179c0.716-0.358,0.895-1.253,0.537-1.79l-6.802-11.814
		C125.658,135.503,124.763,135.324,124.226,135.683"/>
	<path clip-path="url(#SVGID_2_)" fill="#FFFFFF" d="M148.391,133.176c0.537,0,0.896-0.179,1.253-0.716
		c0.358-0.716,0.18-1.432-0.537-1.79l-11.635-6.802c-0.716-0.358-1.432-0.179-1.79,0.537c-0.357,0.716-0.179,1.432,0.537,1.79
		l11.635,6.802C148.033,133.176,148.212,133.176,148.391,133.176"/>
	<path clip-path="url(#SVGID_2_)" fill="#FFFFFF" d="M136.935,93.975c0.18,0,0.537,0,0.717-0.179l11.813-6.623
		c0.716-0.358,0.896-1.253,0.537-1.79c-0.358-0.716-1.253-0.895-1.79-0.537l-11.814,6.623c-0.716,0.358-0.895,1.253-0.536,1.79
		C136.04,93.617,136.577,93.975,136.935,93.975"/>
	<path clip-path="url(#SVGID_2_)" fill="#FFFFFF" d="M124.584,81.803c0.179,0.179,0.537,0.179,0.716,0.179
		c0.537,0,0.896-0.179,1.074-0.716l6.98-11.635c0.358-0.716,0.18-1.432-0.536-1.79c-0.717-0.358-1.433-0.179-1.79,0.537
		l-6.981,11.456C123.688,80.55,123.868,81.445,124.584,81.803"/>
	<path clip-path="url(#SVGID_2_)" fill="#FFFFFF" d="M139.083,108.116L139.083,108.116c-0.179-16.826-14.141-30.251-30.788-30.072
		c-16.826,0.179-30.251,13.962-30.072,30.788c0.179,15.215,11.456,27.566,25.776,29.714v7.16c-1.432,0.537-2.506,1.969-2.506,3.58
		v29.356c0,3.938,3.222,7.159,7.161,7.159c3.938,0,7.159-3.222,7.159-7.159v-29.178c0-1.61-1.073-3.043-2.506-3.58v-7.159
		C127.985,136.398,139.262,123.51,139.083,108.116 M112.054,148.212c0.716,0,1.074,0.537,1.074,1.074v22.017h-8.95v-21.838
		c0-0.716,0.537-1.073,1.074-1.073h6.802V148.212z M110.622,145.527h-3.759v-6.623h3.759V145.527z M108.653,183.117
		c-2.506,0-4.476-1.969-4.476-4.475v-4.654h8.95v4.654C113.128,181.148,111.159,183.117,108.653,183.117 M109.011,136.398
		c-15.394,0.179-27.924-12.172-28.103-27.387c-0.179-15.215,12.172-27.924,27.387-28.103h0.358
		c15.215,0,27.565,12.172,27.744,27.387C136.577,123.51,124.226,136.219,109.011,136.398"/>
	<path clip-path="url(#SVGID_2_)" fill="#FFFFFF" d="M124.047,92.722c-4.117-4.117-9.666-6.265-15.394-6.265h-0.358
		c-12.172,0.179-21.838,10.203-21.838,22.375c0.179,11.993,10.024,21.838,22.017,21.838h0.358c5.907,0,11.456-2.506,15.573-6.623
		c4.116-4.296,6.265-9.845,6.265-15.751C130.67,102.388,128.343,96.839,124.047,92.722 M108.832,127.985
		c-10.561,0.179-19.511-8.413-19.511-19.153c-0.179-10.74,8.413-19.511,19.153-19.511h0.18c5.012,0,9.845,1.969,13.425,5.549
		c3.759,3.58,5.728,8.413,5.907,13.604C128.164,119.035,119.572,127.807,108.832,127.985"/>
	<path clip-path="url(#SVGID_2_)" fill="#FFFFFF" d="M108.653,99.524c-5.012,0-9.129,4.117-9.129,9.129
		c0,5.012,4.117,9.129,9.129,9.129c5.012,0,9.129-4.117,9.129-9.129C117.782,103.641,113.665,99.524,108.653,99.524
		 M108.653,114.918c-3.581,0-6.444-2.864-6.444-6.444s2.864-6.444,6.444-6.444c3.579,0,6.443,2.864,6.443,6.444
		C114.918,112.054,112.232,114.918,108.653,114.918"/>
	<path clip-path="url(#SVGID_2_)" fill="#FFFFFF" d="M1.432,145.527c-0.716,0-1.432,0.537-1.432,1.432v18.616
		c0,0.716,0.537,1.432,1.432,1.432c0.716,0,1.432-0.537,1.432-1.432v-18.616C2.685,146.243,2.148,145.527,1.432,145.527"/>
	<path clip-path="url(#SVGID_2_)" fill="#FFFFFF" d="M1.432,170.408c-0.716,0-1.432,0.537-1.432,1.432v6.086
		c0,0.716,0.537,1.433,1.432,1.433c0.716,0,1.432-0.537,1.432-1.433v-6.086C2.685,170.945,2.148,170.408,1.432,170.408"/>
	<path clip-path="url(#SVGID_2_)" fill="#FFFFFF" d="M212.831,84.13c0.716,0,1.432-0.537,1.432-1.432V64.082
		c0-0.716-0.537-1.432-1.432-1.432c-0.716,0-1.433,0.537-1.433,1.432v18.616C211.578,83.414,212.115,84.13,212.831,84.13"/>
	<path clip-path="url(#SVGID_2_)" fill="#FFFFFF" d="M212.831,96.302c0.716,0,1.432-0.537,1.432-1.432v-6.086
		c0-0.716-0.537-1.432-1.432-1.432c-0.716,0-1.433,0.537-1.433,1.432v6.086C211.578,95.586,212.115,96.302,212.831,96.302"/>
	<path clip-path="url(#SVGID_2_)" fill="#FFFFFF" d="M182.938,26.492c0.18,0.179,0.537,0.358,0.896,0.358
		c0.357,0,0.716-0.179,0.895-0.358c0.537-0.537,0.537-1.432,0-1.969l-2.506-2.506c-0.537-0.537-1.432-0.537-1.969,0
		s-0.537,1.432,0,1.969L182.938,26.492z"/>
	<path clip-path="url(#SVGID_2_)" fill="#FFFFFF" d="M191.172,34.905c0.179,0.179,0.537,0.358,0.895,0.358
		c0.358,0,0.717-0.179,0.896-0.358c0.537-0.537,0.537-1.432,0-1.969l-2.506-2.506c-0.537-0.537-1.433-0.537-1.969,0
		c-0.537,0.537-0.537,1.432,0,1.969L191.172,34.905z"/>
	<path clip-path="url(#SVGID_2_)" fill="#FFFFFF" d="M181.327,35.263c0.357,0,0.716-0.179,0.895-0.358l2.506-2.506
		c0.537-0.537,0.537-1.432,0-1.969s-1.432-0.537-1.969,0l-2.506,2.506c-0.537,0.537-0.537,1.432,0,1.969
		C180.611,35.084,180.969,35.263,181.327,35.263"/>
	<path clip-path="url(#SVGID_2_)" fill="#FFFFFF" d="M189.561,27.029c0.358,0,0.717-0.179,0.896-0.358l2.506-2.506
		c0.537-0.537,0.537-1.432,0-1.969s-1.432-0.537-1.969,0l-2.506,2.506c-0.537,0.537-0.537,1.432,0,1.969
		C188.845,26.85,189.203,27.029,189.561,27.029"/>
	<path clip-path="url(#SVGID_2_)" fill="#FFFFFF" d="M38.127,11.993c0.179,0.179,0.537,0.358,0.895,0.358s0.716-0.179,0.895-0.358
		c0.537-0.537,0.537-1.432,0-1.969l-2.506-2.506c-0.537-0.537-1.432-0.537-1.969,0s-0.537,1.432,0,1.969L38.127,11.993z"/>
	<path clip-path="url(#SVGID_2_)" fill="#FFFFFF" d="M46.361,20.227c0.179,0.179,0.537,0.358,0.895,0.358s0.716-0.179,0.895-0.358
		c0.537-0.537,0.537-1.432,0-1.969l-2.506-2.506c-0.537-0.537-1.432-0.537-1.969,0c-0.537,0.537-0.537,1.432,0,1.969L46.361,20.227z
		"/>
	<path clip-path="url(#SVGID_2_)" fill="#FFFFFF" d="M36.516,20.585c0.358,0,0.716-0.179,0.895-0.358l2.506-2.506
		c0.537-0.537,0.537-1.432,0-1.969c-0.537-0.537-1.432-0.537-1.969,0l-2.506,2.506c-0.537,0.537-0.537,1.432,0,1.969
		C35.8,20.585,36.158,20.585,36.516,20.585"/>
	<path clip-path="url(#SVGID_2_)" fill="#FFFFFF" d="M44.75,12.351c0.358,0,0.716-0.179,0.895-0.358l2.506-2.506
		c0.537-0.537,0.537-1.432,0-1.969s-1.432-0.537-1.969,0l-2.327,2.506c-0.537,0.537-0.537,1.432,0,1.969
		C44.034,12.172,44.392,12.351,44.75,12.351"/>
	<path clip-path="url(#SVGID_2_)" fill="#FFFFFF" d="M21.48,198.869c-0.537-0.537-1.432-0.537-1.969,0
		c-0.537,0.537-0.537,1.432,0,1.969l2.506,2.506c0.179,0.18,0.537,0.358,0.895,0.358s0.716-0.179,0.895-0.358
		c0.537-0.537,0.537-1.432,0-1.969L21.48,198.869z"/>
	<path clip-path="url(#SVGID_2_)" fill="#FFFFFF" d="M29.714,207.104c-0.537-0.537-1.432-0.537-1.969,0
		c-0.537,0.536-0.537,1.432,0,1.969l2.506,2.506c0.179,0.179,0.537,0.358,0.895,0.358s0.716-0.18,0.895-0.358
		c0.537-0.537,0.537-1.432,0-1.969L29.714,207.104z"/>
	<path clip-path="url(#SVGID_2_)" fill="#FFFFFF" d="M22.017,207.104l-2.506,2.506c-0.537,0.537-0.537,1.432,0,1.969
		c0.179,0.179,0.537,0.358,0.895,0.358c0.358,0,0.716-0.18,0.895-0.358l2.506-2.506c0.537-0.537,0.537-1.433,0-1.969
		C23.449,206.566,22.554,206.566,22.017,207.104"/>
	<path clip-path="url(#SVGID_2_)" fill="#FFFFFF" d="M30.43,198.869l-2.506,2.506c-0.537,0.537-0.537,1.432,0,1.969
		c0.179,0.18,0.537,0.358,0.895,0.358s0.716-0.179,0.895-0.358l2.506-2.506c0.537-0.537,0.537-1.432,0-1.969
		C31.683,198.332,30.967,198.332,30.43,198.869"/>
	<path clip-path="url(#SVGID_2_)" fill="#FFFFFF" d="M30.251,44.392c3.222,0,5.728-2.506,5.728-5.728
		c0-3.222-2.506-5.728-5.728-5.728s-5.728,2.506-5.728,5.728C24.523,41.886,27.208,44.392,30.251,44.392 M30.251,35.621
		c1.611,0,3.043,1.432,3.043,3.043c0,1.611-1.432,3.043-3.043,3.043s-3.043-1.432-3.043-3.043
		C27.208,37.053,28.64,35.621,30.251,35.621"/>
	<path clip-path="url(#SVGID_2_)" fill="#FFFFFF" d="M214.263,151.971c0-3.222-2.506-5.728-5.728-5.728
		c-3.223,0-5.729,2.506-5.729,5.728c0,3.223,2.506,5.729,5.729,5.729C211.578,157.699,214.263,155.015,214.263,151.971
		 M205.492,151.971c0-1.61,1.432-3.043,3.043-3.043c1.61,0,3.043,1.433,3.043,3.043c0,1.611-1.433,3.044-3.043,3.044
		C206.924,154.835,205.492,153.582,205.492,151.971"/>
	<path clip-path="url(#SVGID_2_)" fill="#FFFFFF" d="M127.806,2.864h20.228c0.716,0,1.432-0.537,1.432-1.432
		c0-0.716-0.537-1.432-1.432-1.432h-20.228c-0.716,0-1.432,0.537-1.432,1.432C126.553,2.327,127.09,2.864,127.806,2.864"/>
	<path clip-path="url(#SVGID_2_)" fill="#FFFFFF" d="M154.656,2.864h6.623c0.716,0,1.432-0.537,1.432-1.432
		c0-0.716-0.537-1.432-1.432-1.432h-6.623c-0.717,0-1.433,0.537-1.433,1.432C153.403,2.327,153.939,2.864,154.656,2.864"/>
	<path clip-path="url(#SVGID_2_)" fill="#FFFFFF" d="M161.279,7.16h-14.142c-0.716,0-1.432,0.537-1.432,1.432
		c0,0.716,0.537,1.432,1.432,1.432h14.142c0.716,0,1.432-0.537,1.432-1.432S161.995,7.16,161.279,7.16"/>
	<path clip-path="url(#SVGID_2_)" fill="#FFFFFF" d="M136.577,7.16c-0.716,0-1.433,0.537-1.433,1.432
		c0,0.716,0.537,1.432,1.433,1.432h4.475c0.716,0,1.433-0.537,1.433-1.432c0-0.716-0.537-1.432-1.433-1.432H136.577z"/>
	<path clip-path="url(#SVGID_2_)" fill="#FFFFFF" d="M213.726,203.165h-20.227c-0.716,0-1.433,0.537-1.433,1.432
		c0,0.717,0.537,1.433,1.433,1.433h20.227c0.716,0,1.433-0.537,1.433-1.433C215.158,203.881,214.621,203.165,213.726,203.165"/>
	<path clip-path="url(#SVGID_2_)" fill="#FFFFFF" d="M186.876,203.165h-6.623c-0.716,0-1.432,0.537-1.432,1.432
		c0,0.717,0.536,1.433,1.432,1.433h6.623c0.716,0,1.432-0.537,1.432-1.433C188.308,203.881,187.771,203.165,186.876,203.165"/>
	<path clip-path="url(#SVGID_2_)" fill="#FFFFFF" d="M180.432,196.363c-0.716,0-1.432,0.537-1.432,1.432
		c0,0.716,0.537,1.433,1.432,1.433h14.142c0.716,0,1.432-0.537,1.432-1.433c0-0.716-0.537-1.432-1.432-1.432H180.432z"/>
	<path clip-path="url(#SVGID_2_)" fill="#FFFFFF" d="M200.479,196.363c-0.716,0-1.432,0.537-1.432,1.432
		c0,0.716,0.537,1.433,1.432,1.433h4.476c0.716,0,1.432-0.537,1.432-1.433c0-0.716-0.537-1.432-1.432-1.432H200.479z"/>
	<path clip-path="url(#SVGID_2_)" fill="#FFFFFF" d="M175.957,173.272l18.974,8.055c0.18,0,0.358,0.179,0.537,0.179
		c0.537,0,0.896-0.179,1.253-0.716l6.981-12.172c0.357-0.537,0.179-1.253-0.358-1.79l-16.468-12.351
		c2.864-6.981,4.833-14.142,5.728-21.659l20.406-2.506c0.716,0,1.253-0.717,1.253-1.254v-14.141c0-0.716-0.537-1.253-1.253-1.253
		l-20.406-2.506c-0.895-7.518-2.863-14.678-5.728-21.659l16.468-12.351c0.537-0.358,0.716-1.074,0.358-1.79l-6.981-12.172
		c-0.357-0.537-1.074-0.895-1.61-0.537l-18.975,8.055c-4.654-5.907-9.845-11.277-15.931-15.752l8.055-18.974
		c0.179-0.716,0-1.432-0.537-1.611l-12.172-6.981c-0.537-0.358-1.253-0.179-1.79,0.358L141.41,44.213
		c-6.803-2.864-14.142-4.833-21.48-5.728l-2.506-20.406c0-0.716-0.716-1.253-1.253-1.253H102.03c-0.716,0-1.253,0.537-1.253,1.253
		l-2.506,20.406c-7.518,0.895-14.678,2.864-21.659,5.728L64.261,27.745c-0.358-0.537-1.074-0.716-1.79-0.358l-12.172,6.981
		c-0.537,0.358-0.895,1.074-0.537,1.611l7.518,18.795c-5.907,4.654-11.277,9.845-15.931,15.931L22.375,62.65
		c-0.716-0.179-1.432,0-1.611,0.537l-6.981,12.172c-0.358,0.537-0.179,1.432,0.358,1.79L30.609,89.5
		c-2.864,6.981-4.833,14.141-5.728,21.659l-20.585,2.506c-0.716,0-1.253,0.716-1.253,1.253v14.141c0,0.717,0.537,1.254,1.253,1.254
		l20.406,2.506c0.895,7.518,2.864,14.678,5.728,21.659l-16.468,12.351c-0.537,0.358-0.716,1.074-0.358,1.79l6.981,12.172
		c0.179,0.358,0.716,0.716,1.253,0.716c0.179,0,0.358,0,0.537-0.179l18.974-8.055c4.654,5.906,9.845,11.276,15.931,15.931
		l-8.055,18.974c-0.179,0.717,0,1.433,0.537,1.611l12.172,6.981c0.179,0.179,0.358,0.179,0.716,0.179s0.895-0.179,1.074-0.537
		l12.351-16.468c6.981,2.863,14.32,4.833,21.659,5.728l2.506,20.406c0,0.716,0.716,1.253,1.253,1.253h14.141
		c0.716,0,1.253-0.537,1.253-1.253l2.506-20.406c7.519-0.895,14.857-2.864,21.659-5.907l12.352,16.469
		c0.179,0.357,0.716,0.537,1.073,0.537c0.18,0,0.537,0,0.717-0.18l12.172-6.98c0.537-0.358,0.895-1.074,0.537-1.611l-8.056-18.974
		C166.112,184.549,171.481,179.179,175.957,173.272 M194.931,178.284l-17.184-7.339c0.357-0.537,0.895-1.253,1.253-1.79
		c0.357-0.358,0.537-0.716,0.895-1.253c0.896-1.253,1.611-2.506,2.327-3.938c0.716-1.253,1.433-2.685,2.148-3.938
		c0.179-0.358,0.357-0.896,0.716-1.253c0.358-0.717,0.716-1.253,0.895-1.97l15.036,11.277L194.931,178.284z M211.578,115.992v11.635
		l-18.616,2.327c0-0.716,0.179-1.432,0.179-2.148c0-0.536,0-0.895,0.18-1.432c0-1.432,0.179-3.043,0.179-4.475
		c0-1.611,0-3.043-0.179-4.654c0-0.537,0-1.074-0.18-1.432c0-0.717,0-1.433-0.179-2.148L211.578,115.992z M194.752,65.335
		l5.907,10.203l-14.857,11.277c-0.357-0.716-0.537-1.253-0.895-1.969c-0.18-0.358-0.358-0.895-0.717-1.253
		c-0.716-1.432-1.432-2.685-2.147-3.938c-0.716-1.253-1.611-2.506-2.327-3.759c-0.179-0.358-0.537-0.716-0.895-1.253
		c-0.358-0.537-0.717-1.253-1.253-1.79L194.752,65.335z M154.835,29.893l10.203,5.907l-7.339,17.184
		c-0.537-0.358-1.253-0.716-1.79-1.253c-0.358-0.358-0.896-0.537-1.253-0.895c-1.253-0.895-2.507-1.611-3.76-2.327
		c-1.253-0.716-2.685-1.432-3.938-2.148c-0.358-0.179-0.896-0.358-1.253-0.716c-0.716-0.358-1.253-0.716-1.969-0.895L154.835,29.893
		z M102.746,19.153h11.813l2.327,18.616c-0.716,0-1.432-0.179-2.147-0.179c-0.537,0-0.896,0-1.433-0.179
		c-3.043-0.179-6.086-0.179-9.129,0c-0.537,0-0.895,0-1.432,0.179c-0.716,0-1.432,0-2.148,0.179L102.746,19.153z M62.292,29.893
		l11.277,15.036c-0.716,0.358-1.253,0.537-1.969,0.895c-0.358,0.179-0.895,0.358-1.253,0.716c-2.685,1.432-5.37,2.864-7.876,4.475
		c-0.358,0.179-0.716,0.537-1.253,0.716c-0.537,0.358-1.253,0.716-1.79,1.253L52.089,35.8L62.292,29.893z M22.554,65.514
		l17.184,7.339c-0.358,0.537-0.716,1.253-1.253,1.79c-0.358,0.358-0.537,0.716-0.895,1.253c-0.895,1.253-1.611,2.506-2.327,3.759
		c-0.716,1.253-1.432,2.685-2.148,3.938c-0.179,0.358-0.358,0.895-0.716,1.253c-0.358,0.716-0.716,1.253-0.895,1.969L16.468,75.538
		L22.554,65.514z M5.728,127.806v-11.813l18.616-2.148c0,0.716-0.179,1.432-0.179,2.148c0,0.537,0,0.895-0.179,1.432
		c0,1.433-0.179,3.043-0.179,4.476c0,1.61,0,3.043,0.179,4.653c0,0.537,0,0.896,0.179,1.433c0,0.716,0,1.432,0.179,2.147
		L5.728,127.806z M22.554,178.463l-5.907-10.203l15.036-11.276c0.358,0.716,0.537,1.253,0.895,1.969
		c0.179,0.358,0.358,0.895,0.537,1.253c1.432,2.685,2.864,5.37,4.475,7.876c0.179,0.358,0.537,0.716,0.716,1.253
		c0.358,0.537,0.716,1.253,1.253,1.79L22.554,178.463z M62.292,213.905l-10.203-5.907l7.339-17.184
		c0.537,0.357,1.253,0.716,1.79,1.253c0.358,0.357,0.716,0.537,1.253,0.895c1.253,0.896,2.506,1.611,3.759,2.327
		s2.685,1.432,3.938,2.148c0.358,0.179,0.895,0.357,1.253,0.716c0.716,0.357,1.253,0.716,1.969,0.895L62.292,213.905z
		 M114.56,224.824h-11.813l-2.327-18.616c0.716,0,1.432,0.179,1.969,0.179c0.537,0,1.074,0,1.611,0.18
		c1.253,0,2.506,0.179,3.938,0.179h0.537c1.611,0,3.043,0,4.476-0.179c0.537,0,0.895,0,1.432-0.18c0.716,0,1.432,0,2.148-0.179
		L114.56,224.824z M155.014,213.905l-11.276-14.857c0.716-0.357,1.253-0.537,1.969-0.895c0.357-0.18,0.895-0.358,1.253-0.716
		c1.253-0.717,2.685-1.433,3.938-2.148s2.686-1.611,3.938-2.327c0.358-0.179,0.716-0.537,1.253-0.895
		c0.537-0.358,1.253-0.716,1.79-1.253l7.339,17.184L155.014,213.905z M157.699,187.592c-5.191,3.76-10.562,6.981-16.469,9.487
		c-7.339,3.222-15.035,5.191-22.911,6.086c-3.043,0.358-6.266,0.537-9.487,0.537c-1.611,0-3.222,0-4.833-0.179
		c-1.611-0.18-3.222-0.18-4.833-0.358c-7.876-0.895-15.573-3.043-22.912-6.086c-2.327-1.074-4.654-2.148-6.981-3.401
		c-0.537-0.357-1.074-0.537-1.432-0.895l-0.179-0.179c-1.79-1.074-3.401-2.148-5.012-3.223c-0.895-0.537-1.79-1.253-2.685-1.79
		c-6.444-4.653-11.993-10.382-16.826-16.826c-3.759-5.19-6.981-10.561-9.487-16.468c-3.222-7.339-5.191-15.036-6.086-22.912
		c-0.179-1.61-0.358-3.222-0.358-4.653c-0.179-1.611-0.179-3.223-0.179-4.833c0-3.223,0.179-6.444,0.537-9.487
		c0.895-7.876,3.043-15.752,6.086-22.912c1.79-3.938,3.759-7.697,6.086-11.277c0.179-0.358,0.537-0.895,0.716-1.253
		c0.895-1.253,1.79-2.685,2.685-3.938c4.833-6.444,10.382-11.993,16.826-16.826c1.253-0.895,2.506-1.79,3.938-2.685
		c1.969-1.253,4.117-2.506,6.086-3.58c0.716-0.358,1.432-0.716,2.148-1.074c1.432-0.716,2.864-1.432,4.296-1.969
		c7.339-3.222,15.036-5.191,22.912-6.086c6.086-0.716,12.53-0.716,18.616,0h0.537c7.876,0.895,15.573,2.864,22.912,6.086
		c1.432,0.716,2.863,1.253,4.296,1.969c4.296,2.148,8.413,4.654,12.172,7.518c6.444,4.833,11.993,10.382,16.826,16.826
		c3.759,5.012,6.98,10.561,9.486,16.468c3.223,7.339,5.191,15.036,6.087,22.912c0.357,3.042,0.536,6.265,0.536,9.666
		c0,3.043-0.179,6.266-0.536,9.487c-0.896,7.876-3.043,15.573-6.087,22.912c-2.506,5.907-5.728,11.456-9.486,16.468
		C169.691,177.21,164.143,182.938,157.699,187.592"/>
	<path clip-path="url(#SVGID_2_)" fill="#FFFFFF" d="M158.772,172.735c-3.4,3.222-6.98,6.265-10.919,8.95
		c-0.537,0.357-0.716,1.253-0.357,1.789c0.179,0.358,0.716,0.537,1.074,0.537c0.179,0,0.536,0,0.716-0.179
		c4.117-2.685,7.876-5.728,11.276-9.129c0.537-0.537,0.537-1.432,0-1.969C160.205,172.198,159.31,172.198,158.772,172.735"/>
	<path clip-path="url(#SVGID_2_)" fill="#FFFFFF" d="M48.688,160.384c-0.358-0.537-1.253-0.895-1.79-0.357
		c-0.537,0.357-0.895,1.253-0.358,1.79c2.685,4.116,5.728,7.876,9.129,11.456c0.179,0.357,0.537,0.357,0.895,0.357
		s0.716-0.179,0.895-0.357c0.537-0.537,0.537-1.433,0-1.97C54.058,168.081,51.194,164.322,48.688,160.384"/>
	<path clip-path="url(#SVGID_2_)" fill="#FFFFFF" d="M71.242,59.607c-0.358-0.716-1.253-0.895-1.79-0.358
		c-4.117,2.506-8.055,5.549-11.635,8.95c-0.537,0.537-0.537,1.432,0,1.969c0.179,0.358,0.537,0.358,0.895,0.358
		s0.716-0.179,0.895-0.358c3.401-3.222,7.16-6.086,11.098-8.592C71.421,61.039,71.6,60.323,71.242,59.607"/>
	<path clip-path="url(#SVGID_2_)" fill="#FFFFFF" d="M107.758,193.32c-4.654,0-9.487-0.537-13.962-1.611
		c-0.716-0.179-1.432,0.358-1.611,1.074c-0.179,0.716,0.358,1.432,1.074,1.611c4.833,1.073,9.666,1.61,14.499,1.61
		c0.716,0,1.253-0.537,1.432-1.253C109.189,193.857,108.653,193.32,107.758,193.32"/>
	<path clip-path="url(#SVGID_2_)" fill="#FFFFFF" d="M80.371,187.413c-4.296-1.79-8.413-4.117-12.351-6.802
		c-0.537-0.358-1.432-0.358-1.79,0.357c-0.358,0.537-0.358,1.433,0.358,1.79c3.938,2.864,8.234,5.191,12.709,7.16
		c0.179,0,0.358,0.179,0.537,0.179c0.537,0,1.074-0.357,1.253-0.895C81.445,188.487,81.087,187.771,80.371,187.413"/>
	<path clip-path="url(#SVGID_2_)" fill="#FFFFFF" d="M176.314,148.749c-0.716-0.357-1.432,0-1.79,0.716
		c-1.789,4.296-4.116,8.413-6.622,12.352c-0.358,0.537-0.18,1.432,0.357,1.79c0.179,0.179,0.537,0.179,0.716,0.179
		c0.358,0,0.896-0.179,1.074-0.537c2.686-4.117,5.012-8.413,6.981-12.888C177.21,149.823,176.852,148.928,176.314,148.749"/>
	<path clip-path="url(#SVGID_2_)" fill="#FFFFFF" d="M135.324,188.129c-4.296,1.79-8.95,3.043-13.426,3.938
		c-0.716,0.179-1.253,0.895-1.073,1.61c0.179,0.717,0.716,1.074,1.253,1.074h0.179c4.833-0.895,9.487-2.327,13.962-4.117
		c0.716-0.357,1.074-1.073,0.716-1.79C136.756,188.129,136.04,187.771,135.324,188.129"/>
	<path clip-path="url(#SVGID_2_)" fill="#FFFFFF" d="M170.766,85.562c0.18,0,0.537,0,0.716-0.179
		c0.717-0.358,0.896-1.253,0.537-1.79c-2.506-4.117-5.549-8.055-8.771-11.635c-0.537-0.537-1.433-0.537-1.969,0
		c-0.537,0.537-0.537,1.432,0,1.969c3.222,3.401,6.086,7.16,8.412,11.277C169.871,85.204,170.229,85.562,170.766,85.562"/>
	<path clip-path="url(#SVGID_2_)" fill="#FFFFFF" d="M83.056,55.311h0.537c4.475-1.611,8.95-2.864,13.604-3.58
		c0.716-0.179,1.253-0.895,1.074-1.611c-0.179-0.716-0.895-1.253-1.611-1.074c-4.833,0.716-9.487,1.969-14.141,3.759
		c-0.716,0.179-1.074,1.074-0.716,1.79C81.982,54.953,82.519,55.311,83.056,55.311"/>
	<path clip-path="url(#SVGID_2_)" fill="#FFFFFF" d="M50.12,78.939c-0.537-0.358-1.432-0.358-1.79,0.358
		c-2.864,3.938-5.191,8.234-7.16,12.709c-0.358,0.716,0,1.432,0.716,1.79c0.179,0,0.358,0.179,0.537,0.179
		c0.537,0,1.074-0.358,1.253-0.716c1.969-4.296,4.296-8.413,6.981-12.172C50.836,80.192,50.836,79.297,50.12,78.939"/>
	<path clip-path="url(#SVGID_2_)" fill="#FFFFFF" d="M179.179,111.159c0.179,0.716,0.716,1.074,1.253,1.074h0.18
		c0.716-0.179,1.253-0.716,1.073-1.611c-0.716-4.833-1.969-9.666-3.58-14.141c-0.179-0.716-1.073-1.074-1.79-0.716
		c-0.716,0.179-1.073,1.074-0.716,1.79C177.21,102.03,178.463,106.505,179.179,111.159"/>
	<path clip-path="url(#SVGID_2_)" fill="#FFFFFF" d="M111.159,50.657c4.653,0.179,9.486,0.716,13.962,1.79h0.357
		c0.537,0,1.253-0.358,1.253-1.074c0.18-0.716-0.357-1.432-1.073-1.611c-4.654-1.074-9.666-1.79-14.499-1.969
		c-0.716,0-1.433,0.537-1.433,1.253C109.727,50.12,110.443,50.657,111.159,50.657"/>
	<path clip-path="url(#SVGID_2_)" fill="#FFFFFF" d="M138.367,57.101c4.296,1.969,8.413,4.296,12.172,7.16
		c0.179,0.179,0.537,0.179,0.716,0.179c0.358,0,0.895-0.179,1.074-0.537c0.357-0.537,0.357-1.432-0.358-1.969
		c-3.938-2.864-8.233-5.37-12.53-7.339c-0.716-0.358-1.432,0-1.789,0.716C137.472,56.027,137.651,56.743,138.367,57.101"/>
	<path clip-path="url(#SVGID_2_)" fill="#FFFFFF" d="M38.485,134.429c-0.179-0.716-0.895-1.253-1.611-1.073
		c-0.716,0.179-1.253,0.895-1.074,1.61c0.895,4.833,2.148,9.487,3.938,14.142c0.179,0.537,0.716,0.895,1.253,0.895
		c0.179,0,0.358,0,0.537-0.179c0.716-0.358,1.074-1.074,0.716-1.79C40.454,143.559,39.201,138.904,38.485,134.429"/>
	<path clip-path="url(#SVGID_2_)" fill="#FFFFFF" d="M179.895,121.899c0,4.653-0.537,9.486-1.432,13.962
		c-0.179,0.716,0.358,1.432,1.074,1.611h0.179c0.716,0,1.253-0.358,1.253-1.074c0.896-4.833,1.433-9.666,1.433-14.499
		c0-0.716-0.537-1.433-1.433-1.433C180.611,120.646,179.895,121.184,179.895,121.899"/>
	<path clip-path="url(#SVGID_2_)" fill="#FFFFFF" d="M35.979,121.541c0.716,0,1.253-0.537,1.432-1.253
		c0.179-4.654,0.716-9.487,1.611-13.962c0.179-0.716-0.358-1.432-1.074-1.611c-0.716-0.179-1.432,0.358-1.611,1.074
		c-1.074,4.654-1.611,9.666-1.79,14.499C34.726,121.004,35.263,121.541,35.979,121.541"/>
</g>
</svg>
