<?xml version="1.0" encoding="utf-8"?>
<!-- Generator: Adobe Illustrator 16.0.0, SVG Export Plug-In . SVG Version: 6.00 Build 0)  -->
<!DOCTYPE svg PUBLIC "-//W3C//DTD SVG 1.1//EN" "http://www.w3.org/Graphics/SVG/1.1/DTD/svg11.dtd">
<svg version="1.1" id="Layer_1" xmlns="http://www.w3.org/2000/svg" xmlns:xlink="http://www.w3.org/1999/xlink" x="0px" y="0px"
	 width="32.107px" height="20.896px" viewBox="0 0 32.107 20.896" enable-background="new 0 0 32.107 20.896" xml:space="preserve">
<g>
	<defs>
		<rect id="SVGID_1_" y="0" width="32.108" height="20.895"/>
	</defs>
	<clipPath id="SVGID_2_">
		<use xlink:href="#SVGID_1_"  overflow="visible"/>
	</clipPath>
	<path clip-path="url(#SVGID_2_)" fill="#272525" d="M26.459,2.302l-0.001-0.124h-0.564c-0.208-0.507-0.954-1.122-4.079-1.608
		C19.457,0.202,16.331,0,13.012,0C9.692,0,6.566,0.202,4.21,0.57C1.051,1.062,0.316,1.686,0.12,2.203L0.005,2.208L0,2.903
		c0,4.581,1.692,8.885,4.654,11.86c-2.34,0.632-3.526,1.502-3.526,2.589c0,2.804,7.918,3.544,12.105,3.544
		c4.186,0,12.104-0.74,12.104-3.544c0-1.088-1.188-1.959-3.531-2.591c0.166-0.165,0.317-0.324,0.46-0.479
		c0.822,0.131,1.605,0.197,2.326,0.197c2.184,0,3.959-0.559,5.277-1.66c1.464-1.226,2.239-3.043,2.239-5.259
		C32.108,4.167,29.099,2.616,26.459,2.302 M26.313,5.241c1.081,0.301,2.283,0.985,2.283,2.537c0,1.27-0.426,2.297-1.228,2.968
		c-0.771,0.644-1.851,0.954-3.215,0.943C25.274,9.762,26.018,7.542,26.313,5.241 M13.012,1.304c6.171,0,10.419,0.701,11.481,1.266
		c-1.062,0.565-5.31,1.266-11.481,1.266c-6.171,0-10.42-0.701-11.481-1.266C2.592,2.005,6.841,1.304,13.012,1.304 M24.033,17.352
		c0,0.789-4.101,2.239-10.8,2.239c-6.7,0-10.801-1.45-10.801-2.239c0-0.318,0.906-0.988,3.393-1.537
		c2.194,1.754,4.753,2.679,7.407,2.679c2.648,0,5.205-0.926,7.4-2.681C23.126,16.362,24.033,17.032,24.033,17.352 M13.232,17.188
		c-6.279,0-11.463-5.823-11.895-13.307C2.008,4.149,2.952,4.375,4.21,4.57c2.356,0.368,5.482,0.57,8.802,0.57
		c3.319,0,6.445-0.202,8.802-0.57c1.568-0.244,2.663-0.538,3.328-0.895C24.807,11.277,19.622,17.188,13.232,17.188 M29.032,11.818
		c-1.322,1.104-3.323,1.545-5.797,1.279c0.036-0.049,0.071-0.098,0.105-0.146c0.352,0.031,0.641,0.048,0.904,0.048
		c0.205,0,0.404-0.007,0.599-0.021c1.363-0.092,2.492-0.506,3.361-1.231c0.831-0.696,1.369-1.641,1.586-2.775
		C29.864,8.594,29.9,8.195,29.9,7.778c0-2.666-2.324-3.572-3.468-3.857c0.006-0.098,0.011-0.196,0.014-0.293
		c0.518,0.078,1.225,0.232,1.929,0.536c1.611,0.695,2.428,1.838,2.428,3.396C30.803,9.377,30.191,10.849,29.032,11.818"/>
</g>
</svg>
