<?xml version="1.0" encoding="utf-8"?>
<!-- Generator: Adobe Illustrator 16.0.0, SVG Export Plug-In . SVG Version: 6.00 Build 0)  -->
<!DOCTYPE svg PUBLIC "-//W3C//DTD SVG 1.1//EN" "http://www.w3.org/Graphics/SVG/1.1/DTD/svg11.dtd">
<svg version="1.1" id="Layer_1" xmlns="http://www.w3.org/2000/svg" xmlns:xlink="http://www.w3.org/1999/xlink" x="0px" y="0px"
	 width="35.933px" height="26.271px" viewBox="0 0 35.933 26.271" enable-background="new 0 0 35.933 26.271" xml:space="preserve">
<g>
	<defs>
		<rect id="SVGID_1_" y="0" width="35.933" height="26.271"/>
	</defs>
	<clipPath id="SVGID_2_">
		<use xlink:href="#SVGID_1_"  overflow="visible"/>
	</clipPath>
	<path clip-path="url(#SVGID_2_)" fill="#272525" d="M6.252,18.62V9.489c0-0.304-0.247-0.551-0.551-0.551H0.552
		C0.247,8.938,0,9.186,0,9.489v9.131c0,0.306,0.247,0.553,0.552,0.553h5.149C6.005,19.173,6.252,18.926,6.252,18.62 M5.149,18.068
		H1.103v-8.027h4.046V18.068z"/>
	<path clip-path="url(#SVGID_2_)" fill="#272525" d="M17.652,0.141L7.631,9.078C7.514,9.183,7.447,9.333,7.447,9.49v9.13
		c0,0.184,0.091,0.354,0.243,0.456l10.019,6.791c0.094,0.063,0.201,0.096,0.311,0.096c0.088,0,0.177-0.022,0.258-0.065
		c0.181-0.095,0.294-0.283,0.294-0.487V0.552c0-0.217-0.128-0.414-0.327-0.503C18.046-0.041,17.814-0.005,17.652,0.141
		 M17.468,24.37l-8.917-6.043v-8.59l8.917-7.954V24.37z"/>
	<path clip-path="url(#SVGID_2_)" fill="#272525" d="M28.153,24.618c0,0.433,0.167,0.842,0.469,1.152
		c0.323,0.333,0.755,0.501,1.188,0.501c0.416,0,0.832-0.155,1.152-0.467c3.205-3.114,4.971-7.288,4.971-11.749
		c0-4.463-1.766-8.636-4.971-11.75c-0.654-0.636-1.704-0.622-2.34,0.034c-0.636,0.654-0.621,1.704,0.033,2.34
		c2.558,2.486,3.967,5.815,3.967,9.376c0,3.56-1.409,6.889-3.967,9.375C28.332,23.745,28.153,24.166,28.153,24.618 M29.424,24.222
		c2.774-2.695,4.302-6.305,4.302-10.166c0-3.862-1.527-7.472-4.3-10.167c-0.22-0.212-0.225-0.562-0.013-0.78
		c0.108-0.111,0.252-0.167,0.396-0.167c0.138,0,0.276,0.052,0.385,0.156c2.988,2.904,4.635,6.795,4.635,10.958
		c0,4.162-1.646,8.053-4.635,10.958c-0.219,0.21-0.569,0.205-0.781-0.012c-0.1-0.104-0.156-0.24-0.156-0.384
		C29.257,24.467,29.317,24.327,29.424,24.222"/>
	<path clip-path="url(#SVGID_2_)" fill="#272525" d="M21.644,20.752c0,0.428,0.163,0.834,0.458,1.143
		c0.306,0.32,0.717,0.503,1.159,0.513c0.013,0,0.025,0,0.039,0c0.428,0,0.832-0.162,1.142-0.458
		c2.179-2.082,3.379-4.885,3.379-7.895c0-3.009-1.2-5.811-3.379-7.893c-0.319-0.306-0.747-0.467-1.181-0.458
		c-0.442,0.009-0.854,0.191-1.159,0.511c-0.305,0.32-0.468,0.739-0.458,1.181c0.01,0.441,0.192,0.853,0.512,1.159
		c1.519,1.451,2.355,3.405,2.355,5.5c0,2.097-0.837,4.049-2.355,5.5C21.83,19.866,21.644,20.302,21.644,20.752 M22.918,20.353
		c1.738-1.66,2.695-3.897,2.695-6.298c0-2.4-0.957-4.636-2.695-6.298c-0.107-0.102-0.167-0.239-0.172-0.386
		c-0.003-0.148,0.052-0.288,0.153-0.394c0.103-0.106,0.239-0.167,0.386-0.17c0.004-0.001,0.01-0.001,0.014-0.001
		c0.143,0,0.276,0.055,0.381,0.154c1.959,1.871,3.038,4.391,3.038,7.095c0,2.704-1.079,5.225-3.038,7.097
		c-0.107,0.101-0.248,0.163-0.395,0.151c-0.146-0.003-0.283-0.063-0.386-0.17c-0.098-0.103-0.153-0.238-0.153-0.381
		C22.746,20.6,22.808,20.458,22.918,20.353"/>
</g>
</svg>
