<?xml version="1.0" encoding="utf-8"?>
<!-- Generator: Adobe Illustrator 16.0.0, SVG Export Plug-In . SVG Version: 6.00 Build 0)  -->
<!DOCTYPE svg PUBLIC "-//W3C//DTD SVG 1.1//EN" "http://www.w3.org/Graphics/SVG/1.1/DTD/svg11.dtd">
<svg version="1.1" id="Layer_1" xmlns="http://www.w3.org/2000/svg" xmlns:xlink="http://www.w3.org/1999/xlink" x="0px" y="0px"
	 width="42.91px" height="39.825px" viewBox="0 0 42.91 39.825" enable-background="new 0 0 42.91 39.825" xml:space="preserve">
<g>
	<defs>
		<rect id="SVGID_1_" width="42.91" height="39.825"/>
	</defs>
	<clipPath id="SVGID_2_">
		<use xlink:href="#SVGID_1_"  overflow="visible"/>
	</clipPath>
	<path clip-path="url(#SVGID_2_)" fill="#272525" d="M24.716,15.963c1.028-0.909,1.682-2.235,1.682-3.714
		c0-2.735-2.225-4.96-4.96-4.96c-2.735,0-4.96,2.225-4.96,4.96c0,1.479,0.653,2.805,1.682,3.714v23.082
		c0,0.431,0.35,0.779,0.781,0.779h4.995c0.431,0,0.78-0.349,0.78-0.779V15.963z M19.721,38.264V16.897
		c0.536,0.198,1.113,0.312,1.717,0.312c0.605,0,1.181-0.114,1.717-0.312v21.366H19.721z M21.438,8.85c1.874,0,3.4,1.525,3.4,3.399
		c0,1.875-1.526,3.4-3.4,3.4s-3.399-1.525-3.399-3.4C18.039,10.375,19.563,8.85,21.438,8.85"/>
	<path clip-path="url(#SVGID_2_)" fill="#272525" d="M36.824,0c-0.454,0.007-0.879,0.19-1.195,0.516
		c-0.654,0.671-0.638,1.75,0.034,2.405c2.479,2.409,3.845,5.636,3.845,9.087c0,3.451-1.365,6.679-3.844,9.086
		c-0.334,0.322-0.516,0.757-0.516,1.221c0,0.444,0.171,0.866,0.48,1.185c0.316,0.326,0.741,0.509,1.195,0.516h0.024
		c0.445,0,0.865-0.17,1.187-0.48c3.143-3.055,4.875-7.149,4.875-11.527c0-4.379-1.732-8.472-4.875-11.527
		C37.708,0.164,37.276,0.005,36.824,0 M36.849,22.768h-0.007c-0.121-0.002-0.233-0.051-0.317-0.138
		c-0.082-0.085-0.128-0.195-0.128-0.314c0-0.124,0.049-0.239,0.137-0.324c2.724-2.646,4.224-6.192,4.224-9.983
		s-1.5-7.337-4.223-9.982c-0.179-0.174-0.185-0.462-0.01-0.64c0.084-0.087,0.196-0.136,0.317-0.137c0.003,0,0.005,0,0.007,0
		c0.118,0,0.23,0.045,0.314,0.128c2.901,2.817,4.498,6.593,4.498,10.631c0,4.038-1.597,7.813-4.498,10.631
		C37.079,22.722,36.967,22.768,36.849,22.768"/>
	<path clip-path="url(#SVGID_2_)" fill="#272525" d="M28.795,18.543c0,0.44,0.166,0.857,0.47,1.175
		c0.314,0.328,0.737,0.515,1.191,0.526h0.04c0.44,0,0.856-0.167,1.174-0.471c2.144-2.048,3.324-4.806,3.324-7.765
		c0-2.96-1.181-5.718-3.324-7.765c-0.328-0.314-0.76-0.482-1.214-0.471c-0.454,0.01-0.877,0.197-1.191,0.525
		c-0.313,0.329-0.479,0.76-0.47,1.214c0.01,0.455,0.197,0.878,0.525,1.191c1.465,1.4,2.271,3.284,2.271,5.306
		c0,2.021-0.807,3.905-2.271,5.305C28.986,17.631,28.795,18.081,28.795,18.543 M30.183,18.216c1.715-1.638,2.658-3.843,2.658-6.208
		c0-2.366-0.943-4.571-2.658-6.209c-0.088-0.083-0.137-0.196-0.14-0.316c-0.003-0.121,0.042-0.236,0.125-0.323
		c0.084-0.087,0.196-0.137,0.317-0.14h0.011c0.116,0,0.227,0.044,0.312,0.126c1.895,1.809,2.938,4.246,2.938,6.862
		c0,2.615-1.044,5.052-2.939,6.862c-0.086,0.084-0.192,0.129-0.321,0.125c-0.121-0.003-0.234-0.052-0.317-0.14
		c-0.08-0.084-0.125-0.195-0.125-0.312C30.043,18.418,30.093,18.302,30.183,18.216"/>
	<path clip-path="url(#SVGID_2_)" fill="#272525" d="M6.061,24.015c0.444,0,0.887-0.172,1.22-0.515
		c0.31-0.318,0.481-0.74,0.481-1.185c0-0.464-0.183-0.897-0.515-1.221c-2.48-2.409-3.845-5.636-3.845-9.086
		c0-3.451,1.365-6.678,3.845-9.087c0.672-0.655,0.688-1.734,0.034-2.405C6.627-0.157,5.548-0.172,4.875,0.481
		C1.731,3.536,0,7.63,0,12.008c0,4.378,1.731,8.472,4.875,11.527C5.206,23.855,5.633,24.015,6.061,24.015 M6.061,1.249
		c0.118,0,0.236,0.046,0.325,0.137C6.56,1.564,6.555,1.851,6.377,2.025c-2.724,2.646-4.224,6.192-4.224,9.983s1.5,7.337,4.224,9.983
		c0.088,0.085,0.137,0.2,0.137,0.324c0,0.117-0.046,0.229-0.128,0.314c-0.174,0.18-0.462,0.185-0.64,0.01
		c-2.9-2.818-4.497-6.594-4.497-10.631c0-4.038,1.597-7.814,4.497-10.631C5.833,1.291,5.947,1.249,6.061,1.249"/>
	<path clip-path="url(#SVGID_2_)" fill="#272525" d="M11.24,19.772c0.318,0.305,0.734,0.472,1.173,0.472h0.041
		c0.454-0.011,0.877-0.198,1.19-0.526c0.304-0.318,0.471-0.736,0.471-1.175c0-0.463-0.192-0.911-0.525-1.23
		c-1.466-1.4-2.272-3.284-2.272-5.305c0-2.022,0.806-3.906,2.271-5.305c0.329-0.314,0.515-0.738,0.526-1.192
		c0.01-0.454-0.157-0.885-0.471-1.214c-0.313-0.328-0.736-0.515-1.191-0.525C11.998,3.76,11.567,3.93,11.24,4.244
		c-2.144,2.047-3.325,4.805-3.325,7.765C7.915,14.968,9.096,17.725,11.24,19.772 M12.414,5.021h0.011
		c0.12,0.003,0.233,0.053,0.316,0.14c0.084,0.087,0.128,0.202,0.126,0.323c-0.003,0.12-0.053,0.233-0.141,0.316
		c-1.713,1.638-2.657,3.842-2.657,6.209c0,2.365,0.944,4.57,2.658,6.208c0.09,0.086,0.14,0.202,0.14,0.327
		c0,0.117-0.045,0.228-0.126,0.312c-0.083,0.087-0.196,0.137-0.316,0.14c-0.119,0.002-0.236-0.041-0.323-0.125
		c-1.895-1.811-2.937-4.248-2.937-6.862c0-2.616,1.042-5.053,2.937-6.863C12.186,5.064,12.297,5.021,12.414,5.021"/>
</g>
</svg>
