<?xml version="1.0" encoding="utf-8"?>
<!-- Generator: Adobe Illustrator 16.0.0, SVG Export Plug-In . SVG Version: 6.00 Build 0)  -->
<!DOCTYPE svg PUBLIC "-//W3C//DTD SVG 1.1//EN" "http://www.w3.org/Graphics/SVG/1.1/DTD/svg11.dtd">
<svg version="1.1" id="Layer_1" xmlns="http://www.w3.org/2000/svg" xmlns:xlink="http://www.w3.org/1999/xlink" x="0px" y="0px"
	 width="35.9px" height="33.632px" viewBox="0 0 35.9 33.632" enable-background="new 0 0 35.9 33.632" xml:space="preserve">
<g>
	<defs>
		<rect id="SVGID_1_" y="0" width="35.9" height="33.632"/>
	</defs>
	<clipPath id="SVGID_2_">
		<use xlink:href="#SVGID_1_"  overflow="visible"/>
	</clipPath>
	<path clip-path="url(#SVGID_2_)" fill="#272525" d="M0.78,28.408h34.339c0.432,0,0.781-0.35,0.781-0.78V0.78
		c0-0.431-0.35-0.78-0.781-0.78H0.78C0.35,0,0,0.349,0,0.78v26.847C0,28.058,0.35,28.408,0.78,28.408 M1.561,1.562h32.778v25.286
		H1.561V1.562z"/>
	<path clip-path="url(#SVGID_2_)" fill="#272525" d="M30.994,3.225H4.907c-0.431,0-0.781,0.35-0.781,0.781v17.585
		c0,0.432,0.35,0.781,0.781,0.781h26.087c0.43,0,0.78-0.35,0.78-0.781V4.006C31.774,3.575,31.424,3.225,30.994,3.225 M30.213,20.811
		H5.687V4.786h24.526V20.811z"/>
	<path clip-path="url(#SVGID_2_)" fill="#272525" d="M17.95,22.984c-0.925,0-1.678,0.752-1.678,1.678s0.753,1.679,1.678,1.679
		s1.678-0.753,1.678-1.679S18.875,22.984,17.95,22.984 M17.95,25.404c-0.409,0-0.741-0.333-0.741-0.742
		c0-0.408,0.332-0.741,0.741-0.741s0.741,0.333,0.741,0.741C18.691,25.071,18.359,25.404,17.95,25.404"/>
	<path clip-path="url(#SVGID_2_)" fill="#272525" d="M26.966,33.632c0.431,0,0.78-0.349,0.78-0.781v-2.726
		c0-0.433-0.35-0.781-0.78-0.781H8.935c-0.432,0-0.781,0.349-0.781,0.781v2.726c0,0.433,0.349,0.781,0.781,0.781H26.966z
		 M9.715,30.906h16.47v1.166H9.715V30.906z"/>
</g>
</svg>
