<?xml version="1.0" encoding="utf-8"?>
<!-- Generator: Adobe Illustrator 16.0.0, SVG Export Plug-In . SVG Version: 6.00 Build 0)  -->
<!DOCTYPE svg PUBLIC "-//W3C//DTD SVG 1.1//EN" "http://www.w3.org/Graphics/SVG/1.1/DTD/svg11.dtd">
<svg version="1.1" id="Layer_1" xmlns="http://www.w3.org/2000/svg" xmlns:xlink="http://www.w3.org/1999/xlink" x="0px" y="0px"
	 width="36.986px" height="37.07px" viewBox="0 0 36.986 37.07" enable-background="new 0 0 36.986 37.07" xml:space="preserve">
<g>
	<defs>
		<rect id="SVGID_1_" y="0" width="36.987" height="37.07"/>
	</defs>
	<clipPath id="SVGID_2_">
		<use xlink:href="#SVGID_1_"  overflow="visible"/>
	</clipPath>
	<path clip-path="url(#SVGID_2_)" fill="#272525" d="M36.854,24.46c-0.13-0.181-0.338-0.287-0.561-0.287
		c-1.896,0-3.18-0.951-4.663-2.053c-0.321-0.238-0.645-0.478-0.978-0.711c-1.357-0.945-3.075-1.912-5.53-1.912
		c-1.036,0-1.88,0.01-2.56,0.029h-5.23c-1.146,0-2.077,0.934-2.077,2.079s0.931,2.078,2.077,2.078h4.849
		c0.649,0.13,1.115,0.694,1.115,1.361c0,0.476-0.25,0.917-0.655,1.171c-0.265,0.07-0.944,0.251-1.804,0.479
		c-0.617,0.148-1.245,0.314-1.845,0.489l-0.13,0.033c-3.361,0.889-4.491,1.181-4.819,1.261c-0.155,0.006-0.285,0.001-0.394-0.017
		l-7.609-4.933l-1.387-1.003c-0.026-0.019-0.054-0.036-0.082-0.051c-0.068-0.043-0.142-0.083-0.218-0.121
		c-0.149-0.076-0.291-0.135-0.444-0.182c-0.109-0.032-0.227-0.058-0.365-0.08c-0.342-0.052-0.622-0.041-0.91,0.015
		C1.131,22.256,0,23.496,0,25.007c0,0.771,0.302,1.498,0.853,2.049c0.012,0.014,0.024,0.026,0.036,0.038
		c0.203,0.195,0.423,0.358,0.658,0.485l12.618,9.147c0.059,0.043,0.125,0.076,0.193,0.098l0.104,0.041
		c0.012,0.004,0.023,0.01,0.034,0.012c0.379,0.13,0.736,0.193,1.091,0.193c0.214,0,0.434-0.021,0.653-0.064
		c0.015-0.003,0.03-0.005,0.044-0.01l0.055-0.015c7.995-2.035,13.722-3.479,16.561-4.18c0.027-0.007,0.053-0.015,0.078-0.024
		l0.249-0.093c1.378-0.344,2.434-0.526,3.056-0.526c0.383,0,0.693-0.31,0.693-0.693v-0.461c0.007-0.042,0.01-0.085,0.01-0.128
		l-0.01-5.89C37.008,24.802,36.965,24.611,36.854,24.46 M35.594,30.813c-0.706,0.076-1.624,0.256-2.741,0.536
		c-0.024,0.006-0.06,0.018-0.083,0.026l-0.239,0.089c-2.854,0.703-8.57,2.146-16.539,4.174l-0.038,0.011
		c-0.332,0.062-0.632,0.044-0.995-0.079L2.322,26.428c-0.028-0.021-0.059-0.039-0.09-0.055c-0.128-0.066-0.253-0.156-0.369-0.267
		c-0.006-0.007-0.012-0.014-0.02-0.021c-0.295-0.29-0.457-0.674-0.457-1.079c0-0.798,0.606-1.453,1.409-1.522
		c0.027-0.003,0.054-0.007,0.081-0.013c0.139-0.028,0.275-0.037,0.455-0.01c0.065,0.01,0.128,0.022,0.179,0.038
		c0.066,0.02,0.135,0.049,0.22,0.092c0.045,0.022,0.089,0.046,0.131,0.075c0.009,0.005,0.02,0.012,0.029,0.018l1.353,0.978
		c0.01,0.007,0.019,0.014,0.029,0.021l7.734,5.014c0.064,0.042,0.136,0.072,0.21,0.091c0.276,0.068,0.591,0.092,0.963,0.072
		c0.04-0.002,0.081-0.008,0.12-0.017c0.352-0.083,2.006-0.516,4.914-1.284l0.146-0.038c0.6-0.174,1.208-0.335,1.819-0.482
		c1.004-0.266,1.756-0.465,1.911-0.507c0.055-0.015,0.106-0.036,0.155-0.063c0.888-0.489,1.439-1.418,1.439-2.424
		c0-1.366-0.979-2.519-2.328-2.738c-0.037-0.007-0.075-0.01-0.112-0.01h-4.911c-0.381,0-0.691-0.311-0.691-0.691
		c0-0.382,0.31-0.692,0.691-0.692h5.25c0.687-0.021,1.518-0.03,2.539-0.03c2.066,0,3.497,0.8,4.736,1.664
		c0.322,0.225,0.635,0.457,0.945,0.687c1.383,1.026,2.807,2.084,4.785,2.29v4.572l0.01,0.678
		C35.597,30.787,35.595,30.801,35.594,30.813"/>
	<path clip-path="url(#SVGID_2_)" fill="#272525" d="M23.838,0.711l-0.001-0.035c-0.01-0.362-0.296-0.655-0.656-0.675L23.145,0
		C23.133,0,23.12,0,23.107,0c-4.845,0-9.093,2.957-10.864,7.296c-0.318-1.906-1.209-3.725-2.659-5.177
		c-0.05-0.048-0.101-0.093-0.152-0.139C9.41,1.96,9.388,1.941,9.366,1.92C9.109,1.681,8.701,1.68,8.431,1.908
		C8.416,1.919,8.4,1.933,8.387,1.948c-3.57,3.57-3.731,9.322-0.367,13.095l0.025,0.029l-4.216,4.217l0.721,0.721l4.22-4.22
		L8.8,15.816c1.815,1.617,4.087,2.42,6.354,2.42c2.445,0,4.885-0.935,6.736-2.786c0.004-0.004,0.029-0.03,0.033-0.035
		c0.245-0.258,0.234-0.684,0.001-0.954c-0.012-0.011-0.022-0.024-0.034-0.035c-1.56-1.56-3.545-2.475-5.607-2.724
		C20.729,10.027,23.839,5.758,23.838,0.711 M20.401,14.938c-3.065,2.588-7.628,2.563-10.679-0.157
		c-0.033-0.03-0.067-0.058-0.101-0.085c-0.022-0.019-0.044-0.035-0.061-0.052c-0.035-0.033-0.071-0.066-0.107-0.097
		c-0.027-0.024-0.055-0.048-0.103-0.095c-0.067-0.068-0.128-0.139-0.19-0.21L9.054,14.12C6.331,11.064,6.311,6.492,8.911,3.424
		c2.504,2.79,2.79,6.955,0.64,10.072c-0.19,0.275-0.156,0.647,0.08,0.883c0.237,0.238,0.609,0.271,0.884,0.081
		C13.568,12.354,17.626,12.585,20.401,14.938 M12.772,11.057c0.028-0.385,0.079-0.779,0.155-1.19c0.86-4.691,4.8-8.154,9.503-8.458
		C22.101,6.6,18.003,10.722,12.772,11.057"/>
</g>
</svg>
