<?xml version="1.0" encoding="utf-8"?>
<!-- Generator: Adobe Illustrator 16.0.0, SVG Export Plug-In . SVG Version: 6.00 Build 0)  -->
<!DOCTYPE svg PUBLIC "-//W3C//DTD SVG 1.1//EN" "http://www.w3.org/Graphics/SVG/1.1/DTD/svg11.dtd">
<svg version="1.1" id="Layer_1" xmlns="http://www.w3.org/2000/svg" xmlns:xlink="http://www.w3.org/1999/xlink" x="0px" y="0px"
	 width="26.19px" height="30.091px" viewBox="0 0 26.19 30.091" enable-background="new 0 0 26.19 30.091" xml:space="preserve">
<g>
	<defs>
		<rect id="SVGID_1_" y="0" width="26.191" height="30.091"/>
	</defs>
	<clipPath id="SVGID_2_">
		<use xlink:href="#SVGID_1_"  overflow="visible"/>
	</clipPath>
	<path clip-path="url(#SVGID_2_)" fill="#272525" d="M2.32,19.466v6.608c0,2.216,1.801,4.017,4.016,4.017
		c2.214,0,4.015-1.801,4.015-4.017v-6.608V4.631h0.391c1.064,0,1.929-1.038,1.929-2.315C12.671,1.039,11.806,0,10.742,0H1.928
		C0.865,0,0,1.039,0,2.316c0,1.277,0.865,2.315,1.928,2.315H2.32v14.833V19.466z M9.047,19.466L9.047,19.466v6.608
		c0,1.495-1.217,2.712-2.711,2.712c-1.495,0-2.712-1.217-2.712-2.712v-6.606v-0.002V4.631h5.423V19.466z M1.928,3.327
		c-0.295,0-0.624-0.415-0.624-1.011c0-0.596,0.329-1.011,0.624-1.011h8.814c0.296,0,0.624,0.415,0.624,1.011
		c0,0.596-0.328,1.011-0.624,1.011H1.928z"/>
	<path clip-path="url(#SVGID_2_)" fill="#272525" d="M15.84,26.076c0,2.215,1.801,4.016,4.016,4.016
		c2.214,0,4.016-1.801,4.016-4.016V13.201v-8.57h0.392c1.063,0,1.928-1.038,1.928-2.315C26.19,1.039,25.326,0,24.263,0h-8.815
		c-1.063,0-1.928,1.039-1.928,2.316c0,1.277,0.865,2.315,1.928,2.315h0.393v8.57V26.076z M22.566,13.201v12.875
		c0,1.495-1.217,2.711-2.711,2.711c-1.495,0-2.712-1.216-2.712-2.711V13.201v-8.57h5.423V13.201z M15.447,3.327
		c-0.295,0-0.624-0.415-0.624-1.011c0-0.596,0.329-1.011,0.624-1.011h8.815c0.295,0,0.624,0.415,0.624,1.011
		c0,0.596-0.329,1.011-0.624,1.011H15.447z"/>
	<path clip-path="url(#SVGID_2_)" fill="#272525" d="M8.762,25.495c0.02-0.258-0.174-0.483-0.432-0.504
		c-0.257-0.018-0.485,0.175-0.505,0.432c-0.009,0.125-0.029,0.242-0.061,0.358c-0.204,0.774-0.836,1.07-1.329,1.184
		c-0.233,0.053-0.402,0.057-0.42,0.057c-0.258,0.004-0.466,0.217-0.463,0.476c0.002,0.253,0.21,0.462,0.473,0.465
		C6.906,27.952,8.611,27.426,8.762,25.495"/>
	<path clip-path="url(#SVGID_2_)" fill="#272525" d="M19.545,27.96c0.881-0.009,2.587-0.534,2.736-2.466
		c0.021-0.258-0.173-0.483-0.431-0.504H21.85c-0.256-0.018-0.484,0.175-0.504,0.432c-0.011,0.125-0.029,0.241-0.062,0.358
		c-0.205,0.774-0.836,1.071-1.33,1.184c-0.231,0.053-0.401,0.058-0.419,0.058c-0.259,0.003-0.466,0.216-0.464,0.474
		C19.074,27.75,19.282,27.958,19.545,27.96"/>
	<path clip-path="url(#SVGID_2_)" fill="#272525" d="M3.421,20.076h5.827c0.787,0,0.788-1.223,0-1.223H3.421
		C2.634,18.853,2.633,20.076,3.421,20.076"/>
	<path clip-path="url(#SVGID_2_)" fill="#272525" d="M16.67,13.813h6.371c0.786,0,0.788-1.223,0-1.223H16.67
		C15.883,12.589,15.882,13.813,16.67,13.813"/>
</g>
</svg>
