<?xml version="1.0" encoding="utf-8"?>
<!-- Generator: Adobe Illustrator 16.0.0, SVG Export Plug-In . SVG Version: 6.00 Build 0)  -->
<!DOCTYPE svg PUBLIC "-//W3C//DTD SVG 1.1//EN" "http://www.w3.org/Graphics/SVG/1.1/DTD/svg11.dtd">
<svg version="1.1" id="Layer_1" xmlns="http://www.w3.org/2000/svg" xmlns:xlink="http://www.w3.org/1999/xlink" x="0px" y="0px"
	 width="35.187px" height="28.49px" viewBox="0 0 35.187 28.49" enable-background="new 0 0 35.187 28.49" xml:space="preserve">
<g>
	<defs>
		<rect id="SVGID_1_" width="35.186" height="28.49"/>
	</defs>
	<clipPath id="SVGID_2_">
		<use xlink:href="#SVGID_1_"  overflow="visible"/>
	</clipPath>
	<path clip-path="url(#SVGID_2_)" fill="#272525" d="M19.501,0h-3.815h-0.578H0.559C0.256,0,0,0.279,0,0.611v23.103
		c0,0.33,0.256,0.611,0.559,0.611H14.55v3.519c0,0.426,0.489,0.814,0.84,0.528c0.395-0.322,0.789-0.643,1.183-0.964
		c0.29-0.236,0.58-0.473,0.871-0.709c0.073-0.06,0.182-0.128,0.274-0.191c0.057,0.038,0.111,0.078,0.152,0.119
		c0.253,0.254,0.563,0.463,0.839,0.688c0.429,0.352,0.859,0.705,1.289,1.057c0.239,0.197,0.475,0.126,0.627-0.056
		c0.125-0.099,0.212-0.253,0.212-0.473v-3.519h13.79c0.164,0,0.288-0.066,0.377-0.163c0.007-0.007,0.013-0.014,0.021-0.021
		c0.002-0.004,0.006-0.008,0.009-0.012c0.091-0.098,0.151-0.234,0.151-0.416V0.611C35.186,0.28,34.93,0,34.628,0H20.28H19.501z
		 M14.55,23.103H1.117V1.223H14.55V23.103z M19.722,26.627c-0.579-0.475-1.157-0.95-1.736-1.425c-0.144-0.117-0.421-0.116-0.564,0
		c-0.584,0.477-1.17,0.953-1.754,1.43V1.222h0.019h3.815h0.221V26.627z M20.838,1.222h13.23v21.879h-13.23V1.222z"/>
	<path clip-path="url(#SVGID_2_)" fill="#272525" d="M3.655,6.965h7.891c0.479,0,0.48-0.815,0-0.815H3.655
		C3.176,6.15,3.175,6.965,3.655,6.965"/>
	<path clip-path="url(#SVGID_2_)" fill="#272525" d="M3.655,10.394h7.891c0.479,0,0.48-0.815,0-0.815H3.655
		C3.176,9.579,3.175,10.394,3.655,10.394"/>
	<path clip-path="url(#SVGID_2_)" fill="#272525" d="M3.655,13.821h7.891c0.479,0,0.48-0.815,0-0.815H3.655
		C3.176,13.006,3.175,13.821,3.655,13.821"/>
	<path clip-path="url(#SVGID_2_)" fill="#272525" d="M3.655,17.249h7.891c0.479,0,0.48-0.816,0-0.816H3.655
		C3.176,16.433,3.175,17.249,3.655,17.249"/>
	<path clip-path="url(#SVGID_2_)" fill="#272525" d="M31.573,6.15h-7.892c-0.479,0-0.479,0.815,0,0.815h7.892
		C32.053,6.965,32.054,6.15,31.573,6.15"/>
	<path clip-path="url(#SVGID_2_)" fill="#272525" d="M31.573,9.578h-7.892c-0.479,0-0.479,0.815,0,0.815h7.892
		C32.053,10.393,32.054,9.578,31.573,9.578"/>
	<path clip-path="url(#SVGID_2_)" fill="#272525" d="M31.573,13.006h-7.892c-0.479,0-0.479,0.815,0,0.815h7.892
		C32.053,13.821,32.054,13.006,31.573,13.006"/>
	<path clip-path="url(#SVGID_2_)" fill="#272525" d="M31.573,16.434h-7.892c-0.479,0-0.479,0.816,0,0.816h7.892
		C32.053,17.25,32.054,16.434,31.573,16.434"/>
</g>
</svg>
