<?xml version="1.0" encoding="utf-8"?>
<!-- Generator: Adobe Illustrator 16.0.0, SVG Export Plug-In . SVG Version: 6.00 Build 0)  -->
<!DOCTYPE svg PUBLIC "-//W3C//DTD SVG 1.1//EN" "http://www.w3.org/Graphics/SVG/1.1/DTD/svg11.dtd">
<svg version="1.1" id="Layer_1" xmlns="http://www.w3.org/2000/svg" xmlns:xlink="http://www.w3.org/1999/xlink" x="0px" y="0px"
	 width="33.437px" height="31.35px" viewBox="0 0 33.437 31.35" enable-background="new 0 0 33.437 31.35" xml:space="preserve">
<g>
	<defs>
		<rect id="SVGID_1_" width="33.436" height="31.35"/>
	</defs>
	<clipPath id="SVGID_2_">
		<use xlink:href="#SVGID_1_"  overflow="visible"/>
	</clipPath>
	<path clip-path="url(#SVGID_2_)" fill="#272525" d="M5.566,28.599c0,0.506-0.411,0.917-0.916,0.917H3.665
		c-0.505,0-0.916-0.411-0.916-0.917v-2.036H1.698c-0.087,0-0.17-0.014-0.254-0.026v2.063c0,1.225,0.997,2.221,2.221,2.221H4.65
		c1.224,0,2.22-0.996,2.22-2.221v-2.036H5.566V28.599z"/>
	<path clip-path="url(#SVGID_2_)" fill="#272525" d="M31.185,26.563v2.566c0,0.505-0.411,0.916-0.917,0.916h-0.983
		c-0.506,0-0.917-0.411-0.917-0.916v-2.566h-1.304v2.566c0,1.226,0.996,2.222,2.221,2.222h0.983c1.226,0,2.222-0.996,2.222-2.222
		v-2.75c-0.229,0.113-0.48,0.184-0.751,0.184H31.185z"/>
	<path clip-path="url(#SVGID_2_)" fill="#272525" d="M2.749,22.346v-7.095c0-0.517,0.387-0.937,0.863-0.937h26.71
		c0.477,0,0.863,0.42,0.863,0.937v7.095h0.553c0.271,0,0.524,0.069,0.751,0.183v-7.278c0-1.236-0.972-2.241-2.167-2.241h-0.547
		V9.717c0.284,0.135,0.616,0.213,0.975,0.213c1.08,0,1.926-0.697,1.926-1.588V5.609c0-0.892-0.846-1.59-1.926-1.59
		c-0.358,0-0.69,0.079-0.975,0.215V2.622C29.774,1.176,28.777,0,27.554,0H6.38C5.155,0,4.159,1.176,4.159,2.622v1.567
		c-0.276-0.108-0.588-0.17-0.922-0.17c-1.139,0-2.031,0.698-2.031,1.59v2.733c0,0.891,0.892,1.588,2.031,1.588
		c0.334,0,0.646-0.061,0.922-0.169v3.249H3.611c-1.195,0-2.168,1.005-2.168,2.241v7.121c0.084-0.013,0.168-0.025,0.255-0.025H2.749z
		 M30.128,5.609c0-0.087,0.234-0.285,0.621-0.285s0.621,0.198,0.621,0.285v2.733c0,0.086-0.234,0.284-0.621,0.284
		s-0.621-0.198-0.621-0.284V5.609z M5.464,2.622c0-0.714,0.419-1.317,0.916-1.317h21.173c0.496,0,0.916,0.603,0.916,1.317V13.01
		H5.464V2.622z M3.963,8.341C3.953,8.408,3.705,8.626,3.237,8.626c-0.469,0-0.716-0.219-0.727-0.284V5.609
		c0.01-0.066,0.258-0.285,0.727-0.285c0.468,0,0.715,0.219,0.726,0.285V8.341z"/>
	<path clip-path="url(#SVGID_2_)" fill="#272525" d="M31.737,22.346h-0.553H2.749h-1.05c-0.087,0-0.171,0.013-0.255,0.025
		C0.629,22.497,0,23.195,0,24.045v0.819c0,0.849,0.629,1.548,1.444,1.672c0.083,0.013,0.167,0.025,0.254,0.025h1.05h2.818h1.304
		h20.193h1.304h2.817h0.553c0.271,0,0.524-0.069,0.751-0.183c0.56-0.278,0.948-0.85,0.948-1.515v-0.819
		c0-0.666-0.389-1.238-0.948-1.516C32.262,22.417,32.009,22.346,31.737,22.346 M32.483,24.865c0,0.41-0.334,0.744-0.746,0.744H1.698
		c-0.411,0-0.746-0.334-0.746-0.744v-0.819c0-0.411,0.335-0.746,0.746-0.746h30.039c0.412,0,0.746,0.335,0.746,0.746V24.865z"/>
	<path clip-path="url(#SVGID_2_)" fill="#272525" d="M26.011,3.224H8.576c-0.827,0-1.5,0.673-1.5,1.5v5.098
		c0,0.827,0.673,1.501,1.5,1.501h17.435c0.827,0,1.5-0.674,1.5-1.501V4.724C27.511,3.897,26.838,3.224,26.011,3.224 M26.859,9.822
		c0,0.468-0.381,0.848-0.849,0.848H8.576c-0.468,0-0.848-0.38-0.848-0.848V4.724c0-0.467,0.38-0.848,0.848-0.848h17.435
		c0.468,0,0.849,0.381,0.849,0.848V9.822z"/>
	<path clip-path="url(#SVGID_2_)" fill="#272525" d="M8.598,16.376c-1.02,0-1.848,0.829-1.848,1.849
		c0,1.019,0.828,1.848,1.848,1.848c1.019,0,1.848-0.829,1.848-1.848C10.446,17.206,9.617,16.376,8.598,16.376 M8.598,19.42
		c-0.659,0-1.196-0.536-1.196-1.195s0.537-1.196,1.196-1.196s1.195,0.537,1.195,1.196S9.257,19.42,8.598,19.42"/>
	<path clip-path="url(#SVGID_2_)" fill="#272525" d="M25.99,16.376c-1.02,0-1.85,0.829-1.85,1.849c0,1.019,0.83,1.848,1.85,1.848
		c1.018,0,1.848-0.829,1.848-1.848C27.838,17.206,27.008,16.376,25.99,16.376 M25.99,19.42c-0.66,0-1.196-0.536-1.196-1.195
		s0.536-1.196,1.196-1.196c0.658,0,1.194,0.537,1.194,1.196S26.648,19.42,25.99,19.42"/>
</g>
</svg>
