<?xml version="1.0" encoding="utf-8"?>
<!-- Generator: Adobe Illustrator 16.0.0, SVG Export Plug-In . SVG Version: 6.00 Build 0)  -->
<!DOCTYPE svg PUBLIC "-//W3C//DTD SVG 1.1//EN" "http://www.w3.org/Graphics/SVG/1.1/DTD/svg11.dtd">
<svg version="1.1" id="Layer_1" xmlns="http://www.w3.org/2000/svg" xmlns:xlink="http://www.w3.org/1999/xlink" x="0px" y="0px"
	 width="36.607px" height="30.658px" viewBox="0 0 36.607 30.658" enable-background="new 0 0 36.607 30.658" xml:space="preserve">
<g>
	<defs>
		<rect id="SVGID_1_" width="36.608" height="30.658"/>
	</defs>
	<clipPath id="SVGID_2_">
		<use xlink:href="#SVGID_1_"  overflow="visible"/>
	</clipPath>
	<path clip-path="url(#SVGID_2_)" fill="#272525" d="M35.974,18.844l-1.331-0.254c-0.063-0.729-0.212-1.445-0.444-2.142l1.122-0.762
		c0.355-0.243,0.448-0.729,0.207-1.085l-1.974-2.903c-0.117-0.171-0.296-0.289-0.5-0.327c-0.202-0.04-0.413,0.003-0.585,0.121
		l-1.122,0.762c-0.561-0.473-1.172-0.876-1.825-1.202l0.254-1.331c0.081-0.424-0.197-0.832-0.621-0.913L25.706,8.15
		c-0.203-0.039-0.414,0.005-0.585,0.121c-0.171,0.117-0.289,0.296-0.328,0.5l-0.254,1.331c-0.728,0.062-1.444,0.211-2.14,0.444
		l-0.764-1.122c-0.116-0.171-0.296-0.289-0.499-0.328s-0.414,0.005-0.585,0.121l-2.903,1.973c-0.171,0.117-0.289,0.297-0.327,0.5
		c-0.04,0.203,0.003,0.414,0.12,0.585l0.762,1.122c-0.472,0.561-0.875,1.173-1.201,1.826l-1.332-0.254
		c-0.202-0.038-0.413,0.005-0.584,0.121c-0.172,0.117-0.289,0.296-0.328,0.5l-0.658,3.447c-0.08,0.424,0.197,0.834,0.621,0.913
		l1.33,0.255c0.063,0.728,0.212,1.443,0.445,2.14l-1.122,0.763c-0.171,0.116-0.289,0.296-0.328,0.499
		c-0.039,0.204,0.005,0.414,0.121,0.585l1.973,2.903c0.116,0.172,0.296,0.289,0.5,0.328c0.202,0.039,0.413-0.005,0.583-0.121
		l1.123-0.763c0.561,0.474,1.172,0.876,1.826,1.202l-0.254,1.331c-0.081,0.424,0.197,0.832,0.62,0.913l3.449,0.657
		c0.049,0.01,0.098,0.015,0.146,0.015c0.368,0,0.695-0.261,0.768-0.635l0.254-1.331c0.727-0.063,1.443-0.212,2.14-0.445l0.763,1.123
		c0.116,0.171,0.297,0.289,0.499,0.327c0.203,0.039,0.414-0.005,0.585-0.121l2.903-1.973c0.357-0.242,0.449-0.728,0.207-1.084
		l-0.763-1.122c0.474-0.562,0.875-1.173,1.203-1.827l1.331,0.254c0.422,0.08,0.832-0.196,0.911-0.621l0.658-3.446
		c0.039-0.204-0.005-0.414-0.121-0.586C36.357,19,36.177,18.882,35.974,18.844 M34.549,22.145l-1.166-0.222
		c-0.363-0.07-0.725,0.125-0.866,0.467c-0.37,0.892-0.901,1.698-1.576,2.398c-0.258,0.265-0.292,0.675-0.085,0.979l0.669,0.983
		l-1.613,1.096l-0.668-0.983c-0.208-0.306-0.602-0.423-0.943-0.282c-0.898,0.371-1.846,0.567-2.81,0.584
		c-0.37,0.006-0.685,0.271-0.754,0.634l-0.222,1.165L22.6,28.599l0.224-1.165c0.068-0.363-0.126-0.725-0.467-0.867
		c-0.893-0.37-1.699-0.901-2.399-1.577c-0.265-0.257-0.676-0.292-0.98-0.084l-0.983,0.668l-1.095-1.612l0.983-0.668
		c0.306-0.208,0.424-0.602,0.283-0.942c-0.371-0.9-0.567-1.846-0.584-2.811c-0.007-0.37-0.271-0.685-0.635-0.752l-1.164-0.224
		l0.365-1.915l1.165,0.223c0.363,0.069,0.724-0.125,0.867-0.467c0.371-0.892,0.901-1.698,1.578-2.398
		c0.256-0.265,0.291-0.675,0.084-0.98l-0.668-0.983l1.611-1.095l0.668,0.982c0.208,0.306,0.602,0.424,0.943,0.283
		c0.899-0.371,1.846-0.567,2.81-0.584c0.37-0.006,0.685-0.271,0.754-0.633l0.223-1.166l1.914,0.365l-0.222,1.166
		c-0.07,0.362,0.125,0.724,0.467,0.866c0.892,0.371,1.697,0.902,2.398,1.578c0.265,0.257,0.674,0.292,0.98,0.084l0.982-0.668
		l1.096,1.612L32.814,15.5c-0.307,0.208-0.425,0.603-0.283,0.944c0.371,0.899,0.566,1.846,0.584,2.811
		c0.006,0.369,0.271,0.684,0.634,0.753l1.165,0.223L34.549,22.145z"/>
	<path clip-path="url(#SVGID_2_)" fill="#272525" d="M26.398,13.887c-1.471-0.281-2.965,0.029-4.204,0.871s-2.076,2.117-2.355,3.587
		c-0.282,1.472,0.027,2.965,0.869,4.205c0.843,1.238,2.116,2.075,3.589,2.355c0.353,0.068,0.705,0.101,1.053,0.101
		c2.638,0,4.995-1.873,5.507-4.559C31.437,17.411,29.437,14.468,26.398,13.887 M29.323,20.155c-0.202,1.063-0.807,1.982-1.7,2.591
		c-0.895,0.607-1.973,0.83-3.033,0.628c-1.063-0.203-1.983-0.808-2.591-1.701c-0.607-0.895-0.83-1.972-0.628-3.034
		s0.807-1.981,1.701-2.59c0.679-0.46,1.463-0.702,2.268-0.702c0.254,0,0.51,0.025,0.766,0.074
		C28.3,15.84,29.742,17.963,29.323,20.155"/>
	<path clip-path="url(#SVGID_2_)" fill="#272525" d="M7.536,15.414l0.144,1.008c0.022,0.154,0.105,0.293,0.229,0.386
		c0.102,0.076,0.226,0.117,0.352,0.117c0.027,0,0.055-0.002,0.083-0.006l2.612-0.375c0.32-0.046,0.543-0.343,0.497-0.664
		l-0.145-1.008c0.502-0.222,0.975-0.503,1.413-0.839l0.817,0.611c0.259,0.194,0.627,0.142,0.82-0.118l1.581-2.112
		c0.195-0.258,0.142-0.626-0.117-0.821l-0.816-0.61c0.199-0.516,0.336-1.048,0.408-1.593l1.008-0.144
		c0.154-0.023,0.293-0.105,0.386-0.229c0.093-0.125,0.133-0.281,0.111-0.436L16.543,5.97c-0.046-0.32-0.342-0.542-0.664-0.497
		l-1.008,0.145c-0.223-0.502-0.504-0.976-0.839-1.414l0.611-0.816c0.093-0.124,0.133-0.281,0.111-0.434
		c-0.022-0.155-0.105-0.293-0.229-0.386l-2.111-1.582c-0.125-0.094-0.281-0.133-0.436-0.112c-0.154,0.023-0.293,0.105-0.385,0.23
		l-0.612,0.816c-0.515-0.199-1.048-0.336-1.593-0.408L9.245,0.502C9.199,0.183,8.903-0.04,8.581,0.005L5.968,0.38
		c-0.153,0.023-0.293,0.105-0.385,0.23C5.489,0.734,5.451,0.892,5.472,1.044l0.145,1.008c-0.502,0.223-0.975,0.504-1.412,0.84
		L3.387,2.282c-0.124-0.093-0.28-0.133-0.434-0.112C2.799,2.192,2.66,2.274,2.566,2.399L0.984,4.511
		c-0.093,0.125-0.133,0.281-0.11,0.435C0.896,5.1,0.979,5.239,1.103,5.332l0.817,0.612c-0.2,0.514-0.336,1.047-0.409,1.592
		L0.503,7.68C0.349,7.703,0.21,7.785,0.117,7.91C0.023,8.034-0.017,8.19,0.006,8.344l0.374,2.612
		c0.047,0.321,0.343,0.543,0.665,0.498l1.007-0.146c0.223,0.503,0.503,0.976,0.839,1.413l-0.61,0.817
		c-0.094,0.125-0.134,0.281-0.112,0.435c0.022,0.153,0.104,0.292,0.229,0.386l2.112,1.581c0.259,0.194,0.627,0.142,0.821-0.117
		l0.611-0.817C6.458,15.205,6.991,15.342,7.536,15.414 M5.279,13.934l-0.535,0.716l-1.173-0.879l0.535-0.715
		c0.167-0.222,0.154-0.531-0.029-0.739c-0.484-0.549-0.854-1.173-1.102-1.855c-0.094-0.261-0.36-0.42-0.634-0.381l-0.883,0.127
		L1.25,8.758L2.133,8.63c0.274-0.039,0.484-0.265,0.502-0.543C2.681,7.364,2.86,6.661,3.17,5.998
		c0.118-0.252,0.043-0.551-0.18-0.717L2.275,4.746l0.878-1.173L3.87,4.107c0.222,0.167,0.53,0.154,0.739-0.029
		C5.158,3.595,5.78,3.224,6.463,2.977c0.26-0.095,0.42-0.36,0.38-0.635L6.716,1.458L8.167,1.25l0.126,0.883
		c0.04,0.275,0.266,0.485,0.544,0.502c0.723,0.046,1.426,0.226,2.09,0.535c0.251,0.118,0.55,0.043,0.717-0.179l0.535-0.715
		l1.173,0.878L12.817,3.87C12.65,4.092,12.663,4.4,12.847,4.608c0.484,0.549,0.854,1.173,1.102,1.855
		c0.095,0.261,0.359,0.419,0.635,0.38l0.883-0.127l0.208,1.45l-0.883,0.127c-0.276,0.039-0.485,0.267-0.502,0.544
		c-0.046,0.724-0.226,1.427-0.535,2.09c-0.119,0.251-0.043,0.551,0.179,0.718l0.715,0.535l-0.878,1.173l-0.716-0.536
		c-0.221-0.166-0.53-0.155-0.738,0.029c-0.55,0.483-1.173,0.855-1.855,1.103c-0.261,0.094-0.42,0.359-0.38,0.633l0.126,0.883
		l-1.45,0.209l-0.126-0.883c-0.04-0.275-0.267-0.485-0.544-0.503c-0.725-0.044-1.428-0.225-2.09-0.535
		C5.917,13.717,5.833,13.7,5.75,13.7C5.569,13.7,5.393,13.783,5.279,13.934"/>
	<path clip-path="url(#SVGID_2_)" fill="#272525" d="M9.062,12.636c2.301-0.331,3.904-2.471,3.574-4.772
		c-0.331-2.301-2.472-3.904-4.773-3.574C5.562,4.621,3.959,6.761,4.29,9.062c0.301,2.099,2.108,3.617,4.17,3.617
		C8.657,12.679,8.858,12.665,9.062,12.636 M5.45,8.895C5.212,7.234,6.37,5.689,8.029,5.452C8.176,5.43,8.32,5.419,8.464,5.419
		c1.487,0,2.792,1.096,3.009,2.611c0.239,1.66-0.919,3.206-2.579,3.444C7.232,11.711,5.688,10.556,5.45,8.895"/>
</g>
</svg>
